<svg width="66" height="66" viewBox="0 0 66 66" fill="none" xmlns="http://www.w3.org/2000/svg">
<path fill-rule="evenodd" clip-rule="evenodd" d="M3.61396 50.9708C2.81186 51.9524 1.8772 53.5426 1.57179 54.7759C0.578024 58.7896 1.91037 62.392 5.93334 63.3312C12.4714 64.8577 16.2462 60.3419 15.0266 56.757C13.879 53.3822 10.9044 53.8272 8.13252 53.2258C6.50486 52.8729 5.26241 52.5301 4.47714 51.038L4.14906 50.4453L3.61396 50.9706V50.9708Z" fill="white"/>
<path d="M64.7426 2.36328H55.417V11.6064H64.7426V2.36328Z" fill="white"/>
<path d="M64.7426 13.4219H55.417V63.0209H64.7426V13.4219Z" fill="white"/>
<path fill-rule="evenodd" clip-rule="evenodd" d="M16.1743 16.4751L21.8689 2.85791L43.3626 54.7568C44.2396 56.874 46.1023 62.1554 47.7822 63.0208H32.5968C33.0094 63.0208 33.2983 61.8653 33.0095 61.1638C32.7207 60.4624 16.1743 16.475 16.1743 16.475V16.4751Z" fill="white"/>
</svg>
