<svg width="140" height="26" viewBox="0 0 140 26" fill="none" xmlns="http://www.w3.org/2000/svg">
<g clip-path="url(#clip0_42_4)">
<path d="M117.63 1.17773C117.63 1.17773 103.773 3.71247 100.544 24.9231H108.886C108.886 24.9231 109.02 10.3821 117.63 1.17773Z" fill="#8F8F8F"/>
<path d="M20.135 6.0708C19.3428 7.17724 17.8688 7.56383 16.6265 6.99488C15.4688 6.46469 14.2366 6.1752 13.0044 6.1752C9.02646 6.1752 6.37634 9.17494 6.37634 13.0167C6.37634 17.0276 9.26462 19.8249 12.9704 19.8249C15.2476 19.8249 17.5244 18.7463 19.1566 17.3982L22.215 21.8135C19.7676 24.1732 16.5046 25.4196 13.0044 25.4196C5.69588 25.4196 0.0200195 20.2293 0.0200195 13.0167C0.0200195 5.80456 5.66186 0.580078 13.1065 0.580078C15.2145 0.580078 17.2802 1.01135 19.1032 1.92085C20.6554 2.6954 21.1409 4.66575 20.135 6.0708Z" fill="white"/>
<path d="M29.9485 19.6654H41.1692V24.9232H23.6543V1.17871H29.9485V19.6654Z" fill="white"/>
<path d="M49.2557 24.9232H42.9614V4.29926C42.9614 2.57555 44.3706 1.17871 46.1086 1.17871C47.8469 1.17871 49.2557 2.57555 49.2557 4.29926V24.9232Z" fill="white"/>
<path d="M73.8292 24.9232H67.5004L57.408 11.2534V24.9232H51.1138V1.17871H57.545L67.5349 14.7806V1.17871H73.8292V24.9232Z" fill="white"/>
<path d="M93.4878 6.43647H81.9251V10.4392H89.6911C91.0322 10.4392 92.1196 11.5173 92.1196 12.8476C92.1196 14.1775 91.0322 15.2556 89.6911 15.2556H81.9251V19.6654H93.8299V24.9232H75.6304V1.17871H89.5701C89.5701 1.17871 90.435 1.91315 91.8359 3.86389C93.0897 5.60994 93.4878 6.43647 93.4878 6.43647Z" fill="white"/>
<path d="M127.011 19.8693C123.418 19.8693 120.442 17.0533 120.442 13.0169C120.442 8.9467 123.418 6.13113 127.011 6.13113C130.637 6.13113 133.579 8.9467 133.579 13.0169C133.579 17.0533 130.637 19.8693 127.011 19.8693ZM127.011 0.5C119.86 0.5 114.045 5.75821 114.045 13.0169C114.045 20.276 119.86 25.5 127.011 25.5C134.228 25.5 139.976 20.276 139.976 13.0169C139.976 5.75821 134.228 0.5 127.011 0.5Z" fill="white"/>
<path d="M91.7632 1.17773C91.7632 1.17773 105.621 3.71247 108.849 24.9231H100.508C100.508 24.9231 100.374 10.3821 91.7632 1.17773Z" fill="white"/>
<path d="M107.895 4.17311C107.895 5.92463 106.464 7.34473 104.697 7.34473C102.931 7.34473 101.499 5.92463 101.499 4.17311C101.499 2.42159 102.931 1.00195 104.697 1.00195C106.464 1.00195 107.895 2.42159 107.895 4.17311Z" fill="white"/>
</g>
<defs>
<clipPath id="clip0_42_4">
<rect width="140" height="26" fill="white"/>
</clipPath>
</defs>
</svg>
