<svg width="97" height="75" viewBox="0 0 97 75" fill="none" xmlns="http://www.w3.org/2000/svg">
<path fill-rule="evenodd" clip-rule="evenodd" d="M86.2022 17.4263C89.1756 17.4263 91.5861 19.9059 91.5861 22.9648C91.5861 26.0236 89.1756 28.5032 86.2022 28.5032C83.2288 28.5032 80.8184 26.0236 80.8184 22.9648C80.8184 19.9059 83.2288 17.4263 86.2022 17.4263ZM86.2022 18.8802C88.395 18.8802 90.1726 20.709 90.1726 22.9647C90.1726 25.2204 88.3949 27.0491 86.2022 27.0491C84.0094 27.0491 82.2317 25.2204 82.2317 22.9647C82.2317 20.7089 84.0094 18.8802 86.2022 18.8802Z" fill="white"/>
<path fill-rule="evenodd" clip-rule="evenodd" d="M41.9868 37.0131C41.9868 43.1746 43.5255 47.5561 47.7435 51.7766C57.5246 61.5637 73.6198 58.4227 79.4 46.3741C85.793 33.0479 75.3495 18.2319 62.4981 18.2319C56.3403 18.2319 51.9614 19.7716 47.7435 23.9921C45.9941 25.7425 45.0354 27.0544 43.8557 29.3958C42.925 31.2433 41.9868 34.3186 41.9868 37.0131Z" fill="white"/>
<path fill-rule="evenodd" clip-rule="evenodd" d="M5.41455 57.5368H21.0883C30.4958 57.5368 39.6645 48.3626 39.6645 38.9493C39.6645 32.7306 38.2377 28.3246 33.9079 23.9921C30.7274 20.8098 25.8905 18.2319 21.0883 18.2319H5.41464V57.5368H5.41455Z" fill="white"/>
<path fill-rule="evenodd" clip-rule="evenodd" d="M85.826 22.481H85.2665V20.932H86.199C86.7715 20.932 87.3178 21.1113 87.3178 21.7065C87.3178 22.3865 86.4903 22.481 85.826 22.481V22.481ZM84.0171 25.9661H85.2665V23.449H86.0125L87.3178 25.9661H88.6233L87.1313 23.2554C89.1512 23.081 89.1832 19.9639 86.5719 19.9639H84.0171V25.9661Z" fill="white"/>
</svg>
