<svg width="70" height="70" viewBox="0 0 70 70" fill="none" xmlns="http://www.w3.org/2000/svg">
<path d="M34.898 0C15.6247 0 0 15.6255 0 34.8997C0 54.1739 15.6247 69.7993 34.898 69.7993C54.1713 69.7993 69.796 54.1739 69.796 34.8997C69.796 15.6255 54.1713 0 34.898 0ZM34.898 67.052C17.1414 67.052 2.7472 52.6571 2.7472 34.8997C2.7472 17.1422 17.1414 2.74733 34.898 2.74733C52.6546 2.74733 67.0488 17.1422 67.0488 34.8997C67.0488 52.6571 52.6546 67.052 34.898 67.052Z" fill="white"/>
<path d="M29.1007 56.1618C25.7954 56.1618 22.6255 54.8488 20.2884 52.5114C17.9512 50.1742 16.6382 47.0041 16.6382 43.6987C16.6378 43.2442 16.6665 42.7902 16.724 42.3394C17.096 42.5969 17.7399 42.8259 18.813 43.0261C18.7414 54.7739 29.1007 56.1618 29.1007 56.1618Z" fill="white"/>
<path d="M29.1044 43.1261C35.8687 43.1261 41.3523 42.4085 41.3523 41.5235C41.3523 40.6384 35.8687 39.9209 29.1044 39.9209C22.3401 39.9209 16.8564 40.6384 16.8564 41.5235C16.8564 42.4085 22.3401 43.1261 29.1044 43.1261Z" fill="white"/>
<path d="M29.1032 57.9506C25.6392 57.9567 22.2915 56.7007 19.6861 54.4176C17.0808 52.1346 15.3962 48.9805 14.9473 45.5455C14.4985 42.1105 15.3161 38.6295 17.2473 35.7536C19.1784 32.8777 22.091 30.8036 25.4404 29.9193V11.8184H25.9125V30.277L25.7408 30.3342C22.4476 31.1725 19.581 33.1994 17.6926 36.0247C15.8042 38.8501 15.0277 42.2741 15.5124 45.6377C15.9971 49.0012 17.7089 52.0667 20.3182 54.2437C22.9275 56.4208 26.2499 57.5557 29.6457 57.4299C33.0415 57.3041 36.2709 55.9265 38.7119 53.5624C41.1531 51.1983 42.6334 48.0147 42.8681 44.6244C43.1027 41.2342 42.0749 37.877 39.9828 35.1991C37.8906 32.5212 34.8818 30.712 31.5357 30.1196L31.3497 30.091V11.8184H31.8075V29.7046C35.2892 30.3757 38.3956 32.3206 40.5201 35.1595C42.6447 37.9985 43.6346 41.5274 43.2967 45.0571C42.9587 48.5868 41.3171 51.8638 38.6926 54.248C36.068 56.6322 32.649 57.9523 29.1032 57.9506Z" fill="white"/>
<path d="M30.2174 31.2943V12.3921H27.1411V31.3944C24.7566 31.7766 22.5342 32.8426 20.7437 34.4631C18.9532 36.0836 17.6713 38.1889 17.0537 40.5236C17.6689 40.2374 18.6849 39.9941 20.3589 39.7652C22.7055 39.4647 25.8104 39.293 29.1013 39.293C32.3923 39.293 35.5114 39.4647 37.8437 39.7652C39.5321 39.9941 40.548 40.2374 41.1632 40.5236C40.5086 38.0466 39.1064 35.8317 37.1478 34.1801C35.1892 32.5287 32.7692 31.521 30.2174 31.2943Z" fill="white"/>
<path d="M31.5791 10.3018H25.6841V10.7697H31.5791V10.3018Z" fill="white"/>
<path d="M47.7278 18.0435H37.3828V19.4701H47.7278V18.0435Z" fill="white"/>
<path d="M51.8782 54.5308C51.5634 57.7504 48.7876 58.2655 44.9673 58.2655C44.1087 58.2655 43.193 58.2368 42.2487 58.2083H41.5476C35.8528 58.0509 35.395 56.4054 35.395 55.9188H36.6541C36.6528 55.885 36.6479 55.8515 36.6398 55.8187C36.6828 55.9045 37.341 56.8346 41.5762 56.9491L42.2773 56.9777C47.7431 57.1351 50.3758 57.0921 50.6334 54.4307C50.9625 51.0538 49.4458 43.3699 48.2868 40.136C47.2852 37.3458 46.3123 32.0085 46.0117 30.32H39.8306C39.7137 31.4315 39.5321 32.5351 39.2869 33.6254L38.0706 33.3249C38.3261 32.1883 38.5077 31.0364 38.6144 29.8765C38.6252 29.8198 38.63 29.7623 38.6286 29.7048V29.6761C38.6266 29.6467 38.6315 29.6174 38.643 29.5903V29.5474C38.6573 29.4185 38.6716 29.2612 38.7003 29.0751C38.9005 27.0433 39.3584 21.7489 38.8147 19.3164L39.4156 19.1733C39.9879 21.706 39.5444 26.9717 39.3298 29.0751H46.4267C45.1104 23.6807 45.8687 19.3736 45.8973 19.1876L46.5126 19.3021C46.5126 19.345 45.7113 23.7379 47.0563 29.0751C47.0615 29.081 47.0654 29.0877 47.0678 29.0951C47.0703 29.1025 47.0712 29.1104 47.0706 29.1181L47.1565 29.5759V29.6046C47.2566 30.1483 48.3727 36.6589 49.4601 39.7067C50.662 43.0264 52.2359 50.8821 51.8782 54.5308Z" fill="white"/>
</svg>
