<svg width="192" height="71" viewBox="0 0 192 71" fill="none" xmlns="http://www.w3.org/2000/svg">
<path d="M72.127 17.1883C73.3874 16.5581 76.9966 14.8393 78.6581 14.1519C78.4861 14.954 78.3143 15.6988 78.0852 16.5008L76.5956 22.8029C75.6216 26.8133 74.6477 30.9383 73.7884 34.3185C72.4707 39.5321 70.9811 44.8602 69.7781 48.5842C69.2092 50.5507 68.0946 52.3157 66.5635 53.6745C65.0323 55.0334 63.1474 55.9302 61.1272 56.2612C57.83 56.7676 54.4922 56.9594 51.1587 56.8341C53.7368 54.4279 56.3721 51.2195 56.8877 50.8186H57.5179C58.963 50.8289 60.3919 50.5157 61.7002 49.9019C63.0776 49.0652 64.0822 47.7325 64.5073 46.1779C65.4813 42.2248 66.7989 37.355 68.0021 32.657C69.2051 27.9592 70.2937 23.605 71.2103 19.881L71.8405 17.3029L72.127 17.1883Z" fill="white"/>
<path d="M191.865 18.3346C189.015 18.1642 186.156 18.2794 183.329 18.6784C181.238 19.0451 179.292 19.9911 177.712 21.4091C176.132 22.8271 174.981 24.6599 174.391 26.6992C173.131 30.5377 170.897 39.7617 170.438 41.7096L169.98 43.8867H176.282C176.282 43.8867 178.746 33.2878 179.777 29.22C179.917 28.4592 180.227 27.7398 180.683 27.115C181.139 26.4902 181.73 25.976 182.412 25.6106C183.51 25.1569 184.668 24.8673 185.85 24.7513L191.865 18.3346Z" fill="white"/>
<path d="M119.566 19.2511C118.305 18.6797 116.935 18.3888 115.55 18.3987C114.164 18.4086 112.799 18.719 111.545 19.3084C108.222 20.7823 105.454 23.2756 103.641 26.4272C101.829 29.5789 101.066 33.2256 101.462 36.8397C101.549 38.5621 102.25 40.1965 103.437 41.447C104.625 42.6975 106.221 43.4816 107.937 43.6574C109.14 43.772 110.285 43.772 111.661 43.772H112.233C112.354 43.4749 112.449 43.1683 112.519 42.8553L113.837 37.2408L114.009 36.3813L112.634 36.7251C112.058 36.8656 111.459 36.8821 110.876 36.7734C110.293 36.6648 109.741 36.4335 109.254 36.0949C108.867 35.8191 108.548 35.4594 108.32 35.0427C108.091 34.6261 107.961 34.1632 107.937 33.6886C107.738 32.283 107.938 30.8498 108.516 29.5529C109.094 28.2561 110.024 27.1479 111.202 26.3553C111.93 25.8296 112.799 25.5324 113.697 25.5018C114.594 25.4712 115.481 25.7085 116.243 26.1834C118.421 27.5012 117.675 30.3084 117.218 32.371C116.759 34.4334 116.472 35.4647 116.129 37.0116C115.785 38.5584 115.04 41.0793 114.41 43.1418C113.78 45.2042 113.149 47.3241 112.748 49.1574L111.26 55.3449L118.305 51.1626L118.478 50.4178C119.051 47.8969 119.853 45.147 120.597 42.5115C121.343 39.8762 122.374 36.1522 123.061 33.2303C123.589 31.011 123.916 28.7482 124.035 26.4699C124.106 24.9562 123.717 23.4564 122.919 22.168C122.122 20.8794 120.953 19.8626 119.566 19.2511Z" fill="white"/>
<path d="M99.6268 26.0678C99.5186 23.9517 98.5949 21.9598 97.0493 20.5105L96.7627 20.2813C95.2898 19.0384 93.4194 18.3672 91.4922 18.3907C89.9945 18.4073 88.515 18.7188 87.138 19.3073C83.9779 20.6888 81.3083 22.9919 79.4787 25.9154C77.6489 28.8389 76.7442 32.2467 76.883 35.6928C76.8834 36.8621 77.1224 38.0191 77.5854 39.0929C78.0484 40.1666 78.7256 41.1347 79.5757 41.9376C81.1389 43.2184 83.1129 43.89 85.1328 43.8282H87.8254L89.6014 36.3803L88.2838 36.724C87.6894 36.8669 87.0719 36.8846 86.4702 36.7761C85.8686 36.6676 85.2961 36.4353 84.7891 36.0938C84.4023 35.792 84.0846 35.4109 83.8573 34.9761C83.63 34.5413 83.4984 34.0628 83.4714 33.573C83.3035 32.2764 83.4798 30.9585 83.9826 29.7517C84.4854 28.5449 85.297 27.4917 86.336 26.6979C87.1507 26.0783 88.1237 25.7011 89.1436 25.6095C89.66 25.5067 90.1932 25.5148 90.7061 25.6334C91.2198 25.7519 91.7025 25.9781 92.1222 26.297C92.5002 26.6819 92.7956 27.1391 92.9926 27.6412C93.1896 28.1432 93.2837 28.6797 93.2677 29.2188C93.2588 29.7362 93.2198 30.2526 93.1532 30.7657L92.982 31.7397C92.5233 33.5157 92.1222 35.349 91.6644 37.1251L91.148 39.3021L90.2891 43.2553C90.2891 43.4272 90.2314 43.5991 90.2314 43.7709H96.1895L98.7103 32.8282C98.7679 32.7136 98.768 32.5417 98.8256 32.4272C99.3154 30.6334 99.5851 28.7863 99.6268 26.9271V26.0678Z" fill="white"/>
<path d="M170.611 26.0676C170.584 25.02 170.346 23.9884 169.913 23.034C169.48 22.0795 168.861 21.2214 168.091 20.5103L167.747 20.2811C166.295 19.0421 164.443 18.3706 162.534 18.3906C161.037 18.4072 159.557 18.7186 158.18 19.3072C155.019 20.6886 152.35 22.9917 150.521 25.9153C148.69 28.8388 147.786 32.2465 147.924 35.6927C147.915 36.8583 148.143 38.0138 148.596 39.0878C149.05 40.1618 149.718 41.1317 150.56 41.9374C152.128 43.2092 154.099 43.8796 156.118 43.8281H158.81C158.867 43.8281 160.586 36.3801 160.586 36.3801L159.268 36.7239C158.683 36.8619 158.075 36.8773 157.483 36.7688C156.892 36.6603 156.329 36.4304 155.831 36.0937C155.436 35.7949 155.11 35.4155 154.873 34.981C154.636 34.5464 154.493 34.0664 154.456 33.5728C154.312 32.2725 154.505 30.9568 155.017 29.7527C155.528 28.5486 156.341 27.4965 157.378 26.6979C158.178 26.0907 159.129 25.7142 160.127 25.6093C160.645 25.4989 161.179 25.5032 161.693 25.622C162.208 25.7408 162.691 25.9712 163.107 26.2968C163.503 26.6705 163.816 27.1244 164.022 27.6282C164.23 28.132 164.328 28.6742 164.31 29.2187C164.3 29.736 164.262 30.2524 164.195 30.7655C164.14 31.0947 164.063 31.4201 163.966 31.7395C163.565 33.5156 163.164 35.3489 162.706 37.1249L162.19 39.302L161.33 43.2552C161.274 43.427 161.274 43.5989 161.216 43.7708H167.232L169.753 32.8281L169.867 32.427C170.33 30.6276 170.599 28.7837 170.669 26.927C170.678 26.6394 170.659 26.3515 170.611 26.0676Z" fill="white"/>
<path d="M147.519 18.6206C146.03 18.6206 144.597 18.6778 143.165 18.6206C142.707 18.6206 142.707 18.6206 142.707 18.6778C142.707 18.7352 142.707 18.6778 142.592 19.1362C141.503 23.7768 140.358 28.8185 139.327 32.8862C139.182 33.7893 138.805 34.6391 138.233 35.3523C137.66 36.0655 136.912 36.6175 136.061 36.9539C135.511 37.2111 134.9 37.3148 134.295 37.2544C133.69 37.1938 133.113 36.9713 132.624 36.6102C132.182 36.2172 131.856 35.7096 131.685 35.1434C131.513 34.5771 131.5 33.9744 131.65 33.4018C132.108 30.9956 134.973 18.6778 134.973 18.6778H128.957L126.264 30.3653C125.616 32.5 125.307 34.7232 125.348 36.9539C125.411 38.8439 126.214 40.6336 127.582 41.9383C128.813 43.0576 130.356 43.773 132.005 43.9882C133.655 44.2033 135.33 43.9078 136.806 43.1414C138.272 42.5021 139.626 41.6316 140.817 40.5633L141.16 40.2196L141.389 40.0477C142.919 38.3962 144.09 36.4454 144.826 34.3184C144.948 34.0216 145.044 33.715 145.113 33.4018C145.915 30.8809 146.545 28.2456 147.118 25.6674C147.405 24.5789 148.493 19.9383 148.722 19.0216V18.6778L147.519 18.6206Z" fill="white"/>
<path d="M36.4965 7.5625C39.2513 5.18945 41.8715 2.6647 44.3453 0C43.7151 2.17708 42.9703 4.86979 42.0537 8.65104C41.4234 11.4011 40.7933 14.0938 40.1058 16.8437C37.2413 28.875 34.7205 41.3645 30.0227 52.4792C22.4604 70.4114 0.289062 70.9844 0.289062 70.9844C14.4971 65.3698 23.4343 54.8282 26.4708 44.5156C30.08 32.3698 33.231 19.9948 36.4965 7.73438V7.5625Z" fill="white"/>
<path d="M32.1971 10.7134C31.6243 12.4894 31.0513 15.2968 30.192 18.3905L28.5878 24.4061C26.0098 34.203 23.6609 44.3436 19.937 53.3384C18.1546 57.5896 15.4363 61.384 11.9845 64.4391C8.53264 67.4943 4.43616 69.7316 0 70.9843C9.91121 65.5988 15.0101 55.6874 17.5882 47.3228C20.6245 37.4686 23.2025 26.5832 26.067 16.6144V16.4998C28.206 14.6748 30.2519 12.7436 32.1971 10.7134Z" fill="white"/>
</svg>
