<svg width="172" height="44" viewBox="0 0 172 44" fill="none" xmlns="http://www.w3.org/2000/svg">
<path d="M2.13379 30.4942H22.3772V26.7722H6.36001V0.545898H2.13396V30.4942H2.13379ZM59.3832 30.8366C67.2016 30.8366 71.8926 26.2587 71.8926 17.5737V0.545898H67.7933V17.4025C67.7933 24.0339 64.7505 27.0286 59.4255 27.0286C54.1005 27.0286 51.1 24.0339 51.1 17.4025V0.545898H46.8738V17.5737C46.8738 26.2587 51.6071 30.8366 59.3834 30.8366H59.3832ZM123.986 30.4942L112.787 15.0066L123.226 0.545898H118.619L110.42 12.0546L102.137 0.545898H97.319L107.758 15.1351L96.6429 30.4942H101.503L110.251 18.1298L119.126 30.4942H123.986ZM152.624 26.7722V17.103H167.458V13.4664H152.624V4.26798H169.275V0.545898H148.398V30.4942H169.867V26.7722H152.624H152.624Z" fill="white"/>
<path d="M19.7392 43.3957H20.4552V37.1657H22.8355V36.5388H17.3589V37.1657H19.7392V43.3957ZM32.1081 43.3957L30.4534 41.0446C31.4404 40.7213 32.0016 39.9672 32.0016 38.8897C32.0016 37.4203 30.9565 36.5387 29.2341 36.5387H26.699V43.3957H27.415V41.221H29.2341C29.4276 41.221 29.6019 41.2113 29.7759 41.1916L31.3241 43.3957H32.1079H32.1081ZM29.215 40.6039H27.4152V37.1657H29.215C30.5697 37.1657 31.2857 37.7925 31.2857 38.8897C31.2857 39.9672 30.5697 40.6039 29.215 40.6039ZM41.4774 43.3957H42.2322L39.1357 36.5387H38.4293L35.3329 43.3957H36.0778L36.8907 41.5639H40.6646L41.4774 43.3957ZM37.1522 40.9762L38.7777 37.293L40.4035 40.9762H37.1522ZM51.0305 36.5388V42.1028L46.6665 36.5388H46.0764V43.3958H46.7924V37.8319L51.1466 43.3958H51.7369V36.5388H51.0305ZM58.5323 43.4545C60.2643 43.4545 61.0578 42.5926 61.0578 41.5836C61.0578 39.0857 56.8873 40.2219 56.8873 38.3412C56.8873 37.6555 57.4389 37.0971 58.6773 37.0971C59.2772 37.0971 59.9546 37.2832 60.5351 37.6652L60.7771 37.0873C60.2353 36.7053 59.4418 36.48 58.6773 36.48C56.9549 36.48 56.1809 37.3518 56.1809 38.3609C56.1809 40.8979 60.3514 39.742 60.3514 41.6227C60.3514 42.2985 59.7998 42.8374 58.5323 42.8374C57.642 42.8374 56.7808 42.4848 56.2971 42.0048L56.0166 42.5632C56.5197 43.0922 57.5165 43.4545 58.5325 43.4545H58.5323ZM69.982 37.1657V36.5388H65.3375V43.3958H66.0535V40.4866H69.5563V39.8597H66.0535V37.166H69.982V37.1657ZM77.0581 43.4545C79.0901 43.4545 80.6092 41.9755 80.6092 39.9673C80.6092 37.9592 79.0901 36.48 77.0581 36.48C75.0068 36.48 73.4972 37.9689 73.4972 39.9673C73.4972 41.9656 75.0068 43.4545 77.0581 43.4545ZM77.0581 42.808C75.4229 42.808 74.2036 41.6032 74.2036 39.9673C74.2036 38.3314 75.4229 37.1265 77.0581 37.1265C78.6837 37.1265 79.8932 38.3314 79.8932 39.9673C79.8932 41.6032 78.6837 42.808 77.0581 42.808ZM90.3461 43.3958L88.6915 41.0448C89.6784 40.7215 90.2397 39.9673 90.2397 38.8899C90.2397 37.4204 89.1946 36.5388 87.4722 36.5388H84.9371V43.3958H85.6531V41.2212H87.4722C87.6657 41.2212 87.8399 41.2115 88.014 41.1918L89.5622 43.3958H90.346H90.3461ZM87.4531 40.6041H85.6533V37.1659H87.4531C88.8078 37.1659 89.5238 37.7927 89.5238 38.8899C89.5238 39.9673 88.8078 40.6041 87.4531 40.6041ZM101.099 36.539L98.1868 41.6229L95.2452 36.539H94.6551V43.396H95.3421V37.9398L98.0031 42.5242H98.3417L101.003 37.9104V43.396H101.69V36.539H101.099H101.099ZM111.678 43.396H112.433L109.336 36.539H108.63L105.534 43.396H106.279L107.091 41.5642H110.865L111.678 43.396H111.678ZM107.353 40.9766L108.978 37.2933L110.604 40.9766H107.353ZM117.254 43.396H117.97V37.166H120.351V36.5392H114.874V37.166H117.254V43.396ZM124.214 43.396H124.93V36.539H124.214V43.396ZM132.819 43.4547C134.851 43.4547 136.37 41.9757 136.37 39.9675C136.37 37.9593 134.851 36.4802 132.819 36.4802C130.768 36.4802 129.258 37.9691 129.258 39.9675C129.258 41.9658 130.768 43.4547 132.819 43.4547ZM132.819 42.8082C131.184 42.8082 129.964 41.6034 129.964 39.9675C129.964 38.3316 131.184 37.1267 132.819 37.1267C134.445 37.1267 135.654 38.3316 135.654 39.9675C135.654 41.6034 134.445 42.8082 132.819 42.8082ZM145.652 36.539V42.103L141.288 36.539H140.698V43.396H141.414V37.8321L145.769 43.396H146.359V36.539H145.652H145.652ZM153.154 43.4547C154.886 43.4547 155.68 42.5928 155.68 41.5837C155.68 39.0859 151.509 40.2221 151.509 38.3414C151.509 37.6557 152.061 37.0973 153.299 37.0973C153.899 37.0973 154.576 37.2834 155.157 37.6654L155.399 37.0875C154.857 36.7055 154.064 36.4802 153.299 36.4802C151.577 36.4802 150.803 37.352 150.803 38.361C150.803 40.898 154.973 39.7422 154.973 41.6229C154.973 42.2987 154.422 42.8376 153.154 42.8376C152.264 42.8376 151.403 42.485 150.919 42.0049L150.638 42.5634C151.141 43.0923 152.138 43.4547 153.154 43.4547H153.154Z" fill="white"/>
<path d="M161.683 39.501H169.673V40.1997H161.683V39.501Z" fill="white"/>
<path d="M3.3877 39.7324H11.3776V40.4312H3.3877V39.7324Z" fill="white"/>
</svg>
