<svg width="158" height="158" viewBox="0 0 158 158" fill="none" xmlns="http://www.w3.org/2000/svg">
<path d="M19.4106 110.168C19.8335 109.729 20.3105 109.345 20.8302 109.026C21.2514 108.751 21.7467 108.611 22.2497 108.625C23.1755 108.625 23.8853 108.903 24.379 109.489C24.8728 110.075 25.1196 110.909 25.1196 111.989V117.389H23.4224V112.112C23.4587 111.568 23.294 111.03 22.9595 110.6C22.7943 110.424 22.5929 110.286 22.3691 110.195C22.1453 110.105 21.9045 110.064 21.6634 110.075C21.3163 110.085 20.977 110.18 20.6759 110.353C20.3093 110.558 19.9847 110.83 19.7192 111.155V117.389H18.022V112.236C18.022 111.464 17.8985 110.909 17.6208 110.569C17.4631 110.392 17.2673 110.253 17.0482 110.162C16.8292 110.071 16.5924 110.031 16.3556 110.045C15.9639 110.043 15.5795 110.15 15.2446 110.353C14.8874 110.559 14.5731 110.831 14.3188 111.155V117.389H12.6216V108.779H14.3188V109.921C14.6747 109.515 15.104 109.18 15.5841 108.934C15.9833 108.723 16.4291 108.617 16.8802 108.625C17.3877 108.619 17.8878 108.747 18.3306 108.995C18.8149 109.25 19.1964 109.664 19.4106 110.168Z" fill="white"/>
<path d="M29.0694 106.866C28.9817 106.967 28.8724 107.048 28.7496 107.101C28.6268 107.154 28.4935 107.18 28.3596 107.175C28.2255 107.182 28.0915 107.158 27.9683 107.104C27.8451 107.051 27.736 106.969 27.6499 106.866C27.4689 106.674 27.3693 106.42 27.3721 106.156C27.3772 105.903 27.4762 105.661 27.6499 105.477C27.736 105.374 27.8451 105.293 27.9683 105.239C28.0915 105.186 28.2255 105.161 28.3596 105.169C28.4935 105.164 28.6268 105.189 28.7496 105.242C28.8724 105.296 28.9817 105.376 29.0694 105.477C29.1683 105.56 29.2473 105.664 29.3007 105.782C29.3541 105.899 29.3805 106.027 29.378 106.156C29.3829 106.29 29.3578 106.423 29.3044 106.546C29.251 106.669 29.1707 106.778 29.0694 106.866ZM29.2237 108.779V117.389H27.5264V108.779H29.2237Z" fill="white"/>
<path d="M38.9755 104.335V117.389H35.5809C34.1614 117.389 33.0813 116.988 32.3098 116.155C31.5466 115.336 31.1364 114.249 31.1681 113.13C31.1244 111.924 31.5567 110.749 32.3716 109.859C32.7609 109.453 33.2313 109.133 33.7524 108.92C34.2734 108.708 34.8333 108.607 35.3958 108.625C35.7375 108.622 36.0785 108.653 36.4141 108.717L37.2782 108.964V104.335H38.9755ZM35.9204 115.908H37.2782V110.507C37.0195 110.383 36.7512 110.28 36.4759 110.199C36.1715 110.134 35.8611 110.103 35.5501 110.106C35.1934 110.103 34.8397 110.172 34.5107 110.31C34.1818 110.448 33.8844 110.652 33.6368 110.908C33.0946 111.529 32.8176 112.338 32.8653 113.161C32.8445 113.538 32.9054 113.916 33.0439 114.267C33.1823 114.619 33.3951 114.936 33.6677 115.198C34.1923 115.661 34.9329 115.908 35.9204 115.908Z" fill="white"/>
<path d="M43.1724 104.335V117.389H41.4751V104.335H43.1724Z" fill="white"/>
<path d="M51.1338 111.402V115.723C51.1338 116 51.2573 116.124 51.4733 116.124C51.8087 116.055 52.1184 115.895 52.3682 115.661V116.895C51.8526 117.295 51.2293 117.531 50.5784 117.574C50.3136 117.593 50.0509 117.516 49.8377 117.358C49.7234 117.28 49.6261 117.18 49.5518 117.063C49.4775 116.947 49.4278 116.816 49.4057 116.679C48.7601 117.235 47.9427 117.551 47.0913 117.574C46.8157 117.575 46.5427 117.521 46.2883 117.415C46.0339 117.309 45.8033 117.153 45.61 116.957C45.4084 116.761 45.2494 116.526 45.1432 116.266C45.037 116.005 44.9858 115.726 44.9928 115.445C44.9863 115.101 45.0645 114.76 45.2206 114.454C45.3767 114.147 45.6058 113.883 45.8877 113.686C46.5049 113.285 47.6776 112.791 49.4366 112.205V111.711C49.458 111.503 49.4331 111.293 49.3638 111.095C49.2944 110.898 49.1823 110.718 49.0354 110.569C48.7071 110.324 48.3024 110.204 47.8936 110.23C47.401 110.236 46.916 110.352 46.4741 110.569C45.9689 110.844 45.519 111.21 45.1471 111.649V109.798C45.826 108.995 46.7827 108.625 48.017 108.625C49.2514 108.625 49.776 108.872 50.3315 109.396C50.5984 109.656 50.8078 109.969 50.946 110.314C51.0842 110.66 51.1482 111.03 51.1338 111.402ZM48.7268 116.155C48.9842 116.022 49.2229 115.856 49.4366 115.661V113.13C48.6947 113.347 47.9879 113.669 47.3381 114.087C47.1529 114.201 46.9993 114.36 46.8915 114.548C46.7836 114.737 46.725 114.95 46.7209 115.167C46.7209 115.325 46.7521 115.482 46.8126 115.628C46.873 115.774 46.9617 115.906 47.0735 116.018C47.1852 116.13 47.3179 116.219 47.4639 116.279C47.6099 116.34 47.7664 116.371 47.9245 116.371C48.207 116.377 48.4854 116.302 48.7268 116.155Z" fill="white"/>
<path d="M61.0088 112.205V117.389H59.3115V112.236C59.3115 111.474 59.1572 110.919 58.8486 110.569C58.6876 110.388 58.4869 110.246 58.262 110.155C58.0372 110.064 57.7944 110.026 57.5525 110.045C57.1504 110.038 56.7546 110.145 56.4107 110.353C56.0348 110.584 55.7094 110.888 55.4541 111.248V117.389H53.7568V108.779H55.4541V109.89C55.7777 109.499 56.1828 109.183 56.6412 108.964C57.0996 108.746 57.6002 108.63 58.108 108.625C58.5102 108.606 58.9114 108.679 59.2807 108.84C59.6499 109 59.9772 109.244 60.2373 109.551C60.7619 110.168 61.0088 111.063 61.0088 112.205Z" fill="white"/>
<path d="M70.6679 104.335V117.389H67.2733C65.8538 117.389 64.7737 116.988 64.0022 116.155C63.239 115.336 62.8288 114.249 62.8604 113.13C62.8168 111.924 63.249 110.749 64.064 109.859C64.4533 109.453 64.9237 109.133 65.4447 108.92C65.9658 108.708 66.5257 108.607 67.0882 108.625C67.4298 108.622 67.7709 108.653 68.1065 108.717L68.9706 108.964V104.335H70.6679ZM67.6128 115.908H68.9706V110.507C68.7119 110.383 68.4436 110.28 68.1682 110.199C67.8639 110.134 67.5535 110.103 67.2425 110.106C66.8858 110.103 66.5321 110.172 66.2031 110.31C65.8742 110.448 65.5768 110.652 65.3292 110.908C64.787 111.529 64.51 112.338 64.5577 113.161C64.5369 113.538 64.5978 113.916 64.7363 114.267C64.8747 114.619 65.0875 114.936 65.36 115.198C65.8847 115.661 66.6253 115.908 67.6128 115.908Z" fill="white"/>
<path d="M80.3886 112.204V117.389H78.6913V112.235C78.6913 111.474 78.537 110.919 78.2284 110.569C78.0706 110.384 77.8703 110.239 77.6446 110.148C77.419 110.056 77.1746 110.021 76.9323 110.044C76.5306 110.041 76.1356 110.147 75.7905 110.353C75.4175 110.576 75.1007 110.883 74.8647 111.248V117.389H73.1675V108.779H74.8647V109.89C75.2075 109.458 75.6531 109.118 76.1608 108.903C76.5829 108.731 77.0324 108.637 77.4878 108.625C77.8905 108.6 78.2933 108.672 78.6634 108.833C79.0334 108.993 79.3602 109.239 79.6171 109.551C80.1417 110.168 80.3886 111.063 80.3886 112.204Z" fill="white"/>
<path d="M90.0166 113.069V113.223H83.9682C83.9926 113.962 84.2894 114.665 84.8014 115.198C85.0578 115.448 85.3626 115.642 85.6969 115.769C86.0312 115.897 86.3881 115.954 86.7455 115.939C87.3025 115.939 87.8555 115.845 88.3811 115.661C88.9103 115.479 89.4096 115.219 89.8623 114.889V116.556C89.3561 116.889 88.8055 117.148 88.2268 117.327C87.6654 117.492 87.0835 117.575 86.4987 117.574C85.927 117.585 85.3595 117.475 84.8332 117.251C84.3068 117.028 83.8333 116.696 83.4436 116.278C83.0381 115.845 82.7229 115.335 82.5163 114.779C82.3097 114.223 82.2158 113.631 82.2401 113.038C82.2401 111.711 82.6104 110.662 83.351 109.859C83.7139 109.453 84.1621 109.131 84.6635 108.918C85.1649 108.705 85.7072 108.605 86.2518 108.625C86.774 108.603 87.2941 108.703 87.7709 108.918C88.2476 109.132 88.6679 109.454 88.9983 109.859C89.6772 110.662 90.0166 111.742 90.0166 113.069ZM88.3194 112.236C88.3309 111.656 88.1213 111.093 87.733 110.662C87.54 110.469 87.308 110.32 87.0525 110.224C86.797 110.128 86.524 110.088 86.2518 110.106C85.9685 110.096 85.6861 110.143 85.4212 110.244C85.1562 110.344 84.914 110.497 84.7088 110.693C84.2878 111.1 84.0346 111.651 83.9991 112.236H88.3194Z" fill="white"/>
<path d="M93.8742 107.021H93.9359V108.779H96.6516V110.322H93.9359V114.334C93.9359 114.982 94.0285 115.414 94.2445 115.661C94.3561 115.785 94.4954 115.88 94.651 115.939C94.8066 115.998 94.974 116.019 95.1394 116.001C95.4955 116.01 95.8505 115.958 96.1887 115.846C96.4984 115.727 96.7977 115.583 97.0836 115.414V116.988C96.7444 117.179 96.3811 117.325 96.0035 117.42C95.6401 117.513 95.2675 117.565 94.8926 117.574C94.5297 117.598 94.1658 117.545 93.8253 117.417C93.4848 117.289 93.1753 117.09 92.9176 116.834C92.4547 116.34 92.2078 115.507 92.2078 114.334V110.322H90.7266V110.137L93.8742 107.021Z" fill="white"/>
<path d="M99.6142 108.779L101.867 113.995L104.058 108.779H105.323L107.483 113.995L109.736 108.779H111.557L107.761 117.574H107.236L104.675 111.557L102.175 117.574H101.62L97.7935 108.779H99.6142Z" fill="white"/>
<path d="M119.765 116.371C118.873 117.162 117.718 117.591 116.525 117.574C115.913 117.596 115.302 117.489 114.734 117.261C114.165 117.032 113.65 116.687 113.223 116.247C112.82 115.841 112.5 115.36 112.283 114.83C112.066 114.301 111.956 113.733 111.958 113.161C111.936 112.551 112.041 111.944 112.267 111.377C112.492 110.81 112.834 110.297 113.27 109.87C113.706 109.443 114.226 109.112 114.797 108.897C115.368 108.683 115.978 108.59 116.587 108.625C117.187 108.604 117.785 108.702 118.346 108.914C118.908 109.126 119.422 109.447 119.858 109.859C120.286 110.281 120.622 110.786 120.845 111.344C121.068 111.901 121.173 112.499 121.154 113.099C121.154 114.488 120.691 115.599 119.765 116.371ZM114.519 115.229C114.79 115.497 115.114 115.707 115.47 115.845C115.825 115.983 116.206 116.047 116.587 116.031C116.966 116.044 117.344 115.976 117.695 115.833C118.046 115.689 118.362 115.473 118.624 115.198C118.894 114.915 119.104 114.581 119.242 114.215C119.38 113.849 119.443 113.459 119.426 113.069C119.446 112.675 119.382 112.281 119.239 111.914C119.095 111.547 118.875 111.215 118.593 110.939C118.026 110.407 117.272 110.118 116.494 110.137C116.119 110.12 115.745 110.186 115.399 110.33C115.052 110.474 114.741 110.693 114.489 110.97C114.225 111.256 114.021 111.592 113.889 111.957C113.756 112.323 113.698 112.711 113.717 113.099C113.693 113.491 113.752 113.883 113.89 114.25C114.028 114.617 114.243 114.951 114.519 115.229Z" fill="white"/>
<path d="M129.27 109.582L128.375 111.094C128.112 110.868 127.834 110.662 127.542 110.477C127.285 110.34 126.999 110.266 126.709 110.261C126.436 110.27 126.169 110.342 125.928 110.47C125.688 110.598 125.48 110.78 125.32 111.001C124.89 111.51 124.66 112.157 124.672 112.822V117.389H122.975V108.779H124.672V110.754C125.026 110.125 125.485 109.561 126.03 109.088C126.376 108.797 126.812 108.633 127.264 108.625C127.627 108.636 127.984 108.72 128.313 108.872C128.659 109.07 128.98 109.309 129.27 109.582Z" fill="white"/>
<path d="M132.202 104.335V117.389H130.474V104.335H132.202ZM138.127 108.779L134.424 112.976L138.867 117.389H136.615L132.294 113.007L136.09 108.779H138.127Z" fill="white"/>
<path d="M144.946 109.335V111.032C144.537 110.765 144.103 110.537 143.65 110.353C143.277 110.201 142.88 110.117 142.478 110.106C142.173 110.077 141.868 110.153 141.613 110.322C141.543 110.372 141.485 110.436 141.442 110.511C141.399 110.586 141.374 110.669 141.367 110.754C141.36 110.877 141.382 110.998 141.43 111.111C141.479 111.223 141.552 111.323 141.644 111.403C142.083 111.762 142.558 112.072 143.064 112.328L143.866 112.822C144.305 113.078 144.684 113.425 144.977 113.84C145.23 114.215 145.369 114.654 145.378 115.106C145.383 115.432 145.316 115.756 145.183 116.055C145.05 116.353 144.853 116.619 144.607 116.834C144 117.355 143.215 117.621 142.416 117.574C142.01 117.569 141.606 117.517 141.212 117.42C140.632 117.275 140.072 117.057 139.546 116.772V114.951C139.971 115.279 140.438 115.549 140.935 115.754C141.361 115.948 141.823 116.053 142.292 116.062C142.786 116.062 143.126 116.001 143.311 115.815C143.406 115.757 143.484 115.675 143.538 115.578C143.592 115.481 143.62 115.371 143.619 115.26C143.619 114.828 143.218 114.396 142.416 113.964C141.701 113.584 141.028 113.129 140.41 112.606C140.154 112.391 139.949 112.121 139.81 111.817C139.672 111.513 139.602 111.181 139.608 110.847C139.602 110.542 139.668 110.24 139.803 109.967C139.937 109.693 140.134 109.455 140.379 109.273C140.933 108.818 141.638 108.587 142.354 108.625C143.266 108.628 144.16 108.873 144.946 109.335Z" fill="white"/>
<path d="M76.161 45.1162C87.5173 43.2647 94.9853 51.9053 94.9853 51.9053L97.6392 48.5416C75.6056 29.3779 58.9106 50.1772 58.9106 50.1772C50.7946 39.8393 36.7536 40.8576 36.7536 40.8576C23.9161 40.8576 13.3931 52.1213 12.6216 64.0947V93.3494C14.1083 93.3449 15.5822 93.0731 16.9728 92.5471V63.169C16.9728 58.7252 22.7435 45.1162 37.8337 45.1162C52.9239 45.1162 58.9106 57.3057 58.9106 57.3057C58.9106 57.3057 64.8048 46.9678 76.161 45.1162Z" fill="white"/>
<path d="M38.8829 49.0975C28.9771 49.0049 20.9536 57.2135 20.9536 67.1193V89.8935L21.7251 89.1838C22.7739 88.2279 23.614 87.0657 24.1928 85.77C24.7716 84.4743 25.0766 83.0731 25.0888 81.6541L25.2122 67.7365C25.2122 60.1143 31.0446 53.2943 38.636 53.2943C40.4428 53.294 42.2319 53.6509 43.9002 54.3447C45.5684 55.0385 47.083 56.0554 48.3567 57.3369C50.8563 59.8057 52.8005 63.9408 52.8005 67.7365V93.3498C54.2166 93.2444 55.6098 92.9325 56.9356 92.424V67.3353C56.9359 62.5303 55.0398 57.9192 51.6595 54.5042C48.2792 51.0892 43.6877 49.1462 38.8829 49.0975Z" fill="white"/>
<path d="M92.0536 54.1583C89.503 51.6065 86.2527 49.8685 82.7141 49.1643C79.1755 48.46 75.5075 48.8212 72.1742 50.2021C68.8409 51.583 65.9921 53.9215 63.9882 56.9219C61.9843 59.9222 60.9153 63.4495 60.9165 67.0575V90.1404C63.5396 87.5173 64.8974 85.0794 65.1751 81.5614V67.4587C65.1751 63.663 66.6563 56.1025 75.729 53.6954C82.6415 51.8439 89.9243 56.4111 91.1587 60.7931C91.3105 60.0112 91.5063 59.2385 91.745 58.4786C91.961 57.8614 92.1771 57.2443 92.3931 56.6888C92.6091 56.1333 92.7634 55.7013 92.9794 55.2075C92.7017 54.8372 92.3622 54.4978 92.0536 54.1583Z" fill="white"/>
<path d="M145.348 64.712C145.286 61.194 142.694 53.1397 137.664 48.3257C135.087 45.824 132.031 43.8699 128.679 42.5811C125.327 41.2924 121.749 40.6956 118.161 40.8269C108.193 41.1046 102.237 45.9186 98.9969 49.8995C97.16 52.1887 95.711 54.7636 94.7074 57.5218C93.6273 60.3917 92.7324 63.4159 92.7324 66.3476V93.3495C94.4605 93.4421 95.9418 93.1335 97.0527 92.3312V66.3476C97.0494 65.6359 97.0907 64.9248 97.1762 64.2183C98.102 56.164 104.12 45.2397 118.253 44.8694C126.307 44.6534 131.554 48.3257 134.732 51.3499C138.713 55.1765 141.027 62.5519 141.058 65.2366C141.12 70.7296 141.089 88.3503 141.089 92.578C142.451 93.0914 143.892 93.3629 145.348 93.3804C145.348 92.9175 145.409 70.7913 145.348 64.712Z" fill="white"/>
<path d="M131.924 54.3431C128.467 50.9794 123.808 49.313 118.438 49.4673C113.069 49.6216 108.964 51.5349 105.848 54.9603C102.731 58.3857 100.571 64.2798 100.91 70.3591V90.3869L102.546 88.7513C104.33 86.4599 105.287 83.6322 105.261 80.7279L105.2 66.4091C105.415 63.1872 106.671 60.1224 108.779 57.6759C111.094 54.8986 114.488 53.6025 118.562 53.4791C122.635 53.3556 126.462 54.6208 129.116 57.213C131.769 59.8052 132.788 63.3232 132.788 67.1189V81.3759C132.797 83.8827 133.706 86.3028 135.349 88.1958L137.201 90.2943C137.201 85.4802 137.232 71.2232 137.201 67.1189C137.217 64.7451 136.759 62.3921 135.853 60.1981C134.946 58.004 133.611 56.0134 131.924 54.3431Z" fill="white"/>
</svg>
