<svg width="157" height="46" viewBox="0 0 157 46" fill="none" xmlns="http://www.w3.org/2000/svg">
<path d="M1.38428 1.77637H10.4988L28.0009 28.4593H28.2437V1.77637H37.2375V43.8441H28.1214L10.5597 17.161H10.3781V43.8441H1.38432V1.77637H1.38428Z" fill="white"/>
<path d="M45.1978 8.99426C45.1978 4.49386 48.3749 1.30908 52.7748 1.30908C57.1746 1.30908 60.3517 4.49386 60.3517 8.99426C60.3517 13.493 57.1746 16.6776 52.7748 16.6776C48.3749 16.6776 45.1978 13.493 45.1978 8.99426ZM52.7748 13.7704C55.3082 13.7704 57.0685 11.8803 57.0685 8.99426C57.0685 6.10661 55.3082 4.21814 52.7748 4.21814C50.2431 4.21814 48.4829 6.10661 48.4829 8.99426C48.4829 11.8803 50.2431 13.7704 52.7748 13.7704Z" fill="white"/>
<path d="M66.9022 1.56299H63.7251V16.4231H66.9022V1.56299Z" fill="white"/>
<path d="M71.0664 1.56299H76.0237C79.9955 1.56299 82.2917 3.58131 82.2917 6.74283C82.2917 9.01525 81.1122 10.692 79.0084 11.455L82.4211 16.4231H78.7082L75.7233 11.9225H74.2435V16.4231H71.0664V1.56299ZM76.1746 9.0348C77.9997 9.0348 79.0301 8.20805 79.0301 6.74283C79.0301 5.299 77.9997 4.47205 76.1746 4.47205H74.2435V9.0348H76.1746Z" fill="white"/>
<path d="M90.2422 31.1036H99.0546C99.4195 34.5906 101.849 36.5731 105.252 36.5731C109.203 36.5731 111.693 33.8686 111.693 29.6614C111.693 25.5149 109.264 23.0521 105.495 23.0521C102.944 23.0521 100.633 24.1332 99.2974 26.1762H90.7888L93.7071 1.77637H117.709V9.76917H101.241L100.209 17.9434C102.214 16.6809 104.583 16.0799 107.198 16.0799C114.854 16.0799 120.567 21.4286 120.567 29.962C120.567 38.7371 114.369 44.5661 105.071 44.5661C96.3807 44.5661 90.4256 39.5177 90.2422 31.1035" fill="white"/>
<path d="M125.443 31.1036H134.256C134.621 34.5906 137.05 36.5731 140.454 36.5731C144.404 36.5731 146.894 33.8686 146.894 29.6614C146.894 25.5149 144.465 23.0521 140.696 23.0521C138.145 23.0521 135.834 24.1332 134.499 26.1762H125.99L128.908 1.77637H152.911V9.76917H136.442L135.41 17.9434C137.415 16.6809 139.785 16.0799 142.399 16.0799C150.055 16.0799 155.768 21.4286 155.768 29.962C155.768 38.7371 149.57 44.5661 140.272 44.5661C131.582 44.5661 125.627 39.5177 125.443 31.1035" fill="white"/>
<path d="M50.3457 35.5548V30.1025H54.1235V30.9447H51.312V32.3501H54.0653V33.1925H51.312V34.7126H54.1235V35.5548H50.3457Z" fill="white"/>
<path d="M55.498 34.786L56.0432 34.0426C56.4158 34.443 57.019 34.8035 57.7884 34.8035C58.5822 34.8035 58.887 34.4191 58.887 34.0506C58.887 32.9068 55.6803 33.6183 55.6803 31.6148C55.6803 30.7072 56.4739 30.0117 57.6885 30.0117C58.5402 30.0117 59.2436 30.2907 59.7467 30.7804L59.2016 31.492C58.7645 31.058 58.1773 30.8619 57.5982 30.8619C57.0352 30.8619 56.6724 31.1409 56.6724 31.5413C56.6724 32.5623 59.879 31.9337 59.879 33.9613C59.879 34.8689 59.2274 35.6539 57.7466 35.6539C56.7304 35.6539 55.9949 35.2932 55.498 34.786Z" fill="white"/>
<path d="M61.5029 35.5548V30.1025H63.9321C65.0904 30.1025 65.7258 30.8793 65.7258 31.811C65.7258 32.7346 65.0823 33.5114 63.9321 33.5114H62.4692V35.5548H61.5029ZM64.7338 31.811C64.7338 31.2877 64.3468 30.9447 63.8 30.9447H62.4692V32.6692H63.8C64.3468 32.6692 64.7338 32.3262 64.7338 31.811Z" fill="white"/>
<path d="M70.425 35.5548L69.2103 33.5194H68.2426V35.5548H67.2764V30.1025H69.6976C70.7895 30.1025 71.509 30.7964 71.509 31.811C71.509 32.776 70.8638 33.3073 70.1943 33.4124L71.5492 35.5548H70.425ZM70.517 31.8029C70.517 31.2797 70.1202 30.9447 69.5734 30.9447H68.2426V32.6772H69.5734C70.1202 32.6772 70.517 32.3342 70.517 31.8029Z" fill="white"/>
<path d="M73.2139 35.5548V30.1025H76.9917V30.9447H74.1801V32.3501H76.9336V33.1925H74.1801V34.7126H76.9917V35.5548H73.2139Z" fill="white"/>
<path d="M47.2104 41.001C47.2104 39.3164 48.4751 38.1792 50.1042 38.1792C51.2107 38.1792 51.906 38.7438 52.3109 39.3979L51.493 39.8239C51.2286 39.3658 50.6914 39.0294 50.1042 39.0294C49.0123 39.0294 48.2025 39.8477 48.2025 41.001C48.2025 42.1368 49.0123 42.971 50.1042 42.971C50.6914 42.971 51.2286 42.6265 51.493 42.1782L52.319 42.5866C51.8979 43.2407 51.2107 43.8214 50.1042 43.8214C48.4751 43.8214 47.2104 42.6759 47.2104 41.001Z" fill="white"/>
<path d="M53.5869 41.001C53.5869 39.3739 54.7531 38.1792 56.4066 38.1792C58.0501 38.1792 59.2244 39.3739 59.2244 41.001C59.2244 42.6265 58.0501 43.8214 56.4066 43.8214C54.7531 43.8214 53.5869 42.6265 53.5869 41.001ZM58.2324 41.001C58.2324 39.8716 57.5131 39.0294 56.4066 39.0294C55.2903 39.0294 54.579 39.8716 54.579 41.001C54.579 42.1208 55.2903 42.971 56.4066 42.971C57.5131 42.971 58.2324 42.1208 58.2324 41.001Z" fill="white"/>
<path d="M60.8872 43.7223V38.27H64.665V39.1122H61.8551V40.5175H64.607V41.3597H61.8551V43.7223H60.8872Z" fill="white"/>
<path d="M66.2812 43.7223V38.27H70.0591V39.1122H67.2475V40.5175H70.001V41.3597H67.2475V43.7223H66.2812Z" fill="white"/>
<path d="M71.6738 43.7223V38.27H75.4517V39.1122H72.6401V40.5175H75.3934V41.3597H72.6401V42.8799H75.4517V43.7223H71.6738Z" fill="white"/>
<path d="M77.1821 43.7223V38.27H80.96V39.1122H78.1484V40.5175H80.9019V41.3597H78.1484V42.8799H80.96V43.7223H77.1821Z" fill="white"/>
<path d="M82.9406 21.9917H45.9014V23.6314H82.9406V21.9917Z" fill="white"/>
</svg>
