<svg width="101" height="104" viewBox="0 0 101 104" fill="none" xmlns="http://www.w3.org/2000/svg">
<path d="M8.83057 78.8599H20.128V80.9351H20.0208C19.9588 80.6316 19.8261 80.3471 19.6335 80.1046C19.441 79.8621 19.1939 79.6686 18.9125 79.5397C18.1611 79.2 17.3409 79.0407 16.5171 79.0745H15.1943V89.415C15.1894 89.6422 15.2013 89.8695 15.2301 90.0949C15.2569 90.3254 15.3047 90.5529 15.3731 90.7747C15.4326 90.9705 15.5298 91.1528 15.6591 91.3114C15.7749 91.4593 15.9398 91.5608 16.1239 91.5976V91.6692H12.799V91.5976C12.996 91.5691 13.1749 91.4668 13.2995 91.3114C13.416 91.1446 13.512 90.9644 13.5855 90.7747C13.6539 90.5529 13.7017 90.3254 13.7285 90.0949C13.7285 89.8444 13.7643 89.6297 13.7643 89.415V79.0745H12.4057C11.5938 79.045 10.7861 79.2042 10.0461 79.5397C9.75964 79.6665 9.50688 79.8588 9.30818 80.1012C9.10949 80.3435 8.97039 80.6292 8.90206 80.9351H8.83057V78.8599Z" fill="white"/>
<path d="M27.8148 89.4149C27.8148 89.6296 27.8505 89.8443 27.8505 90.0947C27.8773 90.3252 27.9252 90.5528 27.9935 90.7746C28.037 90.9766 28.1361 91.1625 28.2795 91.3113C28.3954 91.4591 28.5602 91.5607 28.7443 91.5975V91.6691H25.4194V91.5975C25.6165 91.5689 25.7953 91.4666 25.92 91.3113C26.0492 91.1527 26.1464 90.9704 26.206 90.7746C26.2793 90.5555 26.3155 90.3257 26.3132 90.0947C26.342 89.8693 26.3539 89.6421 26.349 89.4149V81.1139C26.3549 80.8867 26.3429 80.6594 26.3132 80.4341C26.3155 80.2031 26.2793 79.9733 26.206 79.7542C26.1548 79.555 26.0567 79.371 25.92 79.2175C25.7896 79.0619 25.615 78.9496 25.4194 78.8955H28.7443C28.5634 78.9593 28.4029 79.0705 28.2795 79.2175C28.1309 79.3624 28.031 79.55 27.9935 79.7542C27.9252 79.976 27.8773 80.2035 27.8505 80.4341C27.8505 80.6487 27.8148 80.8992 27.8148 81.1139V89.4149Z" fill="white"/>
<path d="M43.0446 89.5938V91.6691H34.1782V91.5975C34.3752 91.5689 34.5541 91.4666 34.6787 91.3113C34.808 91.1527 34.9052 90.9704 34.9647 90.7746C35.0381 90.5555 35.0743 90.3257 35.072 90.0947C35.1008 89.8693 35.1127 89.6421 35.1078 89.4149V81.1139C35.1137 80.8867 35.1017 80.6594 35.072 80.4341C35.0743 80.2031 35.0381 79.9733 34.9647 79.7542C34.9136 79.555 34.8155 79.371 34.6787 79.2175C34.5484 79.0619 34.3738 78.9496 34.1782 78.8955H42.4011V80.0405H42.3295C42.2921 79.8465 42.1915 79.6703 42.0435 79.5395C41.8837 79.4204 41.7012 79.3352 41.5073 79.2891C41.2893 79.2076 41.0603 79.1594 40.828 79.146H36.5736V85.0497H38.8617L39.5409 84.9066C39.745 84.8691 39.9324 84.7691 40.0772 84.6204C40.2241 84.4969 40.3352 84.3363 40.399 84.1552H40.4347V86.2662H40.399C40.3449 86.0705 40.2327 85.8958 40.0772 85.7653C39.9238 85.6284 39.74 85.5303 39.5409 85.4791C39.3221 85.4057 39.0925 85.3694 38.8617 85.3717H36.5736V91.5975H39.4694C40.2858 91.6347 41.0981 91.4622 41.829 91.0966C42.1099 90.9711 42.3587 90.7835 42.5568 90.5481C42.755 90.3126 42.8973 90.0353 42.9731 89.7369L43.0446 89.5938Z" fill="white"/>
<path d="M61.4565 78.8956C61.2699 78.9685 61.0997 79.078 60.956 79.2177C60.8309 79.374 60.7451 79.558 60.7058 79.7544C60.6374 79.9761 60.5895 80.2037 60.5628 80.4342C60.533 80.6595 60.5211 80.8868 60.527 81.114V89.415C60.5221 89.6422 60.534 89.8695 60.5628 90.0949C60.5895 90.3254 60.6374 90.5529 60.7058 90.7747C60.7519 90.9688 60.837 91.1514 60.956 91.3114C61.0925 91.4522 61.266 91.5515 61.4565 91.5976V91.6692H58.1317V91.5976C58.3287 91.5691 58.5076 91.4668 58.6322 91.3114C58.7487 91.1446 58.8447 90.9644 58.9182 90.7747L59.0255 90.0949C59.0542 89.8695 59.0662 89.6422 59.0612 89.415V79.2177L53.9487 88.9857L49.4083 80.3269V89.415C49.4083 89.6297 49.4441 89.8444 49.4441 90.0949C49.4708 90.3254 49.5187 90.5529 49.5871 90.7747C49.6306 90.9768 49.7296 91.1627 49.8731 91.3114C49.9889 91.4593 50.1538 91.5608 50.3378 91.5976V91.6692H48.2285V91.5976C48.4255 91.5691 48.6044 91.4668 48.729 91.3114C48.8583 91.1528 48.9555 90.9705 49.0151 90.7747C49.0884 90.5556 49.1246 90.3259 49.1223 90.0949C49.1511 89.8695 49.163 89.6422 49.1581 89.415V81.114C49.164 80.8868 49.152 80.6595 49.1223 80.4342C49.1246 80.2032 49.0884 79.9734 49.0151 79.7544C48.9639 79.5552 48.8658 79.3712 48.729 79.2177C48.5987 79.062 48.4241 78.9497 48.2285 78.8956H50.2664L54.628 87.1967L58.9897 78.8599H61.4565V78.8956Z" fill="white"/>
<path d="M71.8606 78.8597C72.3722 78.8497 72.8813 78.9346 73.3621 79.1101C73.8206 79.3 74.2437 79.5661 74.6134 79.8973C74.9468 80.2326 75.2243 80.6192 75.4357 81.0423C75.6194 81.4973 75.7164 81.9827 75.7217 82.4735C75.7256 82.9575 75.6154 83.4356 75.4 83.8689C75.2229 84.3118 74.9407 84.7048 74.5777 85.0139C74.2502 85.3472 73.8618 85.6144 73.4336 85.801C73.0038 85.9844 72.5423 86.0816 72.0751 86.0873H69.2865V89.4149C69.2865 89.6295 69.3222 89.8442 69.3222 90.0947C69.349 90.3252 69.3969 90.5527 69.4652 90.7745C69.5087 90.9766 69.6078 91.1625 69.7512 91.3112C69.8671 91.4591 70.0319 91.5606 70.216 91.5975V91.669H66.8911V91.5975C67.0881 91.5689 67.267 91.4666 67.3916 91.3112C67.5209 91.1526 67.6181 90.9703 67.6776 90.7745C67.7335 90.5515 67.7694 90.324 67.7849 90.0947C67.8137 89.8693 67.8256 89.642 67.8207 89.4149V81.1138C67.8266 80.8866 67.8146 80.6593 67.7849 80.434C67.7694 80.2047 67.7335 79.9771 67.6776 79.7542C67.6265 79.555 67.5284 79.371 67.3916 79.2175C67.2613 79.0618 67.0867 78.9495 66.8911 78.8955H71.8606V78.8597ZM71.074 85.8368C71.4958 85.8359 71.9117 85.7379 72.2896 85.5506C73.0125 85.1155 73.5477 84.4268 73.7911 83.6184C73.9279 83.252 74.0005 82.8646 74.0056 82.4735C74.0039 82.0703 73.9313 81.6707 73.7911 81.2927C73.6511 80.899 73.4587 80.5259 73.2191 80.1835C72.9524 79.874 72.6387 79.6084 72.2896 79.3964C71.9203 79.1826 71.5006 79.0714 71.074 79.0744H69.2865V85.8368H71.074Z" fill="white"/>
<path d="M86.4828 78.5737C87.2653 78.5727 88.037 78.7566 88.7351 79.1104C89.4314 79.4622 90.0512 79.9486 90.5584 80.5417C91.1034 81.1611 91.5278 81.8771 91.8097 82.6527C92.4309 84.3385 92.4309 86.1908 91.8097 87.8766C91.5278 88.6522 91.1034 89.3682 90.5584 89.9876C90.0512 90.5807 89.4314 91.0671 88.7351 91.4189C88.0365 91.7712 87.2651 91.9547 86.4828 91.9547C85.7005 91.9547 84.929 91.7712 84.2304 91.4189C83.5341 91.0671 82.9143 90.5807 82.4071 89.9876C81.8621 89.3682 81.4377 88.6522 81.1558 87.8766C80.5347 86.1908 80.5347 84.3385 81.1558 82.6527C81.4377 81.8771 81.8621 81.1611 82.4071 80.5417C82.9143 79.9486 83.5341 79.4622 84.2304 79.1104C84.9285 78.7566 85.7002 78.5727 86.4828 78.5737ZM86.4828 91.7051C87.0453 91.6986 87.593 91.5242 88.0558 91.2042C88.5729 90.8288 89.0104 90.3545 89.3429 89.8087C89.7265 89.1743 90.0156 88.4872 90.2009 87.7693C90.6295 86.1271 90.6295 84.4022 90.2009 82.76C90.0156 82.042 89.7265 81.355 89.3429 80.7206C89.0204 80.1672 88.5812 79.691 88.0558 79.3251C87.5962 78.9985 87.0465 78.823 86.4828 78.823C85.9191 78.823 85.3693 78.9985 84.9097 79.3251C84.3843 79.691 83.9451 80.1672 83.6227 80.7206C83.239 81.355 82.95 82.042 82.7646 82.76C82.336 84.4022 82.336 86.1271 82.7646 87.7693C82.95 88.4872 83.239 89.1743 83.6227 89.8087C83.9552 90.3545 84.3926 90.8288 84.9097 91.2042C85.3725 91.5242 85.9203 91.6986 86.4828 91.7051Z" fill="white"/>
<path d="M20.3066 101.187C20.456 101.189 20.6028 101.226 20.7356 101.294C20.8508 101.353 20.9587 101.425 21.0574 101.509L21.2719 101.831C21.3161 101.957 21.3402 102.09 21.3434 102.224C21.3412 102.362 21.3043 102.498 21.2361 102.618C21.1951 102.752 21.106 102.867 20.9859 102.94L20.6284 103.19L20.1993 103.262H18.1973C18.225 103.262 18.2524 103.255 18.2772 103.243C18.302 103.231 18.3236 103.213 18.3403 103.19L18.4475 103.011C18.4475 102.94 18.4833 102.904 18.4833 102.833V99.8986C18.4749 99.8383 18.463 99.7786 18.4475 99.7197L18.3403 99.5408C18.3236 99.5186 18.302 99.5005 18.2772 99.4881C18.2524 99.4757 18.225 99.4692 18.1973 99.4692H20.0563L20.4139 99.5408C20.534 99.5907 20.6433 99.6637 20.7356 99.7555L20.9501 100.042C20.991 100.145 21.0151 100.253 21.0216 100.364C21.0216 100.557 20.9589 100.746 20.8429 100.9C20.6943 101.044 20.5085 101.143 20.3066 101.187ZM18.948 99.4692V101.151H19.7346L20.0563 101.079L20.2709 100.9L20.4139 100.614C20.4547 100.511 20.4788 100.403 20.4854 100.292C20.4744 100.194 20.4503 100.098 20.4139 100.006C20.3884 99.9009 20.3395 99.8031 20.2709 99.7197L20.0563 99.5408L19.7346 99.4692H18.948ZM19.8776 103.19L20.2709 103.119L20.5569 102.868C20.6244 102.778 20.6842 102.682 20.7356 102.582C20.7633 102.465 20.7753 102.345 20.7714 102.224C20.779 102.104 20.7669 101.983 20.7356 101.867C20.6918 101.751 20.6316 101.643 20.5569 101.544L20.2709 101.294L19.8776 101.222H18.948V103.19H19.8776Z" fill="white"/>
<path d="M25.9198 99.3975H26.5991L26.3846 99.469L26.2058 99.6479C26.1343 99.7195 26.0628 99.7553 26.027 99.8268L25.884 100.042L25.0975 101.437V102.761C25.1059 102.821 25.1178 102.881 25.1333 102.94C25.169 103.011 25.169 103.083 25.2405 103.119L25.3835 103.226H24.311L24.4897 103.119C24.5255 103.083 24.5255 103.011 24.5612 102.94C24.5952 102.887 24.608 102.823 24.597 102.761V101.473L23.739 100.042C23.704 99.9622 23.6556 99.8896 23.596 99.8268L23.4172 99.6479L23.2384 99.469L23.0239 99.3975H24.168C24.0965 99.3975 24.0607 99.4332 24.0607 99.469V99.6479L24.168 99.8268L24.2752 100.042L25.026 101.33L25.8125 100.042L25.9198 99.8268C25.9555 99.7553 25.9913 99.7195 25.9913 99.6479C26.0171 99.5919 26.0293 99.5306 26.027 99.469C26.027 99.4332 25.9913 99.3975 25.9198 99.3975Z" fill="white"/>
<path d="M34.9649 103.226C35.0364 103.226 35.0721 103.19 35.0721 103.154C35.0878 103.127 35.0961 103.096 35.0961 103.065C35.0961 103.033 35.0878 103.003 35.0721 102.975C35.0721 102.904 35.0364 102.868 35.0006 102.796C34.9935 102.72 34.969 102.647 34.9291 102.582L34.3928 101.58H33.7851V102.796C33.7851 102.868 33.8208 102.904 33.8208 102.975L33.9281 103.154C33.9447 103.176 33.9663 103.195 33.9911 103.207C34.016 103.219 34.0433 103.226 34.0711 103.226H32.9985L33.1773 103.154C33.213 103.083 33.2488 103.047 33.2488 102.975C33.2777 102.92 33.2901 102.858 33.2846 102.796C33.2846 102.725 33.3203 102.653 33.3203 102.582V100.077C33.3203 100.006 33.2846 99.934 33.2846 99.8625C33.2955 99.8005 33.2828 99.7366 33.2488 99.6836C33.2463 99.6175 33.2211 99.5542 33.1773 99.5047L32.9985 99.4331H34.6073L35.0721 99.5047L35.5011 99.7551C35.6043 99.8593 35.6889 99.9803 35.7514 100.113C35.8246 100.231 35.8618 100.368 35.8586 100.507C35.8554 100.641 35.8313 100.773 35.7872 100.9L35.5726 101.222C35.4654 101.294 35.3939 101.401 35.2509 101.437L34.8934 101.58L35.4296 102.618L35.5726 102.832L35.7156 103.011L35.8944 103.19L36.1089 103.262H34.9649V103.226ZM33.7851 101.508H34.3571C34.4951 101.506 34.6304 101.469 34.7504 101.401C34.8613 101.337 34.9586 101.252 35.0364 101.151C35.1244 101.062 35.1863 100.95 35.2151 100.829C35.2592 100.714 35.2834 100.593 35.2866 100.471C35.2801 100.36 35.256 100.252 35.2151 100.149C35.1777 100.02 35.1171 99.8983 35.0364 99.7909C34.9572 99.7 34.8597 99.6269 34.7504 99.5762C34.6304 99.508 34.4951 99.4711 34.3571 99.4689H33.7851V101.508Z" fill="white"/>
<path d="M44.0811 99.3975H44.7604L44.5459 99.469L44.4029 99.6479C44.3432 99.7107 44.2948 99.7833 44.2599 99.8626L44.1526 100.042L42.7225 103.226H42.222L41.2925 101.151L40.363 103.226H39.8624L38.4324 100.042C38.3966 100.006 38.3966 99.9342 38.3251 99.8626L38.2179 99.6479L38.0391 99.469L37.8604 99.3975H38.9686C38.9409 99.3975 38.9135 99.4039 38.8887 99.4164C38.8639 99.4288 38.8423 99.4468 38.8256 99.469V99.6479C38.8256 99.7195 38.8614 99.7911 38.8614 99.8626L38.9686 100.042L40.3272 103.154L41.2567 101.043L40.8277 100.042L40.7205 99.8626L40.5775 99.6479L40.3987 99.469L40.2199 99.3975H41.3282C41.2567 99.3975 41.221 99.4332 41.221 99.469C41.1921 99.524 41.1797 99.5861 41.1852 99.6479C41.1924 99.724 41.2169 99.7974 41.2567 99.8626C41.2592 99.9287 41.2845 99.9919 41.3282 100.042L41.507 100.471L41.7215 100.042C41.7357 99.9785 41.7598 99.9181 41.793 99.8626C41.8217 99.7949 41.834 99.7213 41.8288 99.6479V99.469C41.8121 99.4468 41.7905 99.4288 41.7657 99.4164C41.7409 99.4039 41.7135 99.3975 41.6858 99.3975H42.365L42.1863 99.469L42.0075 99.6479L41.9003 99.8626L41.793 100.042L41.5428 100.578L42.6868 103.154L44.0811 100.042C44.0953 99.9785 44.1194 99.9181 44.1526 99.8626C44.1813 99.7949 44.1936 99.7213 44.1884 99.6479C44.2241 99.5764 44.1884 99.5406 44.1884 99.469L44.0811 99.3975Z" fill="white"/>
<path d="M54.1274 102.618V103.262H51.1958C51.2236 103.262 51.2509 103.255 51.2757 103.243C51.3006 103.231 51.3222 103.213 51.3388 103.19L51.4461 103.011C51.4461 102.94 51.4818 102.904 51.4818 102.833V99.8986C51.4734 99.8383 51.4615 99.7786 51.4461 99.7197L51.3388 99.5408L51.1958 99.4692H52.2683L52.0896 99.5408C52.0458 99.5904 52.0205 99.6536 52.0181 99.7197C51.9841 99.7727 51.9713 99.8366 51.9823 99.8986C51.9536 99.9663 51.9414 100.04 51.9466 100.113V103.226H52.9834C53.2414 103.238 53.4986 103.189 53.7341 103.083C53.8237 103.045 53.9029 102.987 53.9651 102.912C54.0273 102.837 54.0707 102.749 54.0917 102.654L54.1274 102.618Z" fill="white"/>
<path d="M58.8825 99.3975H59.5618C59.534 99.3975 59.5066 99.4039 59.4818 99.4164C59.457 99.4288 59.4354 99.4468 59.4187 99.469L59.3115 99.6479C59.296 99.7068 59.2841 99.7665 59.2757 99.8268V101.759C59.2695 101.952 59.2455 102.143 59.2042 102.331C59.17 102.501 59.0965 102.66 58.9897 102.797C58.8941 102.941 58.757 103.053 58.5965 103.119C58.4041 103.198 58.1967 103.235 57.9887 103.226C57.7579 103.228 57.5283 103.192 57.3094 103.119C57.1164 103.053 56.9353 102.956 56.7731 102.832C56.6345 102.702 56.5249 102.543 56.4514 102.367C56.3784 102.173 56.342 101.967 56.3441 101.759V99.8268C56.3358 99.7665 56.3238 99.7068 56.3084 99.6479L56.2011 99.469C56.1845 99.4468 56.1629 99.4288 56.1381 99.4164C56.1132 99.4039 56.0859 99.3975 56.0581 99.3975H57.1306L56.9519 99.469C56.9081 99.5186 56.8829 99.5818 56.8804 99.6479C56.8464 99.7009 56.8337 99.7648 56.8446 99.8268C56.8159 99.8946 56.8037 99.9681 56.8089 100.042V101.759C56.7842 102.144 56.8984 102.525 57.1306 102.832C57.2438 102.942 57.3784 103.028 57.526 103.083C57.6737 103.139 57.8312 103.163 57.9887 103.154L58.4892 103.083C58.6266 103.029 58.7491 102.943 58.8467 102.832C58.9706 102.717 59.0577 102.568 59.097 102.403C59.1736 102.197 59.21 101.979 59.2042 101.759V100.042C59.2042 99.97 59.1685 99.8984 59.1685 99.8268C59.1795 99.7648 59.1667 99.7009 59.1327 99.6479C59.1303 99.5818 59.105 99.5186 59.0612 99.469L58.8825 99.3975Z" fill="white"/>
<path d="M65.6393 103.262H64.4953C64.531 103.226 64.5668 103.19 64.5668 103.154V102.975L64.4595 102.796L64.3523 102.582L63.5657 101.401L62.815 102.582L62.7077 102.796C62.6362 102.868 62.6362 102.94 62.6005 102.975C62.5647 103.011 62.5647 103.118 62.6005 103.154C62.6362 103.19 62.6362 103.226 62.672 103.262H61.9927L62.2072 103.154L62.4217 102.975C62.4932 102.94 62.529 102.868 62.6005 102.796C62.6354 102.717 62.6838 102.645 62.7435 102.582L63.53 101.329L62.7435 100.077C62.6775 100.035 62.6272 99.972 62.6005 99.8982L62.4217 99.6836L62.2072 99.5047L61.9927 99.4331H63.1367C63.1178 99.4331 63.0996 99.4407 63.0862 99.4541C63.0728 99.4675 63.0652 99.4857 63.0652 99.5047C63.0295 99.5762 63.0652 99.612 63.0652 99.6836C63.0652 99.7551 63.101 99.8267 63.1725 99.8982L63.2797 100.077L64.0305 101.258L64.817 100.077L64.9243 99.8625L65.0315 99.6836V99.5047C65.0315 99.4857 65.024 99.4675 65.0106 99.4541C64.9972 99.4407 64.979 99.4331 64.9601 99.4331H65.6393L65.4248 99.5047L65.2103 99.6836L65.0315 99.8625L64.8885 100.077L64.102 101.329L64.8885 102.582L65.0315 102.796C65.1031 102.868 65.1388 102.94 65.2103 102.975L65.4248 103.154L65.6393 103.262Z" fill="white"/>
<path d="M70.9304 99.3975H71.6097L71.4309 99.469C71.3872 99.5186 71.3619 99.5818 71.3594 99.6479C71.3255 99.7009 71.3127 99.7648 71.3237 99.8268C71.295 99.8946 71.2827 99.9681 71.2879 100.042V101.759C71.2995 101.953 71.2753 102.147 71.2164 102.331C71.1788 102.494 71.1187 102.651 71.0377 102.797C70.9333 102.933 70.7987 103.043 70.6444 103.119C70.4502 103.192 70.2441 103.228 70.0366 103.226C69.7941 103.228 69.5528 103.192 69.3216 103.119L68.8211 102.832C68.6824 102.702 68.5728 102.543 68.4993 102.367C68.4141 102.175 68.3656 101.969 68.3563 101.759V99.8268C68.3673 99.7648 68.3545 99.7009 68.3206 99.6479C68.3181 99.5818 68.2928 99.5186 68.2491 99.469L68.0703 99.3975H69.1429C69.1151 99.3975 69.0877 99.4039 69.0629 99.4164C69.0381 99.4288 69.0165 99.4468 68.9999 99.469L68.8926 99.6479C68.8772 99.7068 68.8652 99.7665 68.8568 99.8268V101.759C68.8322 102.144 68.9464 102.525 69.1786 102.832C69.2917 102.942 69.4263 103.028 69.574 103.083C69.7217 103.139 69.8792 103.163 70.0366 103.154L70.5014 103.083C70.6493 103.029 70.7835 102.944 70.8947 102.832C71.0059 102.707 71.091 102.561 71.1449 102.403C71.1903 102.191 71.2143 101.976 71.2164 101.759V99.8268C71.1907 99.7708 71.1784 99.7095 71.1807 99.6479L71.0734 99.469C71.0568 99.4468 71.0352 99.4288 71.0104 99.4164C70.9855 99.4039 70.9582 99.3975 70.9304 99.3975Z" fill="white"/>
<path d="M76.0073 103.226L76.1146 103.154V102.975L76.0431 102.796L75.9358 102.582L75.3996 101.58H74.7918V102.582C74.7866 102.655 74.7988 102.729 74.8275 102.796C74.822 102.858 74.8344 102.92 74.8633 102.975C74.8633 103.047 74.8991 103.083 74.9348 103.154L75.1136 103.226H74.041C74.0688 103.226 74.0961 103.219 74.121 103.207C74.1458 103.195 74.1674 103.176 74.184 103.154L74.2913 102.975C74.2857 102.914 74.2981 102.851 74.327 102.796V99.8625C74.3013 99.8065 74.289 99.7452 74.2913 99.6836L74.184 99.5047C74.1674 99.4825 74.1458 99.4644 74.121 99.452C74.0961 99.4396 74.0688 99.4331 74.041 99.4331H75.6141L76.1146 99.5047C76.2582 99.5666 76.391 99.6512 76.5079 99.7551C76.622 99.8497 76.7084 99.9733 76.7581 100.113C76.8313 100.231 76.8685 100.368 76.8654 100.507C76.8622 100.641 76.838 100.773 76.7939 100.9C76.7478 101.022 76.6744 101.133 76.5794 101.222C76.5002 101.313 76.4027 101.386 76.2934 101.437L75.9001 101.58L76.4721 102.618L76.5794 102.832L76.7581 103.011L76.9011 103.19L77.1156 103.262H76.0073V103.226ZM74.7918 101.508H75.3638C75.5025 101.512 75.6392 101.474 75.7571 101.401C75.8681 101.337 75.9653 101.252 76.0431 101.151C76.1428 101.065 76.217 100.954 76.2576 100.829C76.3017 100.714 76.3258 100.593 76.3291 100.471C76.3226 100.36 76.2984 100.252 76.2576 100.149C76.2079 100.018 76.1353 99.8965 76.0431 99.7909C75.9639 99.7 75.8664 99.6269 75.7571 99.5762C75.6392 99.503 75.5025 99.4657 75.3638 99.4689H74.7918V101.508Z" fill="white"/>
<path d="M81.7635 99.3975H82.4786C82.4398 99.3942 82.4008 99.3989 82.3639 99.4112C82.3271 99.4235 82.2931 99.4432 82.2641 99.4691L82.0496 99.648L81.8708 99.8269L81.7278 100.042L80.9413 101.437V102.761C80.9496 102.821 80.9616 102.881 80.977 102.94L81.0843 103.119L81.2273 103.226H80.1547L80.3335 103.119C80.3773 103.069 80.4025 103.006 80.405 102.94C80.439 102.887 80.4517 102.823 80.4407 102.761C80.4407 102.689 80.4765 102.618 80.4765 102.546V101.473L79.5827 100.042L79.4397 99.8269L79.2967 99.648L79.0822 99.4691L78.8677 99.3975H80.0117C79.9402 99.3975 79.9045 99.4333 79.9045 99.4691C79.9022 99.5307 79.9145 99.592 79.9402 99.648C79.9402 99.7195 79.976 99.7553 80.0117 99.8269L80.119 100.042L80.9055 101.33L81.6563 100.042L81.7635 99.8269C81.7993 99.7553 81.835 99.7195 81.835 99.648C81.8608 99.592 81.873 99.5307 81.8708 99.4691C81.8708 99.4333 81.835 99.3975 81.7635 99.3975Z" fill="white"/>
<path d="M95.9211 21.7544L91.4164 25.2609C87.1977 28.5169 82.407 32.2022 78.7604 35.1004C72.7899 39.8592 66.2832 45.1547 60.5629 49.8777C57.6313 33.9197 54.2707 18.0333 51.3391 4.32941L50.3738 0L49.4442 4.32941C46.5126 18.0333 43.152 33.9197 40.2204 49.8777C34.5001 45.1547 27.9934 39.8592 22.0229 35.1004C18.3762 32.2022 13.5855 28.5169 9.36688 25.2609L4.8622 21.7544L0 17.9617L8.50884 30.4132C18.412 44.94 27.5644 57.9283 36.538 70.022L36.6452 70.1293V70.2367H36.7167L37.6463 71.5248L39.0406 70.4156C41.3287 68.555 43.724 66.5155 46.0478 64.5476L50.3738 60.7907C51.8396 62.0072 53.3411 63.2595 54.7712 64.5118C57.095 66.4798 59.4904 68.5192 61.7785 70.3798L63.1728 71.489L64.1023 70.2009H64.1738V70.0936L64.2811 69.9862C73.2547 57.8925 82.4071 44.9042 92.3102 30.3775L100.819 17.9259L95.9211 21.7544ZM37.5748 65.299C32.212 56.9622 26.5633 48.4107 20.4141 39.3941C26.5276 43.8308 33.2131 48.5896 39.6483 53.0979C38.8976 57.2484 38.1825 61.3274 37.5748 65.299ZM43.9028 62.8302L40.0416 65.4779L39.8628 65.621C40.7924 62.2219 41.6862 58.7512 42.6157 55.209L48.7292 59.5384L43.9028 62.8302ZM46.4054 54.9943L43.295 52.4181C45.5831 43.4015 47.8712 33.7408 50.3738 22.4342C52.9121 33.7408 55.2002 43.4015 57.4883 52.4181L54.3422 54.9943L50.3738 58.2861L46.4054 54.9943ZM60.7417 65.4779C59.4546 64.6192 58.1318 63.7247 56.8805 62.8302L52.0541 59.5384L58.1676 55.209C59.0971 58.7512 59.9909 62.2219 60.9204 65.621L60.7417 65.4779ZM63.2085 65.299C62.565 61.3274 61.8857 57.2484 61.1349 53.0979C67.5702 48.5896 74.2557 43.8308 80.3692 39.3941C74.22 48.4107 68.5712 56.9622 63.2085 65.299Z" fill="white"/>
</svg>
