<svg width="100" height="100" viewBox="0 0 100 100" fill="none" xmlns="http://www.w3.org/2000/svg">
<path fill-rule="evenodd" clip-rule="evenodd" d="M20.614 67.9708C19.8119 68.9524 18.8772 70.5426 18.5718 71.7759C17.578 75.7896 18.9104 79.392 22.9333 80.3312C29.4714 81.8577 33.2462 77.3419 32.0266 73.757C30.879 70.3822 27.9044 70.8272 25.1325 70.2258C23.5049 69.8729 22.2624 69.5301 21.4771 68.038L21.1491 67.4453L20.614 67.9706V67.9708Z" fill="white"/>
<path d="M81.7426 19.3633H72.417V28.6064H81.7426V19.3633Z" fill="white"/>
<path d="M81.7426 30.4219H72.417V80.0209H81.7426V30.4219Z" fill="white"/>
<path fill-rule="evenodd" clip-rule="evenodd" d="M33.1748 33.4751L38.8694 19.8579L60.3631 71.7568C61.24 73.874 63.1028 79.1554 64.7827 80.0208H49.5973C50.0099 80.0208 50.2988 78.8653 50.01 78.1638C49.7212 77.4624 33.1748 33.475 33.1748 33.475V33.4751Z" fill="white"/>
</svg>
