<svg width="100" height="100" viewBox="0 0 100 100" fill="none" xmlns="http://www.w3.org/2000/svg">
<g clip-path="url(#clip0_67_11475)">
<path d="M49.9594 80.0373C49.2012 80.0373 48.4601 79.8117 47.8296 79.3888C47.1993 78.9661 46.7079 78.3651 46.4178 77.662C46.1276 76.9589 46.0517 76.1853 46.1996 75.4389C46.3475 74.6925 46.7126 74.0069 47.2487 73.4688C47.7849 72.9307 48.4679 72.5642 49.2115 72.4158C49.9551 72.2672 50.7259 72.3435 51.4264 72.6347C52.1268 72.926 52.7255 73.4191 53.1467 74.0519C53.5679 74.6846 53.7927 75.4286 53.7927 76.1896C53.7927 77.2101 53.3889 78.1887 52.67 78.9103C51.9511 79.6319 50.9761 80.0373 49.9594 80.0373ZM49.9594 72.9476C49.3205 72.9476 48.6961 73.1377 48.165 73.494C47.6338 73.8502 47.2198 74.3566 46.9754 74.949C46.7309 75.5413 46.667 76.1932 46.7916 76.8221C46.9162 77.451 47.2238 78.0286 47.6755 78.482C48.1273 78.9353 48.7027 79.2441 49.3293 79.3692C49.9558 79.4943 50.6052 79.4301 51.1954 79.1847C51.7855 78.9393 52.29 78.5239 52.6449 77.9907C52.9998 77.4575 53.1892 76.8307 53.1892 76.1896C53.1892 75.3298 52.8489 74.5051 52.2432 73.8971C51.6375 73.2892 50.816 72.9476 49.9594 72.9476Z" fill="white"/>
<path d="M49.9548 85.3912C34.0993 85.3912 21.1963 72.4563 21.1963 56.5413C21.1963 40.6263 34.0993 27.6748 49.9548 27.6748C65.8104 27.6748 78.7135 40.6263 78.7135 56.5413C78.7135 72.4563 65.8104 85.3912 49.9548 85.3912ZM49.9548 29.1812C34.9313 29.1812 22.7134 41.4613 22.7134 56.5413C22.7134 71.6212 34.9313 83.8849 49.9548 83.8849C64.9785 83.8849 77.1964 71.6212 77.1964 56.5413C77.1964 41.4613 64.9785 29.1812 49.9548 29.1812Z" fill="white"/>
<path d="M25.6568 34.5039L24.6944 35.6337L21.7745 33.0957C21.4808 33.4397 21.1709 33.6034 20.8773 33.587C20.5836 33.5706 20.2411 33.4069 19.8823 33.0794L16.3262 30.0012L17.2723 28.9042L20.6326 31.8187C20.8446 31.9987 21.0241 32.0151 21.1383 31.8678L21.4483 31.5239C21.5678 31.3711 21.5189 31.2074 21.3015 31.0327L17.9411 28.1182L18.8872 27.0049L22.4596 30.0994C22.8185 30.4105 23.0306 30.7216 23.0795 31.0163C23.1284 31.3111 23.0306 31.6386 22.7369 31.966L25.6568 34.5039Z" fill="white"/>
<path d="M29.1009 29.0656C29.8024 29.8843 29.835 30.5719 29.2151 31.1122L28.0896 32.0783C27.4697 32.6022 26.8172 32.4549 26.1157 31.6362L21.7115 26.495C21.01 25.6599 20.9611 24.9886 21.5809 24.4482L22.6902 23.4986C23.3264 22.9583 23.9952 23.1057 24.6967 23.9243L29.1009 29.0656ZM27.9101 30.4245C28.0733 30.2772 28.0569 30.097 27.8449 29.8515L23.7342 25.0377C23.5385 24.8085 23.3427 24.7594 23.1959 24.8903L22.9023 25.136C22.7391 25.2833 22.7555 25.4798 22.9512 25.709L27.0619 30.5228C27.2739 30.7684 27.4534 30.8176 27.6165 30.6702L27.9101 30.4245Z" fill="white"/>
<path d="M33.4079 26.2501C33.9788 27.1671 33.9299 27.8384 33.2284 28.2804L31.9724 29.0664C31.2873 29.5085 30.6511 29.2629 30.0801 28.3296L25.627 21.2071L26.8503 20.4376L31.1894 27.3799C31.3525 27.6419 31.532 27.7238 31.7277 27.6092L32.0377 27.3963C32.217 27.298 32.2334 27.1016 32.054 26.8396L27.7312 19.8973L28.9546 19.1113L33.4079 26.2501Z" fill="white"/>
<path d="M41.9819 22.8621C42.3245 23.8936 42.1125 24.5322 41.3295 24.7778L38.1486 25.8421C37.3656 26.0931 36.8109 25.7002 36.4847 24.6632L33.8584 16.6729L35.196 16.2472L37.7408 24.0246C37.8387 24.3194 37.9855 24.4503 38.1812 24.3685L38.6706 24.2211L35.979 15.9852L37.235 15.5595L39.9266 23.7954L40.4323 23.6316C40.628 23.5662 40.6769 23.3861 40.5791 23.0913L38.0344 15.2976L39.372 14.8555L41.9819 22.8621Z" fill="white"/>
<path d="M47.4489 23.6962L45.9482 23.9091L45.1978 20.2742L44.3497 20.3888L44.6596 24.1056L43.1262 24.3184L42.6205 14.7727C42.6042 14.4289 42.7348 14.2324 43.0447 14.1833L44.6759 13.954C44.9859 13.9049 45.1978 14.0523 45.2794 14.3961L47.4489 23.6962ZM44.056 15.444C43.9745 15.4604 43.9581 15.4931 43.9581 15.5423L44.2355 19.0626L44.9369 18.9479L44.2355 15.5095C44.2355 15.444 44.1865 15.4276 44.1213 15.4276L44.056 15.444Z" fill="white"/>
<path d="M52.3895 23.3355C52.3973 23.3853 52.3935 23.4363 52.3785 23.4844C52.3635 23.5326 52.3377 23.5766 52.3029 23.6131C52.2682 23.6495 52.2255 23.6774 52.1783 23.6946C52.1311 23.7117 52.0805 23.7178 52.0305 23.7121H51.4107C51.305 23.7213 51.1999 23.6889 51.1177 23.6217C51.0355 23.5544 50.9825 23.4576 50.9703 23.3519L49.8447 17.7358C49.8447 17.7184 49.8378 17.7018 49.8256 17.6895C49.8134 17.6772 49.7967 17.6703 49.7795 17.6703H49.7305C49.6979 17.6703 49.6815 17.6867 49.6815 17.7358V18.489C49.6653 18.6854 49.6653 18.9638 49.6653 19.2913C49.6653 19.6187 49.6653 20.0281 49.649 20.5193L49.6 23.6793H48.2461L48.4092 14.0354C48.3955 13.9811 48.3952 13.9242 48.4084 13.8698C48.4215 13.8153 48.4477 13.7649 48.4846 13.723C48.5216 13.681 48.5683 13.6487 48.6205 13.629C48.6728 13.6092 48.729 13.6026 48.7844 13.6097H49.6164C49.722 13.6004 49.8271 13.6329 49.9094 13.7001C49.9915 13.7674 50.0445 13.8641 50.0567 13.9699L50.9703 19.0129C51.0029 19.0948 51.0355 19.1439 51.0681 19.1439H51.1171C51.1344 19.1439 51.151 19.137 51.1632 19.1247C51.1755 19.1124 51.1823 19.0958 51.1823 19.0784C51.1844 19.0125 51.1788 18.9466 51.166 18.8819V18.5053C51.1823 18.3252 51.1823 18.096 51.1823 17.7849V16.5896L51.2313 13.6424L52.5363 13.6752L52.3895 23.3355Z" fill="white"/>
<path d="M55.7702 24.1859L54.3184 23.9566L55.6396 15.4097L54.5631 15.2296L54.7751 13.8706L58.3965 14.4273L58.1844 15.8027L57.1077 15.6226L55.7702 24.1859Z" fill="white"/>
<path d="M63.9443 24.9562C63.7484 25.4802 63.5038 25.824 63.2264 26.0042C63.0602 26.0891 62.8767 26.1348 62.6901 26.1377C62.5034 26.1405 62.3187 26.1004 62.1499 26.0206L60.2576 25.3002C59.9151 25.1691 59.8009 24.9236 59.9314 24.5469L63.0634 16.262C63.2102 15.8854 63.4549 15.7708 63.8137 15.9181L65.6896 16.6386C66.4889 16.9333 66.701 17.6046 66.3095 18.6197L65.5428 20.6664C65.3471 21.1904 65.0372 21.4687 64.6294 21.5179C64.9066 21.8617 64.9556 22.3038 64.7435 22.8605L63.9443 24.9562ZM62.1499 24.5469C62.4 24.6452 62.5795 24.5469 62.6882 24.2523L63.4385 22.2219C63.5473 21.9599 63.4821 21.7798 63.2428 21.6816L62.6555 21.4687L61.6115 24.2031C61.6037 24.219 61.5996 24.2365 61.5996 24.2543C61.5996 24.272 61.6038 24.2895 61.6117 24.3054C61.6196 24.3212 61.6311 24.3351 61.6452 24.3457C61.6594 24.3564 61.6757 24.3636 61.6932 24.3669L62.1499 24.5469ZM63.7159 20.4372C63.9605 20.5191 64.1236 20.4372 64.2215 20.1589L64.923 18.325C65.0317 18.0303 64.9664 17.8338 64.7272 17.7356L64.2542 17.5718C64.1726 17.5391 64.1236 17.5718 64.0911 17.6537L63.1286 20.208L63.7159 20.4372Z" fill="white"/>
<path d="M66.9762 28.4109L64.823 27.232C64.4804 27.052 64.3989 26.7736 64.5946 26.4297L68.8195 18.6523C69.0152 18.3085 69.2762 18.2266 69.6189 18.4231L71.772 19.602L71.1196 20.8136L69.8146 20.1096C69.7986 20.1014 69.7811 20.0966 69.7633 20.0955C69.7454 20.0944 69.7275 20.097 69.7107 20.1031C69.6939 20.1093 69.6784 20.1189 69.6654 20.1312C69.6524 20.1436 69.6421 20.1585 69.6351 20.1751L68.3301 22.5983L69.733 23.3679L69.0969 24.5468L67.6939 23.7773L66.3074 26.3151C66.2585 26.397 66.2748 26.4625 66.34 26.4952L67.645 27.2157L66.9762 28.4109Z" fill="white"/>
<path d="M70.3016 30.7362L68.2952 29.2952C67.9853 29.066 67.9363 28.804 68.1647 28.4766L73.3194 21.2723C73.5477 20.9612 73.8251 20.9121 74.135 21.1413L76.1414 22.5822L75.3258 23.7119L74.135 22.8441C74.0697 22.795 74.0044 22.8114 73.9555 22.8932L72.3406 25.1364L73.6456 26.0697L72.8626 27.1503L71.5739 26.2171L69.8774 28.5748C69.8654 28.5879 69.8566 28.6036 69.8517 28.6206C69.8468 28.6376 69.8459 28.6556 69.8491 28.6731C69.8522 28.6905 69.8594 28.707 69.87 28.7212C69.8805 28.7354 69.8943 28.747 69.9101 28.7549L71.1009 29.6227L70.3016 30.7362Z" fill="white"/>
<path d="M72.1472 32.3737L71.0869 31.3913L77.4487 24.4162C77.726 24.1378 77.987 24.1215 78.2806 24.3835L79.9771 25.9553L79.0474 26.9705L78.0686 26.0863C78.0034 26.0208 77.9544 26.0372 77.8892 26.1026L76.0133 28.1329L77.0736 29.1154L76.1764 30.1141L75.1161 29.1317L72.1472 32.3737Z" fill="white"/>
<path d="M75.1618 35.55L74.2646 34.4857L75.6349 33.3395L76.5157 34.3874L75.1618 35.55ZM76.9725 34.0108L76.0917 32.9466L77.315 31.8987C77.6186 31.636 77.9937 31.4706 78.3917 31.4238L79.9087 31.2929C80.199 31.2628 80.4726 31.1426 80.6917 30.949L81.4746 30.2777C81.7356 30.0485 81.7846 29.8356 81.6052 29.6227L80.447 28.2474L81.4257 27.4287L82.747 29.0006C83.4322 29.8301 83.3017 30.6488 82.3556 31.4566L81.5888 32.1115C81.2867 32.3736 80.9101 32.534 80.5123 32.57L78.8647 32.7337C78.5671 32.7662 78.2874 32.8922 78.0655 33.094L76.9725 34.0108Z" fill="white"/>
<path d="M49.9585 76.1882C49.9585 76.1882 55.3252 76.7777 56.2224 72.7989C57.1196 68.8201 55.5699 64.7104 57.3969 61.8614C59.2238 59.0125 63.1388 57.7026 63.253 53.642C63.253 53.642 60.0721 56.3599 57.7721 57.4734C54.9011 58.8814 54.1996 63.8099 54.1996 63.8099C54.1996 63.8099 53.4656 58.3084 55.6841 56.1635C57.9026 54.0186 62.6495 53.4127 63.253 50.7766C63.8566 48.1405 64.1665 44.3582 68.8807 43.736C73.595 43.1138 80.9682 44.0307 84.8994 41.0998C88.8306 38.169 90.5272 34.5669 89.4179 28.4268C89.4179 28.4268 89.0101 37.6123 77.1185 38.6275C65.2268 39.6427 60.3984 38.3 58.1799 37.3176C55.9614 36.3352 53.172 39.0695 49.9585 39.0695C46.7449 39.0695 43.9556 36.3352 41.7371 37.3176C39.5186 38.3 34.6902 39.659 22.7986 38.6275C10.9068 37.5959 10.499 28.4268 10.499 28.4268C9.40612 34.5669 11.0863 38.1854 15.0175 41.0998C18.9488 44.0144 26.322 43.1138 31.0362 43.736C35.7505 44.3582 36.0441 48.1405 36.6639 50.7766C37.2838 53.4127 42.0307 54.0186 44.2492 56.1635C46.4676 58.3084 45.7173 63.8099 45.7173 63.8099C45.7173 63.8099 45.0158 58.8814 42.1612 57.4734C39.8448 56.3599 36.6639 53.642 36.6639 53.642C36.7782 57.7026 40.6931 59.0125 42.5201 61.8614C44.347 64.7104 42.8137 68.8201 43.7108 72.7989C44.608 76.7777 49.9585 76.1882 49.9585 76.1882Z" fill="white"/>
</g>
<defs>
<clipPath id="clip0_67_11475">
<rect width="80" height="73" fill="white" transform="translate(10 13)"/>
</clipPath>
</defs>
</svg>
