<svg width="100" height="100" viewBox="0 0 100 100" fill="none" xmlns="http://www.w3.org/2000/svg">
<g clip-path="url(#clip0_67_11487)">
<path d="M81.2992 41.77C81.2992 41.77 72.1932 43.4273 70.0713 57.2958H75.5532C75.5532 57.2958 75.6412 47.7883 81.2992 41.77Z" fill="#8F8F8F"/>
<path d="M17.2311 44.9695C16.7105 45.6929 15.7419 45.9457 14.9255 45.5737C14.1648 45.227 13.355 45.0377 12.5453 45.0377C9.93121 45.0377 8.18971 46.9991 8.18971 49.511C8.18971 52.1336 10.0877 53.9626 12.5229 53.9626C14.0194 53.9626 15.5156 53.2573 16.5882 52.3759L18.598 55.2628C16.9897 56.8057 14.8454 57.6206 12.5453 57.6206C7.74255 57.6206 4.0127 54.227 4.0127 49.511C4.0127 44.7954 7.72019 41.3794 12.6124 41.3794C13.9976 41.3794 15.3551 41.6614 16.5531 42.2561C17.5731 42.7625 17.8921 44.0508 17.2311 44.9695Z" fill="white"/>
<path d="M23.6801 53.858H31.0537V57.2958H19.5439V41.7705H23.6801V53.858Z" fill="white"/>
<path d="M36.3677 57.2962H32.2314V43.8114C32.2314 42.6843 33.1575 41.771 34.2996 41.771C35.4419 41.771 36.3677 42.6843 36.3677 43.8114V57.2962Z" fill="white"/>
<path d="M52.5161 57.2962H48.3572L41.7251 48.3583V57.2962H37.5889V41.771H41.8151L48.3799 50.6645V41.771H52.5161V57.2962Z" fill="white"/>
<path d="M65.4351 45.2083H57.8367V47.8254H62.9401C63.8214 47.8254 64.536 48.5304 64.536 49.4002C64.536 50.2697 63.8214 50.9746 62.9401 50.9746H57.8367V53.858H65.6599V57.2958H53.7002V41.7705H62.8606C62.8606 41.7705 63.4289 42.2507 64.3495 43.5262C65.1734 44.6679 65.4351 45.2083 65.4351 45.2083Z" fill="white"/>
<path d="M87.4649 53.9917C85.1037 53.9917 83.1481 52.1505 83.1481 49.5113C83.1481 46.85 85.1037 45.009 87.4649 45.009C89.8477 45.009 91.781 46.85 91.781 49.5113C91.781 52.1505 89.8477 53.9917 87.4649 53.9917ZM87.4649 41.3271C82.7656 41.3271 78.9443 44.7652 78.9443 49.5113C78.9443 54.2576 82.7656 57.6733 87.4649 57.6733C92.2075 57.6733 95.9847 54.2576 95.9847 49.5113C95.9847 44.7652 92.2075 41.3271 87.4649 41.3271Z" fill="white"/>
<path d="M64.3018 41.77C64.3018 41.77 73.4083 43.4273 75.5296 57.2958H70.0483C70.0483 57.2958 69.9603 47.7883 64.3018 41.77Z" fill="white"/>
<path d="M74.9023 43.7287C74.9023 44.8739 73.9619 45.8025 72.8008 45.8025C71.6402 45.8025 70.6992 44.8739 70.6992 43.7287C70.6992 42.5835 71.6402 41.6553 72.8008 41.6553C73.9619 41.6553 74.9023 42.5835 74.9023 43.7287Z" fill="white"/>
</g>
<defs>
<clipPath id="clip0_67_11487">
<rect width="92" height="17" fill="white" transform="translate(4 41)"/>
</clipPath>
</defs>
</svg>
