<svg width="100" height="100" viewBox="0 0 100 100" fill="none" xmlns="http://www.w3.org/2000/svg">
<g clip-path="url(#clip0_67_11479)">
<path fill-rule="evenodd" clip-rule="evenodd" d="M92.2012 29.4263C95.1746 29.4263 97.5851 31.9059 97.5851 34.9648C97.5851 38.0236 95.1746 40.5032 92.2012 40.5032C89.2278 40.5032 86.8174 38.0236 86.8174 34.9648C86.8174 31.9059 89.2278 29.4263 92.2012 29.4263ZM92.2012 30.8802C94.3941 30.8802 96.1716 32.709 96.1716 34.9647C96.1716 37.2204 94.394 39.0491 92.2012 39.0491C90.0084 39.0491 88.2308 37.2204 88.2308 34.9647C88.2308 32.7089 90.0084 30.8802 92.2012 30.8802Z" fill="white"/>
<path fill-rule="evenodd" clip-rule="evenodd" d="M47.9863 49.0131C47.9863 55.1746 49.525 59.5561 53.743 63.7766C63.5241 73.5637 79.6193 70.4227 85.3995 58.3741C91.7925 45.0479 81.349 30.2319 68.4976 30.2319C62.3399 30.2319 57.9609 31.7716 53.743 35.9921C51.9937 37.7425 51.0349 39.0544 49.8553 41.3958C48.9245 43.2433 47.9863 46.3186 47.9863 49.0131Z" fill="white"/>
<path fill-rule="evenodd" clip-rule="evenodd" d="M11.4141 69.5368H27.0878C36.4954 69.5368 45.6641 60.3626 45.6641 50.9493C45.6641 44.7306 44.2372 40.3246 39.9074 35.9921C36.7269 32.8098 31.89 30.2319 27.0879 30.2319H11.4142V69.5368H11.4141Z" fill="white"/>
<path fill-rule="evenodd" clip-rule="evenodd" d="M91.8255 34.481H91.2661V32.932H92.1985C92.771 32.932 93.3173 33.1113 93.3173 33.7065C93.3173 34.3865 92.4898 34.481 91.8255 34.481V34.481ZM90.0166 37.9661H91.2661V35.449H92.012L93.3173 37.9661H94.6228L93.1308 35.2554C95.1507 35.081 95.1827 31.9639 92.5714 31.9639H90.0166V37.9661Z" fill="white"/>
</g>
<defs>
<clipPath id="clip0_67_11479">
<rect width="100" height="100" fill="white"/>
</clipPath>
</defs>
</svg>
