<svg width="100" height="100" viewBox="0 0 100 100" fill="none" xmlns="http://www.w3.org/2000/svg">
<path d="M49.898 15C30.6247 15 15 30.6255 15 49.8997C15 69.1739 30.6247 84.7993 49.898 84.7993C69.1713 84.7993 84.796 69.1739 84.796 49.8997C84.796 30.6255 69.1713 15 49.898 15ZM49.898 82.052C32.1414 82.052 17.7472 67.6571 17.7472 49.8997C17.7472 32.1422 32.1414 17.7473 49.898 17.7473C67.6546 17.7473 82.0488 32.1422 82.0488 49.8997C82.0488 67.6571 67.6546 82.052 49.898 82.052Z" fill="white"/>
<path d="M44.1007 71.1618C40.7954 71.1618 37.6255 69.8488 35.2884 67.5114C32.9512 65.1742 31.6382 62.0041 31.6382 58.6987C31.6378 58.2442 31.6665 57.7902 31.724 57.3394C32.096 57.5969 32.7399 57.8259 33.813 58.0261C33.7414 69.7739 44.1007 71.1618 44.1007 71.1618Z" fill="white"/>
<path d="M44.1044 58.1261C50.8687 58.1261 56.3523 57.4085 56.3523 56.5235C56.3523 55.6384 50.8687 54.9209 44.1044 54.9209C37.3401 54.9209 31.8564 55.6384 31.8564 56.5235C31.8564 57.4085 37.3401 58.1261 44.1044 58.1261Z" fill="white"/>
<path d="M44.1032 72.9506C40.6392 72.9567 37.2915 71.7007 34.6861 69.4176C32.0808 67.1346 30.3962 63.9805 29.9473 60.5455C29.4985 57.1105 30.3161 53.6295 32.2473 50.7536C34.1784 47.8777 37.091 45.8036 40.4404 44.9193V26.8184H40.9125V45.277L40.7408 45.3342C37.4476 46.1725 34.581 48.1994 32.6926 51.0247C30.8042 53.8501 30.0277 57.2741 30.5124 60.6377C30.9971 64.0012 32.7089 67.0667 35.3182 69.2437C37.9275 71.4208 41.2499 72.5557 44.6457 72.4299C48.0415 72.3041 51.2709 70.9265 53.7119 68.5624C56.1531 66.1983 57.6334 63.0147 57.8681 59.6244C58.1027 56.2342 57.0749 52.877 54.9828 50.1991C52.8906 47.5212 49.8818 45.712 46.5357 45.1196L46.3497 45.091V26.8184H46.8075V44.7046C50.2892 45.3757 53.3956 47.3206 55.5201 50.1595C57.6447 52.9985 58.6346 56.5274 58.2967 60.0571C57.9587 63.5868 56.3171 66.8638 53.6926 69.248C51.068 71.6322 47.649 72.9523 44.1032 72.9506Z" fill="white"/>
<path d="M45.2174 46.2943V27.3921H42.1411V46.3944C39.7566 46.7766 37.5342 47.8426 35.7437 49.4631C33.9532 51.0836 32.6713 53.1889 32.0537 55.5236C32.6689 55.2374 33.6849 54.9941 35.3589 54.7652C37.7055 54.4647 40.8104 54.293 44.1013 54.293C47.3923 54.293 50.5114 54.4647 52.8437 54.7652C54.5321 54.9941 55.548 55.2374 56.1632 55.5236C55.5086 53.0466 54.1064 50.8317 52.1478 49.1801C50.1892 47.5287 47.7692 46.521 45.2174 46.2943Z" fill="white"/>
<path d="M46.5791 25.3018H40.6841V25.7697H46.5791V25.3018Z" fill="white"/>
<path d="M62.7278 33.0435H52.3828V34.4701H62.7278V33.0435Z" fill="white"/>
<path d="M66.8787 69.5308C66.5639 72.7504 63.7881 73.2655 59.9677 73.2655C59.1092 73.2655 58.1935 73.2368 57.2492 73.2083H56.5481C50.8533 73.0509 50.3955 71.4054 50.3955 70.9188H51.6546C51.6533 70.885 51.6484 70.8515 51.6403 70.8187C51.6833 70.9045 52.3415 71.8346 56.5767 71.9491L57.2778 71.9777C62.7435 72.1351 65.3763 72.0921 65.6339 69.4307C65.963 66.0538 64.4463 58.3699 63.2873 55.136C62.2857 52.3458 61.3127 47.0085 61.0122 45.32H54.8311C54.7142 46.4315 54.5326 47.5351 54.2874 48.6254L53.0711 48.3249C53.3266 47.1883 53.5082 46.0364 53.6149 44.8765C53.6257 44.8198 53.6305 44.7623 53.6291 44.7048V44.6761C53.6271 44.6467 53.632 44.6174 53.6435 44.5903V44.5474C53.6578 44.4185 53.6721 44.2612 53.7007 44.0751C53.901 42.0433 54.3589 36.7489 53.8152 34.3164L54.4161 34.1733C54.9884 36.706 54.5449 41.9717 54.3303 44.0751H61.4272C60.1109 38.6807 60.8692 34.3736 60.8978 34.1876L61.5131 34.3021C61.5131 34.345 60.7118 38.7379 62.0568 44.0751C62.0619 44.081 62.0658 44.0877 62.0683 44.0951C62.0708 44.1025 62.0717 44.1104 62.0711 44.1181L62.157 44.5759V44.6046C62.2571 45.1483 63.3731 51.6589 64.4606 54.7067C65.6625 58.0264 67.2364 65.8821 66.8787 69.5308Z" fill="white"/>
</svg>
