<svg width="100" height="100" viewBox="0 0 100 100" fill="none" xmlns="http://www.w3.org/2000/svg">
<path d="M39.5012 41.7452C40.0691 41.4612 41.6955 40.6867 42.4442 40.377C42.3667 40.7384 42.2892 41.074 42.186 41.4354L41.5148 44.2752C41.0759 46.0823 40.6371 47.9411 40.2498 49.4642C39.6561 51.8135 38.9849 54.2144 38.4428 55.8924C38.1864 56.7785 37.6842 57.5739 36.9943 58.1862C36.3043 58.7985 35.4549 59.2026 34.5446 59.3517C33.0589 59.5799 31.5548 59.6664 30.0527 59.6099C31.2144 58.5257 32.4019 57.0799 32.6343 56.8992H32.9183C33.5694 56.9039 34.2133 56.7628 34.8028 56.4862C35.4235 56.1091 35.8762 55.5086 36.0677 54.8081C36.5066 53.0268 37.1003 50.8324 37.6425 48.7155C38.1846 46.5986 38.6751 44.6366 39.0881 42.9585L39.3721 41.7969L39.5012 41.7452Z" fill="white"/>
<path d="M93.4552 42.2619C92.171 42.1851 90.8824 42.237 89.6086 42.4168C88.6666 42.5821 87.7894 43.0084 87.0778 43.6473C86.3657 44.2863 85.8471 45.1121 85.5812 46.0311C85.0135 47.7607 84.0068 51.9171 83.8001 52.7949L83.5938 53.7759H86.4332C86.4332 53.7759 87.5435 48.9999 88.0081 47.167C88.0713 46.8242 88.2108 46.5 88.4163 46.2184C88.6218 45.9369 88.8881 45.7052 89.1956 45.5406C89.6901 45.3361 90.2119 45.2056 90.7445 45.1533L93.4552 42.2619Z" fill="white"/>
<path d="M60.8778 42.6743C60.3092 42.4168 59.6919 42.2857 59.0678 42.2901C58.4437 42.2946 57.8284 42.4345 57.2634 42.7001C55.7661 43.3642 54.5187 44.4877 53.7019 45.9079C52.885 47.328 52.5412 48.9713 52.7199 50.5998C52.7591 51.3759 53.075 52.1124 53.6099 52.6759C54.1453 53.2394 54.8641 53.5927 55.6374 53.6719C56.1795 53.7235 56.6957 53.7235 57.3154 53.7235H57.5733C57.6277 53.5897 57.6708 53.4515 57.7024 53.3105L58.2962 50.7805L58.3737 50.3933L57.754 50.5482C57.4945 50.6115 57.2247 50.6189 56.962 50.5699C56.6993 50.521 56.4502 50.4168 56.2311 50.2642C56.0568 50.1399 55.9129 49.9778 55.8101 49.7901C55.7069 49.6023 55.6482 49.3937 55.6374 49.1799C55.5478 48.5465 55.6382 47.9007 55.8985 47.3163C56.1587 46.732 56.5781 46.2326 57.1087 45.8755C57.437 45.6386 57.8284 45.5047 58.233 45.4909C58.6372 45.4771 59.037 45.584 59.3805 45.798C60.3616 46.3918 60.0258 47.6568 59.8195 48.5862C59.6128 49.5155 59.4836 49.9802 59.3289 50.6773C59.1738 51.3743 58.8383 52.5102 58.5544 53.4396C58.2706 54.3689 57.9863 55.3242 57.8056 56.1502L57.1347 58.9384L60.3096 57.0538L60.3872 56.7182C60.6455 55.5823 61.0069 54.3431 61.3424 53.1556C61.6782 51.9681 62.1428 50.29 62.4527 48.9734C62.6905 47.9734 62.8377 46.9537 62.8912 45.9271C62.9232 45.245 62.7481 44.5692 62.3887 43.9886C62.0292 43.408 61.5027 42.9498 60.8778 42.6743Z" fill="white"/>
<path d="M51.8925 45.7462C51.8437 44.7927 51.4275 43.8952 50.731 43.2421L50.6019 43.1388C49.9382 42.5787 49.0954 42.2763 48.227 42.2869C47.5521 42.2944 46.8854 42.4347 46.2649 42.6999C44.841 43.3224 43.638 44.3602 42.8136 45.6776C41.9891 46.9949 41.5814 48.5305 41.6439 50.0833C41.6441 50.6102 41.7518 51.1316 41.9604 51.6154C42.1691 52.0993 42.4742 52.5355 42.8573 52.8973C43.5617 53.4744 44.4512 53.7771 45.3614 53.7492H46.5747L47.375 50.3931L46.7812 50.548C46.5134 50.6124 46.2351 50.6203 45.964 50.5715C45.6929 50.5226 45.435 50.4179 45.2065 50.264C45.0322 50.128 44.889 49.9563 44.7866 49.7604C44.6842 49.5644 44.6249 49.3489 44.6127 49.1281C44.5371 48.5439 44.6165 47.95 44.8431 47.4062C45.0697 46.8624 45.4354 46.3879 45.9035 46.0302C46.2706 45.751 46.7091 45.581 47.1687 45.5397C47.4013 45.4934 47.6416 45.4971 47.8727 45.5505C48.1042 45.6039 48.3217 45.7058 48.5108 45.8495C48.6812 46.0229 48.8143 46.229 48.9031 46.4552C48.9918 46.6814 49.0342 46.9232 49.027 47.1661C49.023 47.3992 49.0054 47.6319 48.9754 47.8631L48.8983 48.302C48.6916 49.1023 48.5108 49.9284 48.3045 50.7287L48.0718 51.7097L47.6848 53.4911C47.6848 53.5685 47.6588 53.6459 47.6588 53.7234H50.3436L51.4795 48.7925C51.5055 48.7409 51.5055 48.6634 51.5314 48.6118C51.7521 47.8035 51.8737 46.9712 51.8925 46.1335V45.7462Z" fill="white"/>
<path d="M83.8785 45.7462C83.8661 45.2741 83.759 44.8092 83.5639 44.3792C83.3688 43.9491 83.0897 43.5624 82.7427 43.242L82.5879 43.1387C81.9334 42.5804 81.099 42.2778 80.2386 42.2868C79.5641 42.2943 78.8972 42.4346 78.2767 42.6999C76.8526 43.3223 75.6499 44.3601 74.8255 45.6775C74.0007 46.9948 73.5933 48.5304 73.6556 50.0833C73.6512 50.6085 73.754 51.1292 73.9583 51.6132C74.1626 52.0971 74.4637 52.5341 74.8431 52.8972C75.55 53.4703 76.438 53.7724 77.3475 53.7491H78.5606C78.5866 53.7491 79.361 50.393 79.361 50.393L78.7673 50.5479C78.5034 50.6102 78.2295 50.6171 77.9629 50.5682C77.6966 50.5193 77.4427 50.4157 77.2184 50.264C77.0405 50.1293 76.8933 49.9584 76.7866 49.7626C76.6798 49.5668 76.6155 49.3505 76.5987 49.128C76.5339 48.5421 76.6207 47.9493 76.8514 47.4067C77.0821 46.8641 77.4483 46.39 77.9153 46.0301C78.2759 45.7565 78.7045 45.5869 79.1543 45.5396C79.3874 45.4899 79.6281 45.4918 79.86 45.5454C80.0919 45.5989 80.3094 45.7027 80.4969 45.8494C80.6756 46.0178 80.8163 46.2223 80.9095 46.4494C81.0031 46.6764 81.047 46.9207 81.039 47.1661C81.0346 47.3992 81.0175 47.6318 80.9875 47.8631C80.9623 48.0114 80.9279 48.158 80.8839 48.302C80.7032 49.1022 80.5225 49.9284 80.3162 50.7287L80.0839 51.7097L79.6965 53.491C79.6709 53.5684 79.6709 53.6459 79.6449 53.7233H82.3556L83.4915 48.7925L83.5431 48.6117C83.7518 47.8009 83.8729 46.9701 83.9045 46.1334C83.9085 46.0038 83.9001 45.8741 83.8785 45.7462Z" fill="white"/>
<path d="M73.4737 42.3901C72.8024 42.3901 72.1571 42.4159 71.5118 42.3901C71.3051 42.3901 71.3051 42.3901 71.3051 42.4159C71.3051 42.4418 71.3051 42.4159 71.2535 42.6225C70.7629 44.7136 70.2468 46.9854 69.7822 48.8183C69.717 49.2252 69.5471 49.6082 69.2892 49.9296C69.0309 50.251 68.6939 50.4996 68.3104 50.6513C68.0626 50.7671 67.7875 50.8139 67.5148 50.7866C67.2421 50.7594 66.9822 50.6591 66.7615 50.4964C66.5624 50.3193 66.4157 50.0905 66.3385 49.8354C66.261 49.5802 66.2554 49.3087 66.323 49.0506C66.5293 47.9664 67.8203 42.4159 67.8203 42.4159H65.1095L63.8961 47.6824C63.6038 48.6443 63.4647 49.6461 63.4831 50.6513C63.5114 51.5029 63.8733 52.3093 64.4898 52.8972C65.0443 53.4016 65.7396 53.724 66.4829 53.821C67.2261 53.9179 67.981 53.7847 68.6463 53.4394C69.3068 53.1513 69.9169 52.7591 70.4535 52.2777L70.6082 52.1228L70.7113 52.0453C71.4006 51.3012 71.9284 50.4221 72.2602 49.4637C72.315 49.33 72.3582 49.1918 72.3894 49.0506C72.7508 47.9147 73.0347 46.7272 73.2929 45.5655C73.4221 45.075 73.9127 42.9839 74.0158 42.5708V42.4159L73.4737 42.3901Z" fill="white"/>
<path d="M23.4462 37.4077C24.6875 36.3384 25.8682 35.2007 26.9829 34C26.699 34.981 26.3633 36.1944 25.9503 37.8982C25.6663 39.1374 25.3824 40.3508 25.0726 41.5899C23.7818 47.0113 22.6459 52.6392 20.5291 57.6475C17.1214 65.7279 7.13086 65.9861 7.13086 65.9861C13.5331 63.4561 17.5603 58.706 18.9285 54.0591C20.5549 48.5861 21.9747 43.0098 23.4462 37.4852V37.4077Z" fill="white"/>
<path d="M21.5082 38.8271C21.2501 39.6274 20.992 40.8925 20.6047 42.2865L19.8819 44.9972C18.7202 49.4117 17.6618 53.9812 15.9837 58.0343C15.1806 59.9499 13.9557 61.6597 12.4003 63.0364C10.8449 64.4131 8.99897 65.4212 7 65.9856C11.4661 63.5589 13.7636 59.0928 14.9254 55.3236C16.2936 50.8833 17.4552 45.9782 18.746 41.4862V41.4346C19.7098 40.6122 20.6317 39.742 21.5082 38.8271Z" fill="white"/>
</svg>
