<svg width="100" height="100" viewBox="0 0 100 100" fill="none" xmlns="http://www.w3.org/2000/svg">
<path d="M8.06641 54.2471H18.1881V52.3861H10.1795V39.2729H8.06649V54.2471H8.06641ZM36.6911 54.4183C40.6003 54.4183 42.9458 52.1293 42.9458 47.7868V39.2729H40.8962V47.7013C40.8962 51.0169 39.3747 52.5143 36.7123 52.5143C34.0498 52.5143 32.5495 51.0169 32.5495 47.7013V39.2729H30.4364V47.7868C30.4364 52.1293 32.803 54.4183 36.6912 54.4183H36.6911ZM68.9926 54.2471L63.3929 46.5033L68.6123 39.2729H66.309L62.2097 45.0273L58.068 39.2729H55.659L60.8784 46.5675L55.321 54.2471H57.751L62.125 48.0649L66.5625 54.2471H68.9926ZM83.3117 52.3861V47.5515H90.7286V45.7332H83.3117V41.134H91.6373V39.2729H81.1986V54.2471H91.9331V52.3861H83.3118H83.3117Z" fill="white"/>
<path d="M16.8689 60.6981H17.2269V57.5831H18.417V57.2697H15.6787V57.5831H16.8689V60.6981ZM23.0533 60.6981L22.226 59.5226C22.7195 59.3609 23.0001 58.9838 23.0001 58.4451C23.0001 57.7104 22.4775 57.2696 21.6163 57.2696H20.3488V60.6981H20.7068V59.6108H21.6163C21.7131 59.6108 21.8002 59.6059 21.8872 59.596L22.6613 60.6981H23.0532H23.0533ZM21.6068 59.3022H20.7069V57.5831H21.6068C22.2841 57.5831 22.6421 57.8965 22.6421 58.4451C22.6421 58.9838 22.2841 59.3022 21.6068 59.3022ZM27.738 60.6981H28.1154L26.5671 57.2696H26.2139L24.6657 60.6981H25.0382L25.4446 59.7822H27.3316L27.738 60.6981ZM25.5753 59.4884L26.3881 57.6467L27.201 59.4884H25.5753ZM32.5145 57.2697V60.0516L30.3325 57.2697H30.0375V60.6982H30.3955V57.9162L32.5726 60.6982H32.8677V57.2697H32.5145ZM36.2654 60.7275C37.1314 60.7275 37.5282 60.2966 37.5282 59.792C37.5282 58.5431 35.4429 59.1112 35.4429 58.1708C35.4429 57.828 35.7187 57.5488 36.3379 57.5488C36.6379 57.5488 36.9765 57.6419 37.2668 57.8329L37.3878 57.5439C37.1169 57.3529 36.7202 57.2402 36.3379 57.2402C35.4767 57.2402 35.0897 57.6762 35.0897 58.1807C35.0897 59.4492 37.1749 58.8713 37.1749 59.8116C37.1749 60.1495 36.8991 60.419 36.2654 60.419C35.8203 60.419 35.3897 60.2427 35.1478 60.0026L35.0076 60.2818C35.2591 60.5463 35.7575 60.7275 36.2655 60.7275H36.2654ZM41.9903 57.5831V57.2697H39.668V60.6982H40.026V59.2435H41.7774V58.9301H40.026V57.5833H41.9903V57.5831ZM45.5283 60.7275C46.5443 60.7275 47.3039 59.988 47.3039 58.9839C47.3039 57.9798 46.5443 57.2402 45.5283 57.2402C44.5027 57.2402 43.7478 57.9847 43.7478 58.9839C43.7478 59.983 44.5027 60.7275 45.5283 60.7275ZM45.5283 60.4042C44.7107 60.4042 44.1011 59.8019 44.1011 58.9839C44.1011 58.166 44.7107 57.5635 45.5283 57.5635C46.3411 57.5635 46.9459 58.166 46.9459 58.9839C46.9459 59.8019 46.3411 60.4042 45.5283 60.4042ZM52.1723 60.6982L51.345 59.5227C51.8385 59.361 52.1191 58.9839 52.1191 58.4452C52.1191 57.7105 51.5966 57.2697 50.7354 57.2697H49.4678V60.6982H49.8258V59.6109H50.7354C50.8321 59.6109 50.9192 59.606 51.0063 59.5961L51.7803 60.6982H52.1722H52.1723ZM50.7258 59.3023H49.8259V57.5832H50.7258C51.4031 57.5832 51.7612 57.8966 51.7612 58.4452C51.7612 58.9839 51.4031 59.3023 50.7258 59.3023ZM57.5489 57.2697L56.0926 59.8117L54.6219 57.2697H54.3268V60.6983H54.6703V57.9702L56.0008 60.2623H56.1701L57.5006 57.9554V60.6983H57.844V57.2697H57.549H57.5489ZM62.8382 60.6983H63.2156L61.6674 57.2697H61.3142L59.7661 60.6983H60.1385L60.545 59.7824H62.4319L62.8383 60.6983H62.8382ZM60.6756 59.4885L61.4885 57.6469L62.3012 59.4885H60.6756ZM65.6264 60.6983H65.9844V57.5833H67.1745V57.2698H64.4362V57.5833H65.6264V60.6983ZM69.1063 60.6983H69.4644V57.2697H69.1063V60.6983ZM73.4088 60.7276C74.4248 60.7276 75.1843 59.9881 75.1843 58.984C75.1843 57.9799 74.4248 57.2403 73.4088 57.2403C72.383 57.2403 71.6283 57.9848 71.6283 58.984C71.6283 59.9831 72.383 60.7276 73.4088 60.7276ZM73.4088 60.4043C72.5912 60.4043 71.9815 59.802 71.9815 58.984C71.9815 58.1661 72.5912 57.5636 73.4088 57.5636C74.2216 57.5636 74.8263 58.1661 74.8263 58.984C74.8263 59.802 74.2216 60.4043 73.4088 60.4043ZM79.8254 57.2697V60.0517L77.6434 57.2697H77.3483V60.6983H77.7064V57.9163L79.8835 60.6983H80.1787V57.2697H79.8255H79.8254ZM83.5763 60.7276C84.4423 60.7276 84.839 60.2966 84.839 59.7921C84.839 58.5432 82.7538 59.1113 82.7538 58.1709C82.7538 57.8281 83.0296 57.5489 83.6488 57.5489C83.9488 57.5489 84.2874 57.6419 84.5778 57.833L84.6988 57.544C84.4279 57.353 84.0311 57.2403 83.6489 57.2403C82.7877 57.2403 82.4007 57.6762 82.4007 58.1808C82.4007 59.4493 84.4859 58.8713 84.4859 59.8117C84.4859 60.1496 84.2101 60.419 83.5763 60.419C83.1312 60.419 82.7006 60.2427 82.4587 60.0027L82.3185 60.2819C82.57 60.5464 83.0684 60.7276 83.5764 60.7276H83.5763Z" fill="white"/>
<path d="M87.8408 58.7505H91.8358V59.0999H87.8408V58.7505Z" fill="white"/>
<path d="M8.69336 58.8662H12.6883V59.2156H8.69336V58.8662Z" fill="white"/>
</svg>
