<svg width="100" height="100" viewBox="0 0 100 100" fill="none" xmlns="http://www.w3.org/2000/svg">
<g clip-path="url(#clip0_67_11488)">
<path d="M12.5312 70.1212C12.8042 69.8377 13.1122 69.59 13.4477 69.3841C13.7196 69.2064 14.0393 69.1161 14.3641 69.1251C14.9617 69.1251 15.4199 69.3044 15.7387 69.6829C16.0574 70.0615 16.2168 70.5994 16.2168 71.2966V74.7829H15.1211V71.3763C15.1446 71.0253 15.0382 70.6779 14.8223 70.4001C14.7157 70.2864 14.5856 70.1973 14.4411 70.1388C14.2967 70.0803 14.1412 70.0539 13.9855 70.0615C13.7615 70.0676 13.5424 70.1292 13.348 70.2408C13.1114 70.373 12.9019 70.5487 12.7305 70.7587V74.7829H11.6348V71.456C11.6348 70.958 11.5551 70.5994 11.3758 70.3802C11.274 70.2659 11.1476 70.176 11.0062 70.1174C10.8647 70.0587 10.7119 70.0328 10.559 70.0415C10.3061 70.0407 10.058 70.1097 9.8418 70.2408C9.61117 70.3734 9.40825 70.5493 9.24414 70.7587V74.7829H8.14844V69.2247H9.24414V69.9619C9.47387 69.6999 9.75099 69.4836 10.0609 69.3244C10.3187 69.1887 10.6064 69.1202 10.8977 69.1251C11.2253 69.1215 11.5482 69.204 11.834 69.3642C12.1467 69.5287 12.3929 69.7961 12.5312 70.1212Z" fill="white"/>
<path d="M18.7666 67.9896C18.71 68.055 18.6395 68.1068 18.5602 68.1413C18.4809 68.1758 18.3949 68.192 18.3084 68.1888C18.2218 68.1935 18.1353 68.178 18.0558 68.1434C17.9762 68.1088 17.9059 68.0561 17.8502 67.9896C17.7334 67.8658 17.6691 67.7016 17.6709 67.5314C17.6742 67.3681 17.7381 67.2119 17.8502 67.0931C17.9059 67.0266 17.9762 66.9739 18.0558 66.9393C18.1353 66.9047 18.2218 66.8892 18.3084 66.8939C18.3949 66.8907 18.4809 66.9069 18.5602 66.9414C18.6395 66.9759 18.71 67.0277 18.7666 67.0931C18.8305 67.1466 18.8815 67.2138 18.916 67.2896C18.9504 67.3655 18.9675 67.4481 18.9659 67.5314C18.9691 67.6178 18.9528 67.7038 18.9183 67.7831C18.8839 67.8624 18.832 67.933 18.7666 67.9896ZM18.8662 69.2247V74.783H17.7705V69.2247H18.8662Z" fill="white"/>
<path d="M25.1613 66.356V74.7829H22.9699C22.0535 74.7829 21.3562 74.5239 20.8582 73.986C20.3654 73.4574 20.1006 72.7561 20.1211 72.0337C20.0929 71.2551 20.372 70.4966 20.898 69.922C21.1494 69.6596 21.4531 69.4531 21.7894 69.3158C22.1258 69.1785 22.4873 69.1136 22.8504 69.1251C23.071 69.1234 23.2912 69.1435 23.5078 69.1849L24.0656 69.3442V66.356H25.1613ZM23.1891 73.8267H24.0656V70.3403C23.8986 70.26 23.7254 70.1934 23.5476 70.1411C23.3512 70.0996 23.1508 70.0795 22.95 70.0813C22.7197 70.0792 22.4914 70.124 22.279 70.213C22.0667 70.3021 21.8747 70.4335 21.7148 70.5993C21.3648 71.0002 21.186 71.5223 21.2168 72.0536C21.2033 72.2972 21.2427 72.5407 21.3321 72.7676C21.4215 72.9946 21.5588 73.1995 21.7348 73.3685C22.0734 73.6673 22.5516 73.8267 23.1891 73.8267Z" fill="white"/>
<path d="M27.8711 66.356V74.7829H26.7754V66.356H27.8711Z" fill="white"/>
<path d="M33.0108 70.918V73.707C33.0108 73.8863 33.0905 73.966 33.2299 73.966C33.4464 73.9217 33.6464 73.8183 33.8076 73.6672V74.4641C33.4748 74.7221 33.0724 74.8747 32.6522 74.9023C32.4813 74.9145 32.3116 74.865 32.174 74.7629C32.1002 74.7126 32.0374 74.6478 31.9895 74.5725C31.9415 74.4971 31.9094 74.4128 31.8951 74.3246C31.4784 74.6833 30.9507 74.8873 30.401 74.9023C30.2231 74.903 30.0469 74.8681 29.8826 74.7997C29.7184 74.7313 29.5695 74.6307 29.4447 74.5039C29.3146 74.3775 29.212 74.2255 29.1434 74.0575C29.0748 73.8895 29.0418 73.7091 29.0463 73.5277C29.0421 73.3056 29.0926 73.0858 29.1934 72.8878C29.2941 72.6898 29.442 72.5196 29.624 72.3922C30.0225 72.1332 30.7795 71.8145 31.9151 71.4359V71.1172C31.9289 70.9828 31.9128 70.8471 31.8681 70.7196C31.8233 70.5922 31.7509 70.4763 31.6561 70.3801C31.4441 70.222 31.1829 70.1443 30.919 70.1609C30.601 70.1647 30.2879 70.2396 30.0026 70.3801C29.6764 70.5576 29.386 70.794 29.1459 71.0773V69.882C29.5842 69.3641 30.2018 69.125 30.9987 69.125C31.7955 69.125 32.1342 69.2844 32.4928 69.623C32.6651 69.7905 32.8003 69.9923 32.8895 70.2154C32.9787 70.4385 33.0201 70.6779 33.0108 70.918ZM31.4569 73.9859C31.623 73.9004 31.7771 73.7932 31.9151 73.6672V72.0336C31.4361 72.1731 30.9798 72.3812 30.5604 72.6512C30.4408 72.7247 30.3417 72.827 30.272 72.9489C30.2024 73.0707 30.1645 73.2081 30.1619 73.3484C30.1619 73.4505 30.182 73.5515 30.2211 73.6458C30.2601 73.74 30.3174 73.8257 30.3895 73.8978C30.4616 73.97 30.5473 74.0272 30.6416 74.0662C30.7358 74.1053 30.8369 74.1254 30.9389 74.1254C31.1213 74.1293 31.301 74.0809 31.4569 73.9859Z" fill="white"/>
<path d="M39.3857 71.436V74.7828H38.29V71.4559C38.29 70.9645 38.1904 70.6059 37.9912 70.3801C37.8873 70.263 37.7577 70.1715 37.6125 70.1127C37.4674 70.054 37.3106 70.0296 37.1545 70.0414C36.8949 70.0369 36.6393 70.106 36.4174 70.2407C36.1747 70.3896 35.9646 70.5861 35.7998 70.8184V74.7828H34.7041V69.2246H35.7998V69.9418C36.0087 69.6891 36.2702 69.4851 36.5662 69.344C36.8621 69.203 37.1853 69.1282 37.5131 69.125C37.7727 69.1125 38.0317 69.1598 38.2701 69.2635C38.5085 69.3671 38.7198 69.5242 38.8877 69.7227C39.2264 70.1211 39.3857 70.6989 39.3857 71.436Z" fill="white"/>
<path d="M45.6213 66.356V74.7829H43.4299C42.5135 74.7829 41.8162 74.5239 41.3182 73.986C40.8254 73.4574 40.5606 72.7561 40.581 72.0337C40.5529 71.2551 40.8319 70.4966 41.358 69.922C41.6093 69.6596 41.913 69.4531 42.2494 69.3158C42.5858 69.1785 42.9472 69.1136 43.3103 69.1251C43.5309 69.1234 43.7511 69.1435 43.9678 69.1849L44.5256 69.3442V66.356H45.6213ZM43.649 73.8267H44.5256V70.3403C44.3586 70.26 44.1854 70.1934 44.0076 70.1411C43.8111 70.0996 43.6107 70.0795 43.41 70.0813C43.1797 70.0792 42.9514 70.124 42.739 70.213C42.5266 70.3021 42.3346 70.4335 42.1748 70.5993C41.8248 71.0002 41.6459 71.5223 41.6767 72.0536C41.6633 72.2972 41.7026 72.5407 41.792 72.7676C41.8814 72.9946 42.0188 73.1995 42.1947 73.3685C42.5334 73.6673 43.0115 73.8267 43.649 73.8267Z" fill="white"/>
<path d="M51.8961 71.436V74.7829H50.8004V71.4559C50.8004 70.9645 50.7008 70.6059 50.5016 70.3801C50.3997 70.2605 50.2704 70.1673 50.1247 70.1083C49.979 70.0493 49.8213 70.0264 49.6648 70.0415C49.4055 70.0391 49.1505 70.108 48.9277 70.2407C48.6869 70.385 48.4824 70.5826 48.3301 70.8184V74.7829H47.2344V69.2247H48.3301V69.9419C48.5514 69.6628 48.839 69.4436 49.1668 69.3044C49.4393 69.1937 49.7294 69.1329 50.0234 69.1251C50.2834 69.1094 50.5435 69.1553 50.7824 69.2592C51.0212 69.3631 51.2322 69.5219 51.398 69.7227C51.7367 70.1212 51.8961 70.6989 51.8961 71.436Z" fill="white"/>
<path d="M58.1126 71.9937V72.0933H54.2079C54.2236 72.5701 54.4152 73.0243 54.7458 73.3683C54.9113 73.5294 55.108 73.6549 55.3239 73.7371C55.5397 73.8193 55.7701 73.8565 56.0009 73.8464C56.3604 73.8466 56.7174 73.786 57.0567 73.6671C57.3984 73.5494 57.7207 73.3816 58.013 73.1691V74.2449C57.6862 74.4596 57.3307 74.6273 56.9571 74.7429C56.5947 74.8489 56.219 74.9025 55.8415 74.9023C55.4724 74.909 55.1061 74.838 54.7663 74.6939C54.4265 74.5497 54.1208 74.3356 53.8692 74.0656C53.6075 73.7858 53.404 73.4568 53.2706 73.0977C53.1372 72.7386 53.0766 72.3565 53.0923 71.9738C53.0923 71.1171 53.3313 70.4398 53.8094 69.9218C54.0437 69.6594 54.333 69.4519 54.6567 69.3141C54.9804 69.1764 55.3306 69.1118 55.6821 69.1249C56.0192 69.1109 56.355 69.1756 56.6628 69.3139C56.9705 69.4522 57.2418 69.6604 57.4552 69.9218C57.8934 70.4398 58.1126 71.137 58.1126 71.9937ZM57.0169 71.4558C57.0243 71.0813 56.889 70.7181 56.6384 70.4398C56.5137 70.3153 56.364 70.2189 56.199 70.157C56.0341 70.0952 55.8578 70.0693 55.6821 70.0812C55.4992 70.0748 55.3169 70.105 55.1459 70.17C54.9748 70.235 54.8185 70.3335 54.686 70.4597C54.4142 70.7228 54.2507 71.0782 54.2278 71.4558H57.0169Z" fill="white"/>
<path d="M60.6023 68.0889H60.6422V69.2244H62.3953V70.2205H60.6422V72.8104C60.6422 73.2287 60.702 73.5076 60.8414 73.667C60.9134 73.7467 61.0034 73.8082 61.1038 73.8463C61.2043 73.8844 61.3124 73.898 61.4191 73.8861C61.649 73.8923 61.8781 73.8586 62.0965 73.7865C62.2964 73.7096 62.4897 73.6164 62.6742 73.5076V74.5236C62.4552 74.6472 62.2207 74.741 61.977 74.8025C61.7424 74.8624 61.5018 74.8958 61.2598 74.9022C61.0255 74.9175 60.7906 74.8829 60.5708 74.8004C60.3509 74.718 60.1512 74.5897 59.9848 74.424C59.6859 74.1053 59.5266 73.5674 59.5266 72.8104V70.2205H58.5703V70.101L60.6023 68.0889Z" fill="white"/>
<path d="M64.3082 69.2246L65.7625 72.5914L67.177 69.2246H67.9937L69.3883 72.5914L70.8426 69.2246H72.018L69.5676 74.9023H69.2289L67.5754 71.0176L65.9617 74.9023H65.6031L63.1328 69.2246H64.3082Z" fill="white"/>
<path d="M77.3166 74.1256C76.7405 74.6363 75.9945 74.9134 75.2248 74.9026C74.8293 74.9168 74.4353 74.8479 74.0681 74.7004C73.7009 74.5528 73.3688 74.3299 73.0931 74.0459C72.8327 73.7839 72.6264 73.473 72.4863 73.1312C72.3461 72.7893 72.2748 72.4232 72.2763 72.0537C72.2618 71.6601 72.3297 71.2678 72.4755 70.902C72.6214 70.5361 72.842 70.2047 73.1233 69.9291C73.4046 69.6534 73.7404 69.4395 74.1091 69.3011C74.4778 69.1627 74.8714 69.1028 75.2646 69.1252C75.6518 69.1117 76.0378 69.1752 76.4003 69.312C76.7628 69.4488 77.0946 69.6562 77.3763 69.9221C77.6526 70.1941 77.8696 70.5204 78.0136 70.8804C78.1576 71.2404 78.2255 71.6263 78.2131 72.0139C78.2131 72.9104 77.9142 73.6276 77.3166 74.1256ZM73.9299 73.3885C74.1048 73.5619 74.3136 73.6974 74.5433 73.7865C74.7729 73.8756 75.0185 73.9164 75.2646 73.9065C75.5093 73.9148 75.753 73.8711 75.9797 73.7784C76.2063 73.6857 76.4107 73.546 76.5795 73.3686C76.754 73.1862 76.8898 72.9704 76.9789 72.7342C77.0679 72.4979 77.1082 72.2462 77.0974 71.994C77.1105 71.7398 77.0692 71.4857 76.9765 71.2487C76.8838 71.0117 76.7416 70.7972 76.5595 70.6193C76.1935 70.2755 75.7069 70.0895 75.2049 70.1014C74.9628 70.0907 74.7213 70.1333 74.4975 70.2263C74.2738 70.3192 74.0732 70.4602 73.9099 70.6393C73.7399 70.8239 73.6083 71.0405 73.5228 71.2765C73.4373 71.5125 73.3996 71.7632 73.4119 72.0139C73.3963 72.2666 73.4344 72.5197 73.5236 72.7567C73.6129 72.9936 73.7514 73.2089 73.9299 73.3885Z" fill="white"/>
<path d="M83.4527 69.7426L82.875 70.7188C82.7055 70.5732 82.5257 70.4401 82.3371 70.3203C82.1713 70.2322 81.987 70.1844 81.7992 70.1809C81.6232 70.187 81.451 70.2332 81.2956 70.3161C81.1402 70.399 81.0059 70.5162 80.9027 70.659C80.6255 70.9872 80.4768 71.4048 80.4844 71.8344V74.7828H79.3887V69.2246H80.4844V70.4996C80.7127 70.0934 81.0092 69.7295 81.3609 69.4238C81.5845 69.2359 81.8658 69.1304 82.1578 69.125C82.392 69.1323 82.6223 69.1865 82.8352 69.2844C83.0581 69.4126 83.2654 69.5663 83.4527 69.7426Z" fill="white"/>
<path d="M85.3451 66.356V74.7829H84.2295V66.356H85.3451ZM89.1701 69.2247L86.7795 71.9341L89.6482 74.7829H88.194L85.4049 71.954L87.8553 69.2247H89.1701Z" fill="white"/>
<path d="M93.5732 69.5834V70.6791C93.3091 70.5064 93.0289 70.3597 92.7365 70.2408C92.4959 70.1424 92.2394 70.0884 91.9795 70.0815C91.783 70.0623 91.586 70.1116 91.4217 70.2209C91.3763 70.2529 91.3385 70.2944 91.3109 70.3426C91.2834 70.3908 91.2668 70.4445 91.2623 70.4998C91.2584 70.5786 91.2725 70.6572 91.3035 70.7298C91.3346 70.8023 91.3818 70.8667 91.4416 70.9182C91.7245 71.1501 92.0318 71.3505 92.358 71.5158L92.876 71.8346C93.1593 71.9999 93.4039 72.224 93.5932 72.492C93.7563 72.7337 93.8463 73.0173 93.8521 73.3088C93.855 73.5198 93.812 73.7288 93.726 73.9215C93.64 74.1141 93.5131 74.2857 93.3541 74.4244C92.9624 74.7611 92.4553 74.9326 91.9396 74.9026C91.6777 74.8988 91.4171 74.8654 91.1627 74.8029C90.7879 74.7094 90.4264 74.5688 90.0869 74.3846V73.2092C90.3614 73.4209 90.6629 73.5951 90.9834 73.7272C91.2589 73.8529 91.5572 73.9207 91.86 73.9264C92.1787 73.9264 92.3978 73.8865 92.5174 73.767C92.5786 73.7294 92.6291 73.6766 92.664 73.6138C92.6989 73.551 92.717 73.4803 92.7166 73.4084C92.7166 73.1295 92.4576 72.8506 91.9396 72.5717C91.478 72.3265 91.0439 72.0326 90.6447 71.6951C90.4795 71.5562 90.3473 71.3822 90.2577 71.1858C90.1681 70.9893 90.1234 70.7754 90.1268 70.5596C90.1228 70.3628 90.166 70.1679 90.2526 69.9912C90.3392 69.8145 90.4668 69.661 90.6248 69.5436C90.9826 69.2497 91.4375 69.1005 91.8998 69.1252C92.4883 69.1272 93.0658 69.2854 93.5732 69.5834Z" fill="white"/>
<path d="M49.1676 28.1257C56.4988 26.9304 61.3199 32.5085 61.3199 32.5085L63.0332 30.3371C48.809 17.9656 38.0312 31.3929 38.0312 31.3929C32.7918 24.7191 23.7273 25.3765 23.7273 25.3765C15.4398 25.3765 8.64648 32.648 8.14844 40.3777V59.2636C9.10824 59.2607 10.0597 59.0852 10.9574 58.7456V39.78C10.9574 36.9113 14.6828 28.1257 24.4246 28.1257C34.1664 28.1257 38.0312 35.9949 38.0312 35.9949C38.0312 35.9949 41.8363 29.321 49.1676 28.1257Z" fill="white"/>
<path d="M25.102 30.6958C18.707 30.636 13.5273 35.9353 13.5273 42.3302V57.0325L14.0254 56.5743C14.7025 55.9572 15.2448 55.2069 15.6185 54.3705C15.9921 53.5341 16.189 52.6295 16.1969 51.7134L16.2766 42.7286C16.2766 37.8079 20.0418 33.4052 24.9426 33.4052C26.109 33.4049 27.2639 33.6354 28.3409 34.0833C29.4179 34.5312 30.3957 35.1877 31.218 36.015C32.8316 37.6087 34.0867 40.2782 34.0867 42.7286V59.2638C35.0009 59.1958 35.9003 58.9944 36.7562 58.6661V42.4696C36.7564 39.3676 35.5324 36.3909 33.3501 34.1863C31.1679 31.9816 28.2038 30.7273 25.102 30.6958Z" fill="white"/>
<path d="M59.4273 33.9627C57.7807 32.3153 55.6825 31.1933 53.3981 30.7387C51.1136 30.284 48.7457 30.5172 46.5938 31.4087C44.4419 32.3001 42.6028 33.8098 41.3092 35.7467C40.0155 37.6837 39.3254 39.9608 39.3262 42.29V57.1916C41.0195 55.4982 41.8961 53.9244 42.0754 51.6533V42.549C42.0754 40.0986 43.0316 35.2178 48.8887 33.6639C53.3512 32.4685 58.0527 35.417 58.8496 38.2459C58.9476 37.7411 59.074 37.2423 59.2281 36.7517C59.3676 36.3533 59.507 35.9549 59.6465 35.5963C59.7859 35.2377 59.8855 34.9588 60.025 34.64C59.8457 34.401 59.6266 34.1818 59.4273 33.9627Z" fill="white"/>
<path d="M93.832 40.7762C93.7922 38.5051 92.1188 33.3055 88.8715 30.1977C87.2083 28.5827 85.2353 27.3212 83.0714 26.4892C80.9075 25.6572 78.5976 25.272 76.2809 25.3567C69.8461 25.536 66.0012 28.6438 63.9094 31.2137C62.7236 32.6916 61.7881 34.3538 61.1402 36.1344C60.443 37.9872 59.8652 39.9395 59.8652 41.8321V59.2637C60.9809 59.3235 61.9371 59.1243 62.6543 58.6063V41.8321C62.6522 41.3727 62.6788 40.9136 62.734 40.4575C63.3316 35.2579 67.2164 28.2055 76.3406 27.9665C81.5402 27.827 84.927 30.1977 86.9789 32.15C89.5488 34.6204 91.043 39.3817 91.0629 41.1149C91.1027 44.661 91.0828 56.0364 91.0828 58.7657C91.9621 59.0971 92.8925 59.2724 93.832 59.2836C93.832 58.9848 93.8719 44.7008 93.832 40.7762Z" fill="white"/>
<path d="M85.1662 34.0822C82.9349 31.9107 79.9267 30.835 76.4603 30.9346C72.9939 31.0342 70.3443 32.2693 68.3322 34.4807C66.3201 36.692 64.9256 40.4971 65.1447 44.4217V57.351L66.2006 56.2951C67.3527 54.8159 67.9706 52.9904 67.9537 51.1154L67.9139 41.8717C68.0531 39.7917 68.8641 37.8131 70.2248 36.2338C71.7189 34.4408 73.9103 33.6041 76.54 33.5244C79.1697 33.4447 81.64 34.2615 83.3533 35.9349C85.0666 37.6084 85.724 39.8795 85.724 42.3299V51.5338C85.7299 53.1521 86.3167 54.7144 87.3775 55.9365L88.5728 57.2912C88.5728 54.1834 88.5928 44.9795 88.5728 42.3299C88.5834 40.7975 88.2875 39.2784 87.7025 37.862C87.1175 36.4456 86.2551 35.1605 85.1662 34.0822Z" fill="white"/>
</g>
<defs>
<clipPath id="clip0_67_11488">
<rect width="100" height="100" fill="white"/>
</clipPath>
</defs>
</svg>
