<svg width="100" height="100" viewBox="0 0 100 100" fill="none" xmlns="http://www.w3.org/2000/svg">
<g clip-path="url(#clip0_67_11486)">
<path d="M55.7418 34.1976C55.7992 33.5927 48.6353 34.7162 47.1166 36.0702C47.1166 36.0702 45.598 40.8522 44.7957 41.3131C44.7957 41.3131 46.0279 39.1814 46.1712 36.992C46.1712 36.992 38.9788 41.5724 37.2881 47.6221C37.2881 47.6221 42.8186 44.8853 47.6898 45.7495C47.6898 45.7495 44.9104 43.7042 42.1022 43.1568C42.1022 43.1568 46.257 44.0211 49.2658 46.0088C52.0167 45.5479 54.8246 45.5479 57.5757 46.0088C57.5757 46.0088 55.6557 43.5025 49.2943 40.5066C49.2943 40.5066 57.4037 44.482 59.5814 46.3545C59.5814 46.3545 61.1 46.4697 66.5444 46.5562C68.4397 46.6447 70.3254 46.2377 72.0176 45.375C72.0176 45.375 70.4989 42.84 61.7591 39.7287C61.7591 39.7287 69.7252 41.9757 72.963 44.8277C72.963 44.8277 74.9975 43.9635 76.6023 41.2555C76.6023 41.2555 75.1407 39.1238 69.7252 38.5764C69.7252 38.5764 74.1953 38.7781 76.7167 39.9304C76.7167 39.9304 79.4964 36.0125 79.8975 32.8149L80.1266 31.0288C80.1266 31.0288 75.3128 33.5927 72.7051 33.6791C72.7051 33.6791 71.3871 36.4735 71.5017 36.8768C71.6164 37.2801 72.0176 34.745 72.2181 33.6791C72.2181 33.6791 67.2896 34.5434 65.0257 33.5927C65.0257 33.5927 65.9715 36.4446 63.6503 39.6999C63.6503 39.6999 65.7136 35.3212 64.3094 33.5927L56.9452 33.9384C56.9452 33.9384 55.7992 38.7781 53.7647 39.7863" fill="white"/>
<path d="M66.6299 37.2514L67.5468 34.2554H66.8878L66.6299 37.2514Z" fill="white"/>
<path d="M42.6193 41.6876L42.1035 41.63C42.2776 41.606 42.4549 41.6258 42.6193 41.6876Z" fill="white"/>
<mask id="mask0_67_11486" style="mask-type:luminance" maskUnits="userSpaceOnUse" x="42" y="41" width="1" height="1">
<path d="M42.6203 41.6877L42.1045 41.6301C42.2786 41.606 42.4558 41.6258 42.6203 41.6877Z" fill="white"/>
</mask>
<g mask="url(#mask0_67_11486)">
<path d="M42.6213 41.6877L42.1055 41.63C42.2795 41.606 42.4568 41.6258 42.6213 41.6877Z" fill="white"/>
</g>
<path d="M55.7425 34.1976C55.7998 33.5927 48.6363 34.7162 47.1176 36.0702C47.1176 36.0702 45.5987 40.8522 44.7964 41.3131C44.7964 41.3131 46.0286 39.1814 46.1719 36.992C46.1719 36.992 38.9797 41.5724 37.2891 47.6221C37.2891 47.6221 42.8193 44.8853 47.6905 45.7495C47.6905 45.7495 44.9111 43.7042 42.1029 43.1568C42.1029 43.1568 46.258 44.0211 49.2665 46.0088C52.0176 45.5479 54.8256 45.5479 57.5764 46.0088C57.5764 46.0088 55.6566 43.5025 49.2953 40.5066C49.2953 40.5066 57.4044 44.482 59.5823 46.3545C59.5823 46.3545 61.101 46.4697 66.5454 46.5562C68.4404 46.6447 70.3261 46.2377 72.0183 45.375C72.0183 45.375 70.4996 42.84 61.76 39.7287C61.76 39.7287 69.7259 41.9757 72.964 44.8277C72.964 44.8277 74.9985 43.9635 76.603 41.2555C76.603 41.2555 75.1417 39.1238 69.7259 38.5764C69.7259 38.5764 74.1959 38.7781 76.7177 39.9304C76.7177 39.9304 79.4971 36.0125 79.8982 32.8149L80.1276 31.0288C80.1276 31.0288 75.3138 33.5927 72.7061 33.6791C72.7061 33.6791 71.388 36.4735 71.5024 36.8768C71.6171 37.2801 72.0183 34.745 72.2188 33.6791C72.2188 33.6791 67.2903 34.5434 65.0267 33.5927C65.0267 33.5927 65.9722 36.4446 63.6513 39.6999C63.6513 39.6999 65.7143 35.3212 64.3103 33.5927L56.9459 33.9384C56.9459 33.9384 55.7998 38.7781 53.7654 39.7863" fill="white"/>
<path d="M37.9468 47.1035C37.9468 47.1035 41.1559 45.7496 41.9011 47.5644C42.2737 48.3999 41.4138 48.9472 41.4138 48.9472C41.4138 48.9472 42.0728 48.3422 41.0988 47.478C40.1245 46.6138 37.7174 47.6797 37.0869 48.3422L37.9468 47.1035Z" fill="white"/>
<mask id="mask1_67_11486" style="mask-type:luminance" maskUnits="userSpaceOnUse" x="37" y="46" width="5" height="3">
<path d="M37.9475 47.104C37.9475 47.104 41.1568 45.75 41.902 47.5649C42.2743 48.4003 41.4147 48.9477 41.4147 48.9477C41.4147 48.9477 42.0738 48.3427 41.0995 47.4785C40.1255 46.6143 37.7184 47.6802 37.0879 48.3427L37.9475 47.104Z" fill="white"/>
</mask>
<g mask="url(#mask1_67_11486)">
<path d="M37.9475 47.104C37.9475 47.104 41.1568 45.75 41.9017 47.5649C42.2743 48.4003 41.4147 48.9477 41.4147 48.9477C41.4147 48.9477 42.0738 48.3427 41.0995 47.4785C40.1252 46.6143 37.7181 47.6802 37.0879 48.3427L37.9475 47.104Z" fill="white"/>
</g>
<path d="M37.6623 47.161C37.6623 47.161 40.5567 43.0991 37.3474 42.6382C37.3474 42.6382 38.9234 43.1855 38.3787 44.8276C38.0213 45.8801 37.4883 46.864 36.8027 47.7371L37.6623 47.161Z" fill="white"/>
<mask id="mask2_67_11486" style="mask-type:luminance" maskUnits="userSpaceOnUse" x="36" y="42" width="3" height="6">
<path d="M37.6643 47.161C37.6643 47.161 40.5584 43.0991 37.349 42.6382C37.349 42.6382 38.925 43.1855 38.3807 44.8276C38.0229 45.8801 37.4899 46.864 36.8047 47.7371L37.6643 47.161Z" fill="white"/>
</mask>
<g mask="url(#mask2_67_11486)">
<path d="M37.6653 47.161C37.6653 47.161 40.5593 43.0991 37.35 42.6382C37.35 42.6382 38.926 43.1855 38.3817 44.8276C38.0239 45.8801 37.4909 46.864 36.8057 47.7371L37.6653 47.161Z" fill="white"/>
</g>
<path d="M37.2593 47.5644C37.2593 47.5644 38.4627 46.0376 37.3452 45.1446C36.2277 44.2515 35.5686 45.6343 35.7692 45.9512C35.9697 46.2681 36.285 44.9429 36.8294 45.375C37.3737 45.8071 37.0873 46.6714 37.0873 46.6714L36.3994 48.5439L37.2593 47.5644Z" fill="white"/>
<mask id="mask3_67_11486" style="mask-type:luminance" maskUnits="userSpaceOnUse" x="35" y="44" width="3" height="5">
<path d="M37.2603 47.5644C37.2603 47.5644 38.4637 46.0376 37.3462 45.1446C36.2287 44.2515 35.5695 45.6343 35.7701 45.9512C35.9707 46.2681 36.286 44.9429 36.8304 45.3751C37.3747 45.8072 37.0883 46.6714 37.0883 46.6714L36.4004 48.5439L37.2603 47.5644Z" fill="white"/>
</mask>
<g mask="url(#mask3_67_11486)">
<path d="M37.261 47.5644C37.261 47.5644 38.4647 46.0376 37.3472 45.1446C36.2297 44.2515 35.5705 45.6343 35.7711 45.9512C35.9717 46.2681 36.287 44.9429 36.8313 45.375C37.3757 45.8071 37.0893 46.6714 37.0893 46.6714L36.4014 48.5439L37.261 47.5644Z" fill="white"/>
</g>
<path d="M36.0844 48.4863C42.3599 39.7287 50.0678 39.7287 57.7187 39.6423C65.0255 39.5847 73.1633 39.5847 79.9546 31C73.1633 39.5847 66.2291 39.6423 58.8935 39.988C55.7415 40.1608 43.6779 38.634 36.8293 48.8896L34.7663 52.6634L34.709 50.5316C34.7663 50.5892 35.4253 49.3505 36.0844 48.4863Z" fill="white"/>
<mask id="mask4_67_11486" style="mask-type:luminance" maskUnits="userSpaceOnUse" x="34" y="31" width="46" height="22">
<path d="M36.0834 48.4863C42.3587 39.7287 50.0669 39.7287 57.7175 39.6423C65.0246 39.5847 73.1625 39.5847 79.9534 31C73.1625 39.5847 66.228 39.6423 58.8924 39.988C55.7404 40.1608 43.6768 38.634 36.8285 48.8896L34.7653 52.6634L34.708 50.5316C34.7653 50.5892 35.4244 49.3505 36.0834 48.4863Z" fill="white"/>
</mask>
<g mask="url(#mask4_67_11486)">
<path d="M36.0834 48.4863C42.3589 39.7287 50.0668 39.7287 57.7177 39.6423C65.0245 39.5847 73.1623 39.5847 79.9536 31C73.1623 39.5847 66.2281 39.6423 58.8925 39.988C55.7405 40.1608 43.6769 38.634 36.8283 48.8896L34.7653 52.6634L34.708 50.5316C34.7653 50.5892 35.4244 49.3505 36.0834 48.4863Z" fill="white"/>
</g>
<path d="M63.335 41.1113C63.335 41.1113 68.0629 42.6381 70.4412 45.0292C70.4412 45.0292 69.0658 46.0374 66.3437 45.8358C66.3437 45.8358 70.2694 44.2226 63.335 41.1113Z" fill="white"/>
<path d="M63.0474 38.2596C63.0474 38.2596 64.165 36.1855 63.5918 34.1978L61.0703 34.2842C61.0703 34.2842 64.5661 34.1978 63.0474 38.2596Z" fill="white"/>
<path d="M75.7426 41.3709C75.7426 41.3709 72.5048 38.9223 69.2666 39.2968C69.2666 39.2968 72.7053 39.5272 74.9977 42.0911C75.055 42.0911 75.3127 42.0335 75.7426 41.3709Z" fill="white"/>
<path d="M14.3929 52.3467H16.2268V52.5772C15.6537 52.5772 15.3671 52.9228 15.3671 53.5854V53.7295L15.7683 58.5115C15.7689 58.8641 15.8575 59.2108 16.0262 59.5198C16.2177 59.7111 16.473 59.824 16.7425 59.8367V60.0383H13.9344V59.8367C14.0525 59.8356 14.1687 59.8063 14.2733 59.7512C14.3779 59.6961 14.468 59.6168 14.5362 59.5198C14.6868 59.3324 14.7679 59.0982 14.7654 58.8572V58.6556L14.3356 53.643L11.6707 60.096H11.4701L8.83389 53.7295L8.37542 58.5115V58.7132C8.3514 58.9992 8.44005 59.2832 8.62226 59.5041C8.80448 59.725 9.0657 59.8651 9.34967 59.8943H9.37833V60.096H7V59.8943C7.13832 59.8835 7.27305 59.8448 7.39614 59.7804C7.51923 59.7161 7.62814 59.6275 7.71636 59.5198C7.89746 59.1936 7.99587 58.8275 8.00291 58.4539L8.46138 53.1245C8.19626 52.8304 7.84506 52.6287 7.45847 52.5483V52.3467H9.43564L11.9286 58.4539L14.3929 52.3467Z" fill="white"/>
<path d="M20.1234 59.1166V57.5033L19.5217 57.705C19.1745 57.7901 18.8573 57.9694 18.6047 58.2235C18.5227 58.3109 18.4618 58.4162 18.427 58.5312C18.3922 58.6461 18.3844 58.7676 18.4041 58.8861C18.3881 59.0956 18.4539 59.3031 18.5877 59.4645C18.7215 59.6259 18.9127 59.7284 19.1205 59.7503C19.3148 59.747 19.504 59.6869 19.665 59.5775C19.8578 59.4701 20.0166 59.3104 20.1234 59.1166ZM18.8053 60.2401C18.6313 60.2518 18.4567 60.2279 18.2921 60.1698C18.1275 60.1118 17.9763 60.0207 17.8478 59.9022C17.7192 59.7838 17.6159 59.6403 17.544 59.4805C17.4722 59.3206 17.4334 59.1479 17.4299 58.9725C17.4193 58.8174 17.4479 58.6621 17.513 58.5211C17.5781 58.3801 17.6777 58.2579 17.8024 58.1659C18.2286 57.8776 18.7049 57.6724 19.2065 57.561L20.1234 57.2441V56.8984C20.1245 56.5817 20.0126 56.2751 19.8082 56.0341C19.7117 55.9336 19.5959 55.8537 19.4679 55.7992C19.3399 55.7448 19.2022 55.7169 19.0632 55.7173C18.7839 55.7151 18.5117 55.8063 18.2895 55.9765C18.0682 56.1767 17.909 56.4367 17.8311 56.7255H17.6018C17.6609 56.3064 17.8759 55.9255 18.2036 55.6596C18.5022 55.3655 18.9031 55.2002 19.3211 55.1987C19.7815 55.2023 20.2267 55.3651 20.5819 55.6596C20.7389 55.8293 20.8604 56.0289 20.9392 56.2466C21.0179 56.4644 21.0524 56.6958 21.0404 56.9272V58.9725C21.0165 59.176 21.036 59.3822 21.0977 59.5775C21.1046 59.6258 21.1288 59.67 21.1657 59.7018C21.2026 59.7336 21.2497 59.7508 21.2983 59.7503C21.3269 59.7503 21.4415 59.6927 21.4415 59.6351C21.5014 59.5254 21.5494 59.4095 21.5848 59.2894H21.8427C21.8563 59.4225 21.8343 59.5567 21.7789 59.6783C21.7234 59.7999 21.6366 59.9044 21.5275 59.9808C21.4402 60.0658 21.337 60.1324 21.2238 60.1769C21.1107 60.2215 20.9899 60.243 20.8684 60.2401C20.4673 60.2401 20.2094 60.0384 20.0661 59.5775C19.8869 59.7909 19.6851 59.984 19.4644 60.1537C19.2497 60.2126 19.0279 60.2415 18.8053 60.2401Z" fill="white"/>
<path d="M26.9721 55.1694H27.1727V59.1737C27.1487 59.3769 27.1997 59.5819 27.316 59.7498C27.5143 59.8687 27.7456 59.9193 27.9751 59.8939V60.0955L26.2558 60.182V59.3177C26.076 59.5974 25.8301 59.8279 25.5401 59.9888C25.2501 60.1497 24.925 60.2357 24.5938 60.2395C24.3849 60.2532 24.1757 60.2189 23.982 60.139C23.7884 60.0592 23.6154 59.9359 23.4763 59.7787C23.3193 59.6331 23.1966 59.4541 23.1173 59.2547C23.038 59.0553 23.004 58.8406 23.0178 58.6264V56.1777C23.0306 56.0813 23.019 55.9831 22.9839 55.8925C22.9488 55.8018 22.8915 55.7215 22.8172 55.6592C22.619 55.5403 22.3876 55.4897 22.1582 55.5151V55.3135L23.6769 55.1694H23.9348V58.5687C23.9231 58.7073 23.9392 58.8468 23.9822 58.979C24.0252 59.1111 24.0942 59.2332 24.1851 59.3381C24.276 59.4429 24.3869 59.5282 24.5112 59.5891C24.6356 59.6499 24.7709 59.685 24.909 59.6922H25.0236C25.4821 59.6922 25.9119 59.4329 26.3131 58.9144V56.3217C26.3131 55.976 26.2558 55.7744 26.1412 55.7168C26.0552 55.6015 25.7973 55.5727 25.3961 55.5727V55.3711L26.9721 55.1694Z" fill="white"/>
<path d="M30.1532 55.1696V56.1778C30.4676 55.8847 30.8028 55.6151 31.1561 55.3712C31.3407 55.2319 31.5578 55.1426 31.7865 55.1119C31.9455 55.1097 32.1032 55.139 32.2508 55.1983C32.3983 55.2577 32.5327 55.3458 32.6462 55.4576L32.2737 56.3219C31.9389 56.0989 31.5555 55.9605 31.1561 55.9186C30.7744 55.9946 30.4247 56.1855 30.1532 56.4659V59.1162C30.1292 59.3194 30.1802 59.5244 30.2965 59.6924C30.4842 59.8111 30.7066 59.8619 30.9269 59.8364V60.0381H28.3766V59.8364C28.6061 59.8618 28.8375 59.8112 29.0357 59.6924C29.1503 59.5771 29.179 59.3179 29.179 58.9146V56.2642C29.2044 56.15 29.2047 56.0315 29.18 55.9171C29.1552 55.8027 29.106 55.695 29.0357 55.6017C28.7868 55.4796 28.5089 55.4297 28.2334 55.4576V55.256L29.8954 55.1119H30.1532" fill="white"/>
<path d="M34.6521 52.7212C34.7261 52.7211 34.7993 52.7362 34.8673 52.7654C34.9353 52.7947 34.9966 52.8376 35.0476 52.8915C35.0985 52.9455 35.138 53.0093 35.1636 53.079C35.1892 53.1488 35.2004 53.2231 35.1966 53.2974C35.1966 53.3717 35.1817 53.4453 35.1525 53.5137C35.1234 53.582 35.0807 53.6437 35.0271 53.6949C34.9735 53.7462 34.91 53.7859 34.8406 53.8116C34.7712 53.8373 34.6973 53.8486 34.6234 53.8447C34.4836 53.8304 34.3525 53.7696 34.2509 53.6719C34.1349 53.5684 34.063 53.4239 34.0504 53.2685C34.0525 53.1166 34.1143 52.9716 34.2223 52.8652C34.3481 52.7752 34.4977 52.725 34.6521 52.7212ZM34.8814 55.1699H35.1106V59.1741C35.1106 59.4334 35.1679 59.635 35.2825 59.6926C35.4584 59.8141 35.6728 59.8654 35.8843 59.8367V60.0384H33.248V59.8367C33.505 59.8615 33.7636 59.8115 33.993 59.6926C34.1159 59.5492 34.1777 59.363 34.165 59.1741V56.2645C34.165 55.9765 34.1077 55.7748 33.993 55.7172C33.8784 55.6596 33.6492 55.5731 33.248 55.5731V55.3715L34.8814 55.1699Z" fill="white"/>
<path d="M40.9847 55.1696V56.8405H40.7553C40.6694 56.4375 40.4706 56.0677 40.1824 55.7746C40.0424 55.6381 39.8768 55.531 39.6948 55.4598C39.5132 55.3886 39.3193 55.3547 39.1243 55.3601C38.9293 55.3655 38.7374 55.41 38.5599 55.4911C38.3823 55.5722 38.2228 55.6882 38.0906 55.8322L38.0045 55.9186C37.6968 56.3343 37.5355 56.841 37.546 57.359C37.5314 57.9577 37.7128 58.5447 38.0618 59.0299C38.2009 59.241 38.3878 59.4162 38.6067 59.5413C38.8256 59.6664 39.071 59.738 39.3225 59.7501C39.6599 59.7216 39.9897 59.6338 40.2968 59.4908C40.6208 59.323 40.8968 59.0752 41.0994 58.7706V59.1163C40.8694 59.4649 40.5527 59.7468 40.1807 59.9338C39.8084 60.1208 39.3941 60.2065 38.9788 60.1822C38.6821 60.2057 38.3835 60.1686 38.1014 60.0731C37.8193 59.9776 37.5594 59.8257 37.3373 59.6265C37.1149 59.4274 36.9353 59.1851 36.8086 58.9142C36.682 58.6433 36.6113 58.3495 36.6005 58.0504C36.572 57.9663 36.572 57.8752 36.6005 57.7911C36.5781 57.1007 36.8249 56.4289 37.2881 55.9186C37.5093 55.6754 37.7797 55.4827 38.0813 55.3535C38.3829 55.2243 38.7083 55.1616 39.0361 55.1696C39.381 55.1638 39.7231 55.2326 40.0389 55.3713L40.383 55.4577C40.4561 55.4539 40.5259 55.4267 40.5827 55.38C40.6395 55.3334 40.6799 55.2698 40.698 55.1985H40.9847" fill="white"/>
<path d="M42.8177 56.9271H45.3965V56.8407C45.4154 56.6576 45.3944 56.4725 45.3351 56.2984C45.2757 56.1243 45.1793 55.9653 45.0527 55.8324C44.9328 55.711 44.7898 55.6153 44.6324 55.5509C44.4746 55.4866 44.3058 55.4549 44.1358 55.4579C43.9634 55.4569 43.7926 55.4923 43.6348 55.5617C43.4767 55.6312 43.3349 55.7332 43.2188 55.8612C42.9629 56.157 42.8206 56.535 42.8177 56.9271ZM46.3708 58.886V59.2317C46.1126 59.5296 45.8247 59.7999 45.5112 60.0383C45.1834 60.2082 44.8198 60.2971 44.451 60.2977C44.1122 60.3123 43.7742 60.2562 43.4584 60.1321C43.1425 60.0081 42.8561 59.8191 42.6171 59.5774C42.3749 59.3504 42.1854 59.0729 42.0617 58.7643C41.938 58.4557 41.883 58.1236 41.9007 57.7913C41.9039 57.1173 42.1598 56.4693 42.6171 55.9764C42.8287 55.7272 43.0928 55.5281 43.39 55.3936C43.6872 55.2591 44.0103 55.1925 44.3363 55.1986C44.8734 55.2233 45.3872 55.4258 45.7976 55.7748C45.9961 55.9328 46.1563 56.1343 46.2654 56.364C46.3749 56.5936 46.4305 56.8453 46.4281 57.0999V57.1863H42.9324V57.244C42.9344 57.7167 43.022 58.1852 43.1903 58.6267C43.3073 58.9968 43.5509 59.3132 43.8778 59.5198C44.1582 59.7398 44.4973 59.8703 44.8521 59.8943C45.133 59.903 45.4108 59.8332 45.6544 59.6926C45.7117 59.5198 46.027 59.2893 46.3708 58.886Z" fill="white"/>
<path d="M51.3857 56.495H53.5634L52.5032 53.2397L51.3857 56.495ZM53.8786 60.0959V59.8943C54.3083 59.8943 54.5377 59.7503 54.5377 59.4334C54.5324 59.3257 54.5129 59.2191 54.4803 59.1165L53.764 56.9847H51.271L50.784 58.5691C50.6606 58.841 50.5925 59.1347 50.5834 59.4334C50.5834 59.7503 50.784 59.9519 51.1851 59.9519V60.1536H49.208V59.9519C49.4572 59.9257 49.6901 59.8138 49.867 59.635C50.0726 59.348 50.2455 59.0388 50.3829 58.7132L52.5032 52.3179H53.3055L55.5405 58.9724C55.6112 59.2599 55.7486 59.5265 55.9416 59.7503C56.1605 59.87 56.4103 59.9202 56.658 59.8943V60.0959H53.8786Z" fill="white"/>
<path d="M58.7219 55.1696V56.1202C59.2947 55.4577 59.8394 55.1696 60.4411 55.1696C60.6559 55.1572 60.871 55.1891 61.0731 55.2634C61.2751 55.3378 61.4599 55.4529 61.6159 55.6017C61.7752 55.7757 61.8977 55.9801 61.9766 56.2029C62.0555 56.4257 62.0887 56.6621 62.0744 56.8981V59.0874C62.0491 59.3181 62.0995 59.5507 62.2176 59.75C62.4159 59.8689 62.6473 59.9194 62.8767 59.8941V60.0957H60.3552V59.8941C60.5802 59.9002 60.8044 59.861 61.0143 59.7788C61.071 59.7238 61.1138 59.6558 61.1388 59.5805C61.1639 59.5053 61.1703 59.425 61.1575 59.3467V56.7828C61.1697 56.6356 61.1502 56.4875 61.101 56.3484C61.0515 56.2093 60.9729 56.0824 60.871 55.9762C60.6635 55.774 60.3861 55.6604 60.0973 55.6593C59.6388 55.6593 59.1803 55.9762 58.7219 56.5812V58.9146C58.6878 59.1861 58.7487 59.461 58.8936 59.6924C59.0913 59.8133 59.3233 59.864 59.5527 59.8364V60.0381H57.0027V59.8364C57.375 59.8364 57.6044 59.7788 57.6617 59.6924C57.7188 59.606 57.7761 59.3179 57.7761 58.9146V56.2643C57.7901 56.1659 57.7819 56.0657 57.7522 55.9709C57.7225 55.8762 57.6719 55.7894 57.6044 55.717C57.5097 55.6495 57.4026 55.602 57.2894 55.5772C57.1762 55.5525 57.0591 55.551 56.9453 55.5729V55.3712L58.4351 55.1984H58.7219" fill="white"/>
<path d="M67.2882 59.1736V56.264C67.1039 56.0266 66.8812 55.822 66.6291 55.6591C66.405 55.5218 66.1465 55.4518 65.8842 55.4574C65.6732 55.4541 65.4647 55.5054 65.2793 55.6063C65.0936 55.7072 64.9367 55.8543 64.824 56.0336C64.5379 56.4476 64.3877 56.9411 64.3941 57.4451C64.3673 58.0901 64.5705 58.7236 64.9673 59.2312C65.1495 59.4555 65.3824 59.6326 65.6467 59.7478C65.9107 59.8631 66.1986 59.9131 66.4859 59.8938C66.5817 59.908 66.6792 59.9026 66.7726 59.8778C66.8664 59.853 66.954 59.8095 67.0303 59.7497C67.1246 59.6894 67.1991 59.6027 67.2448 59.5004C67.2908 59.398 67.3056 59.2845 67.2882 59.1736ZM68.0046 51.5972H68.2051V59.1736C68.1813 59.3768 68.2322 59.5818 68.3483 59.7497C68.5352 59.8707 68.7585 59.9217 68.9789 59.8938V60.0955H66.1707C65.4345 60.1264 64.7152 59.8681 64.165 59.3753C63.9109 59.155 63.7094 58.8801 63.5755 58.5709C63.4416 58.2617 63.3785 57.9262 63.3913 57.5892C63.3744 56.948 63.6113 56.3263 64.0503 55.8607C64.2526 55.644 64.4966 55.4709 64.7676 55.352C65.0386 55.2332 65.3306 55.171 65.6263 55.1693C66.2009 55.2011 66.7558 55.3904 67.2308 55.7167V52.7783C67.2602 52.5537 67.2308 52.3252 67.145 52.1157C67.0763 52.0517 66.9945 52.0032 66.9057 51.9733C66.8166 51.9435 66.7226 51.9331 66.6291 51.9429H66.3712V51.7412L68.0046 51.5972Z" fill="white"/>
<path d="M71.1867 55.1696V56.1778C71.5051 55.8777 71.8504 55.6077 72.218 55.3712C72.3895 55.2278 72.5985 55.1377 72.8197 55.1119C72.9787 55.1097 73.1364 55.139 73.284 55.1983C73.4316 55.2577 73.5661 55.3458 73.6796 55.4576L73.3355 56.3219C72.9985 56.1037 72.6162 55.9658 72.218 55.9186C71.8256 55.9872 71.4644 56.1787 71.1867 56.4659V59.1162C71.1861 59.3211 71.2458 59.5216 71.3584 59.6924C71.5342 59.8138 71.7488 59.8651 71.9601 59.8364V60.0381H69.4101V59.8364C69.6395 59.864 69.8715 59.8133 70.0692 59.6924C70.2141 59.461 70.275 59.186 70.2409 58.9146V56.2642C70.2703 56.0294 70.2089 55.7921 70.0692 55.6017C69.82 55.4796 69.5423 55.4297 69.2666 55.4576V55.256L70.9288 55.1119H71.1867" fill="white"/>
<path d="M75.1402 56.9271H77.7193V56.8407C77.7382 56.6576 77.7173 56.4725 77.6579 56.2984C77.5985 56.1243 77.5022 55.9653 77.3755 55.8324C77.2576 55.7082 77.115 55.6105 76.9569 55.546C76.7989 55.4814 76.6289 55.4514 76.4586 55.4579C76.286 55.4569 76.1154 55.4923 75.9573 55.5617C75.7995 55.6312 75.6578 55.7332 75.5416 55.8612C75.3128 56.1726 75.174 56.5414 75.1402 56.9271ZM78.7507 58.886V59.2317C78.4928 59.5296 78.2046 59.7999 77.8911 60.0383C77.5621 60.2052 77.1994 60.2939 76.8309 60.2977C76.4923 60.3123 76.1541 60.2562 75.8383 60.1321C75.5227 60.0081 75.236 59.8191 74.997 59.5774C74.7551 59.3504 74.5656 59.0729 74.4416 58.7643C74.3179 58.4557 74.2628 58.1236 74.2806 57.7913C74.2838 57.1173 74.5397 56.4693 74.997 55.9764C75.2086 55.7272 75.4726 55.5281 75.7698 55.3936C76.0671 55.2591 76.3905 55.1925 76.7162 55.1986C77.2533 55.2233 77.7671 55.4258 78.1778 55.7748C78.3763 55.9328 78.5364 56.1343 78.6456 56.364C78.7547 56.5936 78.8103 56.8453 78.808 57.0999V57.1863H75.3122V57.244C75.3187 57.7139 75.3958 58.1801 75.5416 58.6267C75.6796 58.9934 75.9308 59.3063 76.2577 59.5198C76.5381 59.7398 76.8775 59.8703 77.232 59.8943C77.5126 59.9 77.7898 59.8304 78.0346 59.6926C78.0916 59.5198 78.3784 59.2893 78.7507 58.886Z" fill="white"/>
<path d="M81.5306 55.314V55.5156C81.1868 55.5156 81.0148 55.602 81.0148 55.8325C81.0436 55.9695 81.0817 56.1043 81.1295 56.2358L82.1896 58.9149L83.3071 56.0342C83.2454 55.8627 83.136 55.7127 82.9919 55.602C82.8664 55.5431 82.7293 55.5136 82.5908 55.5156V55.314H84.8831V55.5156C84.482 55.5156 84.2815 55.6596 84.2815 55.8613C84.2614 55.9676 84.2713 56.0774 84.31 56.1782L85.3704 58.8861L86.3444 56.3799C86.4257 56.2195 86.4652 56.0411 86.4591 55.8613C86.4591 55.6309 86.2301 55.458 85.8289 55.458V55.2563H87.7199V55.458C87.4722 55.4321 87.2224 55.4823 87.0038 55.602C86.832 55.8187 86.6967 56.062 86.6024 56.3222L85.1411 60.096H84.9405L83.4218 56.3222L81.9032 60.096H81.6738L80.0119 55.9765C79.9406 55.8106 79.8192 55.6713 79.665 55.5782C79.511 55.4852 79.3317 55.4432 79.1523 55.458V55.2563H81.5306" fill="white"/>
<path d="M91.5014 55.1696V56.6387H91.2723C91.2482 56.3049 91.0936 55.9943 90.8424 55.7745C90.7361 55.6709 90.6107 55.5896 90.473 55.5352C90.3353 55.4808 90.188 55.4544 90.0401 55.4577C89.9406 55.4529 89.841 55.4684 89.7476 55.503C89.6541 55.5377 89.5683 55.5908 89.4958 55.6593C89.4239 55.7107 89.3674 55.7807 89.3319 55.8619C89.2967 55.9431 89.2839 56.0324 89.2952 56.1202C89.2847 56.2165 89.2975 56.3138 89.3325 56.4041C89.3674 56.4943 89.4233 56.5748 89.4958 56.6387C89.7552 56.846 90.0451 57.0113 90.3554 57.1285C90.7903 57.2984 91.1821 57.5642 91.5014 57.9063C91.7232 58.1765 91.8321 58.5224 91.8053 58.8716C91.7786 59.2207 91.6185 59.5459 91.3582 59.7788C91.224 59.9268 91.0601 60.0445 90.8773 60.124C90.6948 60.2034 90.4972 60.243 90.2981 60.2398C89.9965 60.2151 89.7036 60.1267 89.4384 59.9805C89.3229 59.9219 89.1951 59.8923 89.0658 59.894C88.991 59.8979 88.9197 59.9286 88.8653 59.9805C88.8111 60.0561 88.7811 60.1466 88.7794 60.2398H88.5215V58.6265H88.7794C88.8434 59.0144 89.0353 59.3694 89.3237 59.6348C89.593 59.8703 89.9415 59.9939 90.2981 59.9805C90.526 59.9805 90.7446 59.8894 90.9059 59.7273C91.0671 59.5652 91.1576 59.3454 91.1576 59.1162C91.162 58.8974 91.0913 58.6837 90.9571 58.5113C90.6698 58.2682 90.3394 58.0824 89.9828 57.9639C89.5799 57.7996 89.2032 57.5764 88.8653 57.3014C88.6729 57.0419 88.5867 56.7184 88.624 56.397C88.6612 56.0757 88.8193 55.7808 89.0658 55.5729C89.3485 55.3152 89.7159 55.1715 90.0975 55.1696C90.3076 55.1581 90.5167 55.2081 90.6992 55.3136C90.8057 55.3688 90.9233 55.3984 91.043 55.4C91.215 55.4 91.2723 55.3712 91.3582 55.1984H91.5014" fill="white"/>
<path d="M24.9956 63.4376H25.1389V64.734H24.9956C24.9741 64.4197 24.842 64.1236 24.6231 63.8985C24.5186 63.7942 24.3925 63.7144 24.2539 63.6647C24.1152 63.6147 23.9673 63.5963 23.8208 63.6103C23.5656 63.5884 23.3111 63.66 23.1044 63.812C22.9631 63.9626 22.8728 64.1543 22.8465 64.3595C22.8477 64.5823 22.9291 64.7971 23.0758 64.9643C23.3375 65.2683 23.6596 65.5135 24.0214 65.6845C24.5944 66.059 24.9956 66.2896 25.1389 66.5489C25.339 66.7924 25.4503 67.0973 25.4541 67.413C25.4537 67.6126 25.4129 67.8102 25.334 67.9935C25.2552 68.1768 25.1401 68.3419 24.9956 68.479C24.8761 68.6477 24.7164 68.7833 24.5312 68.8739C24.346 68.9645 24.1411 69.0069 23.9354 68.9976C23.6199 68.9885 23.3088 68.9201 23.0184 68.7959L22.7032 68.6807C22.6173 68.6807 22.56 68.7383 22.5027 68.911H22.3594V67.4705H22.5027C22.4945 67.6468 22.523 67.8228 22.5863 67.9873C22.6497 68.1519 22.7465 68.3013 22.8706 68.4258C22.9946 68.5506 23.1432 68.648 23.3069 68.7117C23.4705 68.7754 23.6455 68.804 23.8208 68.7959C24.1001 68.7979 24.3722 68.7067 24.5944 68.5366C24.6966 68.4486 24.776 68.3372 24.8259 68.2118C24.8758 68.0864 24.8947 67.9508 24.881 67.8163C24.8627 67.5919 24.7721 67.3796 24.6231 67.2113C24.3263 66.9146 23.9886 66.6623 23.6202 66.4624C23.325 66.301 23.0547 66.097 22.8179 65.8573C22.6706 65.7144 22.5621 65.5358 22.5027 65.339C22.4438 65.1525 22.4148 64.9582 22.4167 64.7629C22.403 64.5752 22.432 64.3867 22.5015 64.2122C22.571 64.0374 22.6792 63.881 22.8179 63.7544C22.958 63.6182 23.1243 63.5124 23.3066 63.4428C23.4889 63.3736 23.6834 63.3423 23.8781 63.3511C24.133 63.3543 24.3852 63.4031 24.6231 63.4952L24.881 63.5527L24.9956 63.4952V63.4376Z" fill="white"/>
<path d="M28.0327 66.2028C28.0098 66.8695 28.2007 67.526 28.5771 68.0753C28.7283 68.2717 28.9169 68.436 29.1319 68.5585C29.3468 68.6813 29.5839 68.7593 29.8292 68.7888C30.0746 68.8183 30.3233 68.7985 30.5609 68.7304C30.7986 68.6623 31.0203 68.5474 31.2133 68.3922L31.5285 68.0753C31.9045 67.5474 32.0959 66.9093 32.073 66.2604C32.1 65.5843 31.9091 64.9175 31.5285 64.3592C31.3566 64.1432 31.1386 63.969 30.8905 63.8494C30.6425 63.7296 30.3709 63.6676 30.0958 63.6679C29.8145 63.6539 29.5341 63.7097 29.2793 63.8301C29.0245 63.9508 28.8031 64.1324 28.6344 64.3592C28.176 64.8202 28.0327 65.4249 28.0327 66.2028ZM27.2304 66.2028C27.2074 65.8321 27.2676 65.4612 27.4064 65.1171C27.5453 64.7731 27.7593 64.4647 28.0327 64.2151C28.5814 63.6916 29.3107 63.4025 30.0671 63.4086C30.4358 63.3855 30.8048 63.446 31.1471 63.5854C31.4893 63.7252 31.796 63.9403 32.0443 64.2151C32.3057 64.4741 32.5117 64.7839 32.6496 65.1256C32.7876 65.4676 32.8546 65.8342 32.8466 66.2028C32.8618 66.5725 32.7979 66.9411 32.6596 67.284C32.5212 67.6269 32.3114 67.9359 32.0443 68.1905C31.7781 68.4576 31.4602 68.6672 31.1103 68.8058C30.7603 68.9446 30.3858 69.0098 30.0099 68.9972C29.6405 69.0136 29.2718 68.9525 28.9272 68.8178C28.5827 68.6833 28.2697 68.4778 28.0083 68.215C27.7469 67.9522 27.5427 67.6377 27.4088 67.2913C27.2749 66.9449 27.2141 66.5743 27.2304 66.2028Z" fill="white"/>
<path d="M38.7783 67.7298H38.9215L38.6062 68.9107H34.7666V68.738C34.854 68.7494 34.9428 68.7365 35.0236 68.7009C35.1043 68.6655 35.1739 68.6085 35.2251 68.5363C35.3459 68.3171 35.396 68.0654 35.3684 67.816V64.4744C35.3969 64.2619 35.3459 64.0464 35.2251 63.8696C35.1 63.7547 34.9358 63.693 34.7666 63.6966V63.5527H36.6865V63.6966C36.5997 63.6933 36.5136 63.7097 36.4341 63.7445C36.3546 63.7796 36.2842 63.8322 36.228 63.8982C36.1098 64.0976 36.0594 64.3303 36.0847 64.5609V68.1329C36.0785 68.2764 36.1188 68.4179 36.1995 68.5363C36.3275 68.6178 36.4775 68.6582 36.6291 68.6515H37.7181C37.9516 68.6813 38.1876 68.6193 38.3772 68.4787C38.5492 68.2519 38.6845 67.999 38.7783 67.7298Z" fill="white"/>
<path d="M42.0736 63.5527V63.6966C41.873 63.6966 41.6439 63.7541 41.6151 63.8982C41.4888 64.095 41.4285 64.3274 41.4434 64.5609V67.8739C41.4285 68.1075 41.4888 68.3396 41.6151 68.5363C41.6716 68.6026 41.742 68.6553 41.8212 68.69C41.9007 68.7251 41.9871 68.7415 42.0736 68.738V68.9107H40.125V68.738C40.3829 68.738 40.5549 68.6804 40.5835 68.5363C40.6123 68.3922 40.6982 68.1908 40.6982 67.8739V64.5609C40.6996 64.335 40.6606 64.1105 40.5835 63.8982C40.4615 63.7755 40.2976 63.7036 40.125 63.6966V63.5527H42.0736Z" fill="white"/>
<path d="M48.4344 63.4662V65.0219H48.2911C48.2195 64.6071 48.0068 64.2303 47.6892 63.9561C47.3745 63.7009 46.9745 63.5773 46.5716 63.6103C46.2971 63.5928 46.0223 63.6442 45.7723 63.76C45.5222 63.8755 45.3045 64.0517 45.1389 64.273C44.7898 64.7784 44.6184 65.3867 44.6519 66.0014C44.6286 66.686 44.819 67.3609 45.1962 67.9315C45.3581 68.1674 45.5773 68.3577 45.8334 68.4837C46.0893 68.61 46.3731 68.6678 46.6578 68.6518C47.0517 68.6538 47.4379 68.5442 47.7727 68.3352C48.1072 68.1262 48.3761 67.8266 48.5488 67.4705L48.6923 67.6147C48.5135 68.0379 48.2146 68.3986 47.8327 68.6518C47.4164 68.8967 46.939 69.0169 46.4572 68.9973C45.9953 68.999 45.5412 68.8798 45.1389 68.6518C44.7575 68.4214 44.4338 68.106 44.1934 67.7298C43.9704 67.3019 43.8432 66.8298 43.8208 66.3472C43.7966 65.5802 44.0746 64.8348 44.5945 64.273C44.8428 63.9982 45.1496 63.7831 45.4917 63.6434C45.834 63.5036 46.2031 63.4431 46.5716 63.4662C46.9108 63.4694 47.2482 63.518 47.5748 63.6103L48.0332 63.6969C48.0941 63.7164 48.1602 63.7123 48.2184 63.6857C48.2766 63.6591 48.3229 63.6118 48.3482 63.5527H48.4344" fill="white"/>
<path d="M52.0451 63.5527V63.6966C51.8445 63.6966 51.6439 63.7541 51.5866 63.8982C51.4684 64.0976 51.418 64.3303 51.4434 64.5609V67.8739C51.418 68.1046 51.4684 68.3369 51.5866 68.5363C51.6428 68.6026 51.7132 68.6553 51.7927 68.69C51.8722 68.7251 51.9583 68.7415 52.0451 68.738V68.9107H50.125V68.738C50.3829 68.738 50.5264 68.6804 50.5835 68.5363C50.6408 68.3922 50.6696 68.1908 50.6696 67.8739V64.5609C50.6673 64.3373 50.6385 64.1148 50.5835 63.8982C50.4615 63.7755 50.2976 63.7036 50.125 63.6966V63.5527H52.0451Z" fill="white"/>
<path d="M56.9452 63.812H56.143V67.9315C56.1368 68.1581 56.1759 68.3831 56.2577 68.5942C56.3167 68.6538 56.3892 68.698 56.469 68.7231C56.549 68.7482 56.6337 68.7535 56.7161 68.7383V68.9111H54.8249V68.7383C55.0828 68.7383 55.226 68.7094 55.2834 68.5366C55.3788 68.3297 55.4184 68.1011 55.3977 67.874V63.812H54.6243C54.3486 63.7872 54.0718 63.8369 53.8218 63.9562C53.6518 64.1163 53.5409 64.3294 53.5068 64.5612H53.3633V63.3511H53.6212C53.8532 63.5192 54.1405 63.5913 54.4237 63.5528H57.1746C57.4756 63.587 57.7792 63.5156 58.0342 63.3511H58.1774V64.5612H58.0627C58.0502 64.4417 58.0133 64.3265 57.9542 64.2221C57.8951 64.1181 57.8147 64.0275 57.7189 63.9562C57.48 63.8351 57.2116 63.7851 56.9452 63.812Z" fill="white"/>
<path d="M60.413 66.2029C60.39 66.8697 60.581 67.5259 60.9574 68.0754C61.1084 68.2719 61.2971 68.4361 61.5119 68.5586C61.727 68.6811 61.964 68.7594 62.2094 68.789C62.4548 68.8185 62.7034 68.7986 62.9412 68.7305C63.1787 68.6624 63.4005 68.5472 63.5935 68.3923L63.9088 68.0754C64.2642 67.5215 64.4531 66.8764 64.4531 66.2172C64.4531 65.5581 64.2642 64.913 63.9088 64.359C63.7367 64.1433 63.5187 63.9691 63.2707 63.8493C63.0227 63.7297 62.7511 63.6677 62.476 63.6677C62.1948 63.654 61.9145 63.7095 61.6595 63.8303C61.4048 63.9507 61.1833 64.1325 61.0147 64.359C60.5562 64.82 60.413 65.4251 60.413 66.2029ZM59.5819 66.2029C59.5723 65.8311 59.6413 65.4619 59.7848 65.119C59.9281 64.7765 60.142 64.4684 60.413 64.2152C60.9545 63.6984 61.6723 63.4099 62.4187 63.4085C62.7875 63.3833 63.1572 63.4427 63.4998 63.5827C63.8424 63.7224 64.1489 63.9387 64.3958 64.2152C64.6668 64.4684 64.8808 64.7765 65.024 65.119C65.1672 65.4619 65.2365 65.8311 65.2269 66.2029C65.2443 66.5753 65.1785 66.9471 65.0347 67.2912C64.8912 67.6349 64.6729 67.9424 64.3958 68.1906C63.8488 68.7071 63.1263 68.9945 62.3756 68.9945C61.6251 68.9945 60.9026 68.7071 60.3557 68.1906C59.8541 67.6519 59.577 66.9407 59.5819 66.2029Z" fill="white"/>
<path d="M68.9222 63.7542H68.3493V66.2028H69.0084C69.1769 66.2148 69.346 66.1903 69.5044 66.1306C69.6625 66.071 69.8063 65.9778 69.9253 65.857C70.1588 65.6071 70.2915 65.2786 70.2976 64.9354C70.3058 64.7723 70.2761 64.6095 70.2115 64.4595C70.1471 64.3099 70.049 64.1769 69.9253 64.071C69.6296 63.8679 69.2805 63.7574 68.9222 63.7542ZM68.7505 66.4045H68.3493V67.8737C68.3199 68.1087 68.3814 68.3458 68.5211 68.5363C68.5761 68.6044 68.6463 68.6582 68.726 68.6933C68.8058 68.7284 68.8928 68.7436 68.9796 68.738V68.9108H67.0312V68.738C67.2892 68.738 67.4324 68.6804 67.4897 68.5363C67.5468 68.3922 67.6041 68.1905 67.6041 67.8737V64.532C67.6102 64.3058 67.5712 64.0804 67.4897 63.8694C67.4333 63.8033 67.3628 63.7507 67.2833 63.7156C67.2039 63.6808 67.1177 63.6644 67.0312 63.6677V63.4949H69.2089C69.6712 63.4823 70.1247 63.6241 70.4982 63.8983C70.6472 64.0272 70.7675 64.1862 70.8513 64.3648C70.9354 64.5434 70.9808 64.7378 70.9855 64.9354C70.9855 65.5981 70.6417 66.0012 69.868 66.2604C70.0336 66.3794 70.1873 66.5144 70.3265 66.6638C70.5596 66.9482 70.7614 67.2575 70.9282 67.5858C71.115 67.9064 71.336 68.206 71.5872 68.4788C71.7258 68.6202 71.9071 68.7117 72.103 68.738V68.9108H71.0428C70.7494 68.5355 70.4813 68.1408 70.2406 67.7296C70.0217 67.332 69.7411 66.9722 69.4095 66.6638C69.3222 66.5788 69.2188 66.5121 69.1059 66.4677C68.9927 66.4232 68.8719 66.4016 68.7505 66.4045Z" fill="white"/>
<path d="M76.3161 63.4662H76.4594V64.7337H76.3161C76.2937 64.4253 76.1729 64.1324 75.9721 63.8983C75.7607 63.7241 75.4999 63.6215 75.2269 63.606C74.9538 63.5905 74.6831 63.6627 74.4534 63.812C74.3737 63.879 74.309 63.9626 74.2645 64.057C74.22 64.1517 74.1964 64.2546 74.1955 64.3592C74.1914 64.587 74.2619 64.8097 74.3961 64.993C74.6665 65.2797 74.987 65.5142 75.3418 65.6846C75.915 66.059 76.3161 66.2894 76.4594 66.5486C76.6593 66.7921 76.7708 67.097 76.7746 67.413C76.7671 67.8155 76.6049 68.1996 76.3217 68.4843C76.0384 68.769 75.6562 68.9324 75.256 68.9397C74.9387 68.9453 74.6246 68.8763 74.339 68.738L74.0238 68.6518C73.9376 68.6518 73.8805 68.6804 73.8232 68.8532H73.6797V67.413H73.8232C73.8226 67.5948 73.8578 67.7749 73.9268 67.9429C73.9955 68.111 74.0965 68.2636 74.2243 68.3925C74.3454 68.51 74.4895 68.6012 74.647 68.6608C74.8048 68.7202 74.973 68.7465 75.1413 68.738C75.4204 68.7404 75.6926 68.6492 75.915 68.4787C76.0146 68.3954 76.0929 68.289 76.1429 68.1686C76.1927 68.0482 76.2128 67.9175 76.2014 67.7874C76.1997 67.5559 76.1188 67.3323 75.9721 67.1537C75.6597 66.8629 75.3133 66.6112 74.9407 66.4045C74.6499 66.2362 74.3806 66.033 74.1382 65.7997C73.9912 65.6565 73.8826 65.4782 73.8232 65.2812C73.7667 65.1043 73.7376 64.9196 73.737 64.7337C73.7335 64.349 73.877 63.9778 74.1382 63.6969C74.4298 63.4347 74.8077 63.2909 75.1986 63.2935C75.4568 63.292 75.7118 63.3514 75.9435 63.4662H76.3161C76.2588 63.6104 76.2588 63.5528 76.3161 63.4662Z" fill="white"/>
</g>
<defs>
<clipPath id="clip0_67_11486">
<rect width="85" height="38" fill="white" transform="translate(7 31)"/>
</clipPath>
</defs>
</svg>
