<svg width="100" height="100" viewBox="0 0 100 100" fill="none" xmlns="http://www.w3.org/2000/svg">
<g clip-path="url(#clip0_67_11481)">
<path d="M6.77637 38.0039H11.8851L21.6953 53.0856H21.8313V38.0039H26.8724V61.7813H21.7628L11.9193 46.6996H11.8175V61.7813H6.77639V38.0039H6.77637Z" fill="white"/>
<path d="M31.334 42.0835C31.334 39.5398 33.1148 37.7397 35.581 37.7397C38.0471 37.7397 39.8279 39.5398 39.8279 42.0835C39.8279 44.6263 38.0471 46.4263 35.581 46.4263C33.1148 46.4263 31.334 44.6263 31.334 42.0835ZM35.581 44.7831C37.001 44.7831 37.9876 43.7148 37.9876 42.0835C37.9876 40.4514 37.001 39.384 35.581 39.384C34.162 39.384 33.1753 40.4514 33.1753 42.0835C33.1753 43.7148 34.162 44.7831 35.581 44.7831Z" fill="white"/>
<path d="M43.4996 37.8838H41.7188V46.283H43.4996V37.8838Z" fill="white"/>
<path d="M45.833 37.8833H48.6116C50.8378 37.8833 52.1249 39.0241 52.1249 40.811C52.1249 42.0955 51.4638 43.0432 50.2846 43.4744L52.1974 46.2825H50.1163L48.4432 43.7387H47.6138V46.2825H45.833V37.8833ZM48.6962 42.1065C49.7192 42.1065 50.2967 41.6392 50.2967 40.811C50.2967 39.995 49.7192 39.5276 48.6962 39.5276H47.6138V42.1065H48.6962Z" fill="white"/>
<path d="M56.582 54.5801H61.5215C61.726 56.5511 63.0876 57.6716 64.9954 57.6716C67.2096 57.6716 68.6054 56.143 68.6054 53.765C68.6054 51.4213 67.2439 50.0293 65.1315 50.0293C63.7013 50.0293 62.4063 50.6404 61.6575 51.7951H56.8884L58.5241 38.0039H71.9777V42.5216H62.7469L62.1685 47.1418C63.2921 46.4282 64.6204 46.0885 66.0858 46.0885C70.3773 46.0885 73.5791 49.1117 73.5791 53.9349C73.5791 58.8948 70.1051 62.1894 64.8936 62.1894C60.0228 62.1894 56.6848 59.336 56.582 54.5801" fill="white"/>
<path d="M76.3125 54.5801H81.2519C81.4565 56.5511 82.818 57.6716 84.7258 57.6716C86.94 57.6716 88.3359 56.143 88.3359 53.765C88.3359 51.4213 86.9743 50.0293 84.8619 50.0293C83.4318 50.0293 82.1367 50.6404 81.388 51.7951H76.6189L78.2546 38.0039H91.7081V42.5216H82.4774L81.8989 47.1418C83.0227 46.4282 84.3509 46.0885 85.8164 46.0885C90.1077 46.0885 93.3096 49.1117 93.3096 53.9349C93.3096 58.8948 89.8355 62.1894 84.6241 62.1894C79.7532 62.1894 76.4153 59.336 76.3125 54.5801" fill="white"/>
<path d="M34.2197 57.0964V54.0146H36.3372V54.4907H34.7613V55.285H36.3046V55.7611H34.7613V56.6203H36.3372V57.0964H34.2197Z" fill="white"/>
<path d="M37.1074 56.6614L37.413 56.2412C37.6218 56.4675 37.9599 56.6713 38.3912 56.6713C38.8361 56.6713 39.007 56.454 39.007 56.2457C39.007 55.5992 37.2096 56.0014 37.2096 54.869C37.2096 54.356 37.6544 53.9629 38.3352 53.9629C38.8126 53.9629 39.2069 54.1206 39.4888 54.3974L39.1833 54.7995C38.9383 54.5543 38.6092 54.4434 38.2846 54.4434C37.969 54.4434 37.7656 54.6011 37.7656 54.8275C37.7656 55.4045 39.563 55.0492 39.563 56.1953C39.563 56.7083 39.1978 57.1519 38.3678 57.1519C37.7982 57.1519 37.3859 56.9481 37.1074 56.6614Z" fill="white"/>
<path d="M40.4727 57.0964V54.0146H41.8342C42.4835 54.0146 42.8396 54.4537 42.8396 54.9803C42.8396 55.5024 42.4789 55.9414 41.8342 55.9414H41.0142V57.0964H40.4727ZM42.2836 54.9803C42.2836 54.6845 42.0666 54.4907 41.7602 54.4907H41.0142V55.4654H41.7602C42.0666 55.4654 42.2836 55.2715 42.2836 54.9803Z" fill="white"/>
<path d="M45.4738 57.0964L44.793 55.9459H44.2506V57.0964H43.709V54.0146H45.0661C45.6781 54.0146 46.0814 54.4068 46.0814 54.9803C46.0814 55.5257 45.7198 55.826 45.3445 55.8854L46.1039 57.0964H45.4738ZM45.5254 54.9757C45.5254 54.68 45.303 54.4907 44.9965 54.4907H44.2506V55.4699H44.9965C45.303 55.4699 45.5254 55.276 45.5254 54.9757Z" fill="white"/>
<path d="M47.0371 57.0964V54.0146H49.1546V54.4907H47.5787V55.285H49.1221V55.7611H47.5787V56.6203H49.1546V57.0964H47.0371Z" fill="white"/>
<path d="M32.4619 60.1745C32.4619 59.2224 33.1707 58.5796 34.0839 58.5796C34.7041 58.5796 35.0938 58.8987 35.3208 59.2684L34.8623 59.5092C34.7141 59.2503 34.413 59.0601 34.0839 59.0601C33.4719 59.0601 33.018 59.5227 33.018 60.1745C33.018 60.8165 33.4719 61.288 34.0839 61.288C34.413 61.288 34.7141 61.0933 34.8623 60.8399L35.3253 61.0707C35.0893 61.4405 34.7041 61.7686 34.0839 61.7686C33.1707 61.7686 32.4619 61.1212 32.4619 60.1745Z" fill="white"/>
<path d="M36.0361 60.1745C36.0361 59.2548 36.6898 58.5796 37.6166 58.5796C38.5378 58.5796 39.196 59.2548 39.196 60.1745C39.196 61.0933 38.5378 61.7686 37.6166 61.7686C36.6898 61.7686 36.0361 61.0933 36.0361 60.1745ZM38.64 60.1745C38.64 59.5362 38.2368 59.0601 37.6166 59.0601C36.9909 59.0601 36.5922 59.5362 36.5922 60.1745C36.5922 60.8074 36.9909 61.288 37.6166 61.288C38.2368 61.288 38.64 60.8074 38.64 60.1745Z" fill="white"/>
<path d="M40.1279 61.7126V58.6309H42.2454V59.1069H40.6705V59.9012H42.2129V60.3772H40.6705V61.7126H40.1279Z" fill="white"/>
<path d="M43.1514 61.7126V58.6309H45.2689V59.1069H43.693V59.9012H45.2363V60.3772H43.693V61.7126H43.1514Z" fill="white"/>
<path d="M46.1738 61.7126V58.6309H48.2913V59.1069H46.7154V59.9012H48.2587V60.3772H46.7154V61.2364H48.2913V61.7126H46.1738Z" fill="white"/>
<path d="M49.2617 61.7126V58.6309H51.3792V59.1069H49.8033V59.9012H51.3467V60.3772H49.8033V61.2364H51.3792V61.7126H49.2617Z" fill="white"/>
<path d="M52.4893 49.4302H31.7285V50.357H52.4893V49.4302Z" fill="white"/>
</g>
<defs>
<clipPath id="clip0_67_11481">
<rect width="88" height="26" fill="white" transform="translate(6 37)"/>
</clipPath>
</defs>
</svg>
