<svg width="100" height="100" viewBox="0 0 100 100" fill="none" xmlns="http://www.w3.org/2000/svg">
<path d="M21.606 66.0601H28.7776V67.3774H28.7095C28.6702 67.1848 28.5859 67.0042 28.4637 66.8502C28.3414 66.6963 28.1846 66.5734 28.006 66.4916C27.529 66.276 27.0083 66.1749 26.4854 66.1963H25.6457V72.7605C25.6425 72.9047 25.6501 73.049 25.6684 73.192C25.6854 73.3384 25.7158 73.4828 25.7591 73.6236C25.797 73.7479 25.8586 73.8636 25.9407 73.9643C26.0142 74.0582 26.1189 74.1226 26.2357 74.146V74.1914H24.1251V74.146C24.2502 74.1279 24.3637 74.0629 24.4428 73.9643C24.5168 73.8584 24.5777 73.744 24.6244 73.6236C24.6678 73.4828 24.6982 73.3384 24.7152 73.192C24.7152 73.0331 24.7379 72.8968 24.7379 72.7605V66.1963H23.8755C23.3601 66.1776 22.8474 66.2786 22.3776 66.4916C22.1957 66.5721 22.0353 66.6942 21.9091 66.848C21.783 67.0019 21.6947 67.1832 21.6513 67.3774H21.606V66.0601Z" fill="white"/>
<path d="M33.6573 72.7607C33.6573 72.897 33.68 73.0333 33.68 73.1923C33.697 73.3386 33.7274 73.4831 33.7708 73.6238C33.7984 73.7521 33.8613 73.8701 33.9523 73.9645C34.0258 74.0584 34.1305 74.1229 34.2474 74.1462V74.1917H32.1367V74.1462C32.2618 74.1281 32.3753 74.0632 32.4544 73.9645C32.5365 73.8639 32.5982 73.7481 32.636 73.6238C32.6825 73.4848 32.7056 73.3389 32.7041 73.1923C32.7223 73.0492 32.7299 72.9049 32.7268 72.7607V67.4912C32.7306 67.347 32.723 67.2027 32.7041 67.0597C32.7056 66.913 32.6825 66.7672 32.636 66.6281C32.6035 66.5017 32.5413 66.3849 32.4544 66.2874C32.3717 66.1886 32.2609 66.1173 32.1367 66.083H34.2474C34.1325 66.1235 34.0306 66.1941 33.9523 66.2874C33.858 66.3794 33.7945 66.4985 33.7708 66.6281C33.7274 66.7689 33.697 66.9134 33.68 67.0597C33.68 67.196 33.6573 67.355 33.6573 67.4912V72.7607Z" fill="white"/>
<path d="M43.3247 72.8743V74.1917H37.6963V74.1462C37.8214 74.1281 37.9349 74.0632 38.014 73.9645C38.0961 73.8639 38.1578 73.7481 38.1956 73.6238C38.2421 73.4848 38.2651 73.3389 38.2637 73.1923C38.2819 73.0492 38.2895 72.9049 38.2864 72.7607V67.4912C38.2901 67.347 38.2825 67.2027 38.2637 67.0597C38.2651 66.913 38.2421 66.7672 38.1956 66.6281C38.1631 66.5017 38.1008 66.3849 38.014 66.2874C37.9313 66.1886 37.8205 66.1173 37.6963 66.083H42.9161V66.8098H42.8708C42.847 66.6867 42.7831 66.5749 42.6892 66.4918C42.5877 66.4162 42.4719 66.3621 42.3488 66.3329C42.2104 66.2811 42.065 66.2505 41.9176 66.242H39.2169V69.9897H40.6693L41.1005 69.8988C41.2301 69.8751 41.3491 69.8116 41.441 69.7171C41.5342 69.6388 41.6047 69.5368 41.6452 69.4219H41.6679V70.762H41.6452C41.6109 70.6377 41.5397 70.5268 41.441 70.444C41.3436 70.3571 41.2269 70.2948 41.1005 70.2623C40.9616 70.2157 40.8159 70.1927 40.6693 70.1941H39.2169V74.1462H41.0552C41.5734 74.1698 42.089 74.0604 42.553 73.8283C42.7313 73.7486 42.8893 73.6295 43.015 73.4801C43.1408 73.3306 43.2312 73.1545 43.2793 72.9651L43.3247 72.8743Z" fill="white"/>
<path d="M55.0124 66.0828C54.8939 66.129 54.7859 66.1985 54.6947 66.2872C54.6153 66.3864 54.5608 66.5032 54.5358 66.6279C54.4924 66.7687 54.462 66.9131 54.445 67.0594C54.4262 67.2025 54.4186 67.3468 54.4223 67.491V72.7605C54.4192 72.9047 54.4268 73.049 54.445 73.192C54.462 73.3384 54.4924 73.4828 54.5358 73.6236C54.5651 73.7468 54.6191 73.8627 54.6947 73.9643C54.7813 74.0537 54.8915 74.1167 55.0124 74.146V74.1914H52.9018V74.146C53.0268 74.1279 53.1404 74.0629 53.2195 73.9643C53.2934 73.8584 53.3544 73.744 53.401 73.6236L53.4691 73.192C53.4874 73.049 53.495 72.9047 53.4918 72.7605V66.2872L50.2464 72.4879L47.3642 66.9913V72.7605C47.3642 72.8968 47.3869 73.0331 47.3869 73.192C47.4039 73.3384 47.4343 73.4828 47.4777 73.6236C47.5053 73.7519 47.5681 73.8699 47.6592 73.9643C47.7327 74.0582 47.8374 74.1226 47.9542 74.146V74.1914H46.6152V74.146C46.7403 74.1279 46.8538 74.0629 46.933 73.9643C47.015 73.8636 47.0767 73.7479 47.1145 73.6236C47.1611 73.4845 47.1841 73.3387 47.1826 73.192C47.2009 73.049 47.2084 72.9047 47.2053 72.7605V67.491C47.2091 67.3468 47.2015 67.2025 47.1826 67.0594C47.1841 66.9128 47.1611 66.7669 47.1145 66.6279C47.0821 66.5014 47.0198 66.3846 46.933 66.2872C46.8502 66.1884 46.7394 66.1171 46.6152 66.0828H47.9089L50.6776 71.3523L53.4464 66.0601H55.0124V66.0828Z" fill="white"/>
<path d="M61.6175 66.0601C61.9423 66.0538 62.2655 66.1077 62.5707 66.2191C62.8617 66.3396 63.1303 66.5085 63.365 66.7188C63.5766 66.9316 63.7528 67.177 63.887 67.4456C64.0036 67.7345 64.0652 68.0426 64.0686 68.3541C64.071 68.6614 64.0011 68.9648 63.8643 69.2399C63.7519 69.5211 63.5728 69.7706 63.3423 69.9668C63.1345 70.1783 62.8879 70.348 62.6161 70.4665C62.3432 70.5828 62.0502 70.6446 61.7537 70.6482H59.9835V72.7605C59.9835 72.8968 60.0062 73.0331 60.0062 73.1921C60.0232 73.3384 60.0535 73.4828 60.0969 73.6236C60.1245 73.7519 60.1874 73.8699 60.2785 73.9643C60.352 74.0582 60.4567 74.1226 60.5735 74.146V74.1914H58.4629V74.146C58.588 74.1279 58.7015 74.0629 58.7806 73.9643C58.8627 73.8636 58.9244 73.7479 58.9622 73.6236C58.9977 73.4821 59.0204 73.3376 59.0303 73.1921C59.0485 73.049 59.0561 72.9047 59.053 72.7605V67.491C59.0567 67.3468 59.0491 67.2025 59.0303 67.0595C59.0204 66.9139 58.9977 66.7694 58.9622 66.6279C58.9297 66.5015 58.8674 66.3846 58.7806 66.2872C58.6979 66.1884 58.5871 66.1171 58.4629 66.0828H61.6175V66.0601ZM61.1182 70.4892C61.3859 70.4886 61.6499 70.4264 61.8898 70.3075C62.3487 70.0313 62.6885 69.5941 62.843 69.0809C62.9299 68.8483 62.9759 68.6024 62.9792 68.3541C62.9781 68.0982 62.932 67.8445 62.843 67.6046C62.7541 67.3546 62.632 67.1178 62.4799 66.9005C62.3106 66.704 62.1115 66.5354 61.8898 66.4008C61.6554 66.2651 61.389 66.1945 61.1182 66.1963H59.9835V70.4892H61.1182Z" fill="white"/>
<path d="M70.899 65.8784C71.3957 65.8777 71.8856 65.9945 72.3288 66.2191C72.7708 66.4424 73.1642 66.7512 73.4862 67.1277C73.8321 67.5209 74.1015 67.9754 74.2805 68.4677C74.6748 69.5379 74.6748 70.7137 74.2805 71.7839C74.1015 72.2762 73.8321 72.7307 73.4862 73.124C73.1642 73.5004 72.7708 73.8092 72.3288 74.0325C71.8853 74.2562 71.3956 74.3727 70.899 74.3727C70.4024 74.3727 69.9127 74.2562 69.4692 74.0325C69.0271 73.8092 68.6337 73.5004 68.3117 73.124C67.9658 72.7307 67.6964 72.2762 67.5174 71.7839C67.1231 70.7137 67.1231 69.5379 67.5174 68.4677C67.6964 67.9754 67.9658 67.5209 68.3117 67.1277C68.6337 66.7512 69.0271 66.4424 69.4692 66.2191C69.9123 65.9945 70.4022 65.8777 70.899 65.8784ZM70.899 74.2142C71.256 74.2101 71.6038 74.0994 71.8975 73.8962C72.2258 73.658 72.5035 73.3569 72.7146 73.0104C72.9581 72.6077 73.1416 72.1715 73.2592 71.7157C73.5313 70.6733 73.5313 69.5783 73.2592 68.5359C73.1416 68.0801 72.9581 67.644 72.7146 67.2412C72.5099 66.89 72.2311 66.5876 71.8975 66.3554C71.6058 66.1481 71.2568 66.0367 70.899 66.0367C70.5411 66.0367 70.1921 66.1481 69.9004 66.3554C69.5669 66.5876 69.288 66.89 69.0834 67.2412C68.8398 67.644 68.6563 68.0801 68.5387 68.5359C68.2666 69.5783 68.2666 70.6733 68.5387 71.7157C68.6563 72.1715 68.8398 72.6077 69.0834 73.0104C69.2945 73.3569 69.5722 73.658 69.9004 73.8962C70.1942 74.0994 70.5419 74.2101 70.899 74.2142Z" fill="white"/>
<path d="M28.8908 80.2333C28.9856 80.2346 29.0788 80.2579 29.1631 80.3014C29.2362 80.3389 29.3047 80.3846 29.3674 80.4377L29.5035 80.6421C29.5316 80.7226 29.5469 80.8068 29.5489 80.892C29.5475 80.9797 29.5241 81.0656 29.4808 81.1418C29.4548 81.2272 29.3982 81.3 29.322 81.3463L29.095 81.5053L28.8227 81.5507H27.5518C27.5694 81.5507 27.5867 81.5466 27.6025 81.5387C27.6183 81.5308 27.632 81.5194 27.6425 81.5053L27.7106 81.3917C27.7106 81.3463 27.7333 81.3235 27.7333 81.2781V79.4156C27.728 79.3774 27.7204 79.3394 27.7106 79.3021L27.6425 79.1885C27.632 79.1744 27.6183 79.1629 27.6025 79.1551C27.5867 79.1472 27.5694 79.1431 27.5518 79.1431H28.7319L28.9589 79.1885C29.0351 79.2202 29.1045 79.2665 29.1631 79.3248L29.2993 79.5065C29.3252 79.5718 29.3405 79.6408 29.3447 79.7109C29.3447 79.8338 29.3048 79.9533 29.2312 80.0516C29.1368 80.1427 29.0189 80.2057 28.8908 80.2333ZM28.0284 79.1431V80.2106H28.5276L28.7319 80.1652L28.8681 80.0516L28.9589 79.8699C28.9848 79.8046 29.0001 79.7356 29.0042 79.6655C28.9973 79.6031 28.982 79.542 28.9589 79.4838C28.9427 79.4171 28.9117 79.355 28.8681 79.3021L28.7319 79.1885L28.5276 79.1431H28.0284ZM28.6184 81.5053L28.8681 81.4598L29.0496 81.3008C29.0925 81.2436 29.1305 81.1828 29.1631 81.1191C29.1807 81.0448 29.1883 80.9684 29.1858 80.892C29.1906 80.8155 29.183 80.7388 29.1631 80.6649C29.1353 80.5916 29.097 80.5228 29.0496 80.4604L28.8681 80.3014L28.6184 80.256H28.0284V81.5053H28.6184Z" fill="white"/>
<path d="M32.454 79.0981H32.8852L32.7491 79.1436L32.6356 79.2571C32.5902 79.3026 32.5448 79.3253 32.5221 79.3707L32.4313 79.507L31.932 80.3928V81.2332C31.9374 81.2715 31.9449 81.3094 31.9547 81.3468C31.9774 81.3922 31.9774 81.4376 32.0228 81.4603L32.1136 81.5285H31.4327L31.5462 81.4603C31.5689 81.4376 31.5689 81.3922 31.5916 81.3468C31.6132 81.3131 31.6213 81.2726 31.6143 81.2332V80.4155L31.0696 79.507C31.0474 79.4567 31.0167 79.4106 30.9788 79.3707L30.8654 79.2571L30.7519 79.1436L30.6157 79.0981H31.342C31.2966 79.0981 31.2739 79.1209 31.2739 79.1436V79.2571L31.342 79.3707L31.41 79.507L31.8866 80.3247L32.3859 79.507L32.454 79.3707C32.4767 79.3253 32.4994 79.3026 32.4994 79.2571C32.5158 79.2216 32.5235 79.1827 32.5221 79.1436C32.5221 79.1209 32.4994 79.0981 32.454 79.0981Z" fill="white"/>
<path d="M38.1955 81.5277C38.2409 81.5277 38.2636 81.505 38.2636 81.4823C38.2735 81.465 38.2788 81.4455 38.2788 81.4255C38.2788 81.4056 38.2735 81.386 38.2636 81.3687C38.2636 81.3233 38.2409 81.3006 38.2182 81.2552C38.2136 81.2069 38.1981 81.1603 38.1728 81.1189L37.8324 80.4829H37.4466V81.2552C37.4466 81.3006 37.4693 81.3233 37.4693 81.3687L37.5373 81.4823C37.5479 81.4964 37.5616 81.5079 37.5774 81.5157C37.5931 81.5236 37.6105 81.5277 37.6281 81.5277H36.9473L37.0607 81.4823C37.0834 81.4369 37.1061 81.4142 37.1061 81.3687C37.1245 81.3339 37.1324 81.2944 37.1288 81.2552C37.1288 81.2097 37.1515 81.1643 37.1515 81.1189V79.529C37.1515 79.4835 37.1288 79.4381 37.1288 79.3927C37.1358 79.3533 37.1277 79.3128 37.1061 79.2791C37.1046 79.2371 37.0885 79.197 37.0607 79.1655L36.9473 79.1201H37.9685L38.2636 79.1655L38.5359 79.3245C38.6014 79.3906 38.6551 79.4675 38.6948 79.5517C38.7412 79.6266 38.7649 79.7134 38.7629 79.8015C38.7608 79.8867 38.7455 79.971 38.7175 80.0514L38.5813 80.2558C38.5132 80.3012 38.4678 80.3694 38.3771 80.3921L38.1501 80.4829L38.4905 81.1416L38.5813 81.2779L38.6721 81.3915L38.7856 81.505L38.9217 81.5504H38.1955V81.5277ZM37.4466 80.4375H37.8097C37.8973 80.4361 37.9831 80.4127 38.0593 80.3694C38.1298 80.3289 38.1915 80.2749 38.2409 80.2104C38.2968 80.154 38.3361 80.0832 38.3544 80.0059C38.3823 79.9334 38.3977 79.8566 38.3998 79.7788C38.3956 79.7087 38.3803 79.6397 38.3544 79.5744C38.3306 79.4924 38.2922 79.4155 38.2409 79.3473C38.1906 79.2896 38.1287 79.2431 38.0593 79.211C37.9831 79.1676 37.8973 79.1442 37.8097 79.1428H37.4466V80.4375Z" fill="white"/>
<path d="M43.9826 79.0981H44.4138L44.2777 79.1436L44.1869 79.2571C44.149 79.297 44.1183 79.3431 44.0961 79.3934L44.028 79.507L43.1202 81.5285H42.8025L42.2124 80.2111L41.6223 81.5285H41.3046L40.3968 79.507C40.3741 79.4843 40.3741 79.4388 40.3287 79.3934L40.2606 79.2571L40.1472 79.1436L40.0337 79.0981H40.7372C40.7196 79.0981 40.7022 79.1023 40.6865 79.1101C40.6707 79.118 40.657 79.1295 40.6465 79.1436V79.2571C40.6465 79.3026 40.6692 79.348 40.6692 79.3934L40.7372 79.507L41.5996 81.483L42.1897 80.143L41.9174 79.507L41.8493 79.3934L41.7585 79.2571L41.645 79.1436L41.5316 79.0981H42.2351C42.1897 79.0981 42.167 79.1209 42.167 79.1436C42.1487 79.1784 42.1408 79.2179 42.1443 79.2571C42.1489 79.3054 42.1644 79.3521 42.1897 79.3934C42.1913 79.4354 42.2073 79.4755 42.2351 79.507L42.3486 79.7795L42.4848 79.507C42.4938 79.467 42.5091 79.4286 42.5301 79.3934C42.5484 79.3504 42.5562 79.3037 42.5528 79.2571V79.1436C42.5423 79.1295 42.5286 79.118 42.5128 79.1101C42.4971 79.1023 42.4797 79.0981 42.4621 79.0981H42.8933L42.7798 79.1436L42.6663 79.2571L42.5982 79.3934L42.5301 79.507L42.3713 79.8477L43.0975 81.483L43.9826 79.507C43.9916 79.467 44.007 79.4286 44.028 79.3934C44.0462 79.3504 44.054 79.3037 44.0507 79.2571C44.0734 79.2117 44.0507 79.189 44.0507 79.1436L43.9826 79.0981Z" fill="white"/>
<path d="M50.36 81.1418V81.5507H48.499C48.5166 81.5507 48.534 81.5466 48.5498 81.5387C48.5655 81.5308 48.5792 81.5194 48.5898 81.5053L48.6579 81.3917C48.6579 81.3463 48.6806 81.3235 48.6806 81.2781V79.4156C48.6753 79.3774 48.6677 79.3394 48.6579 79.3021L48.5898 79.1885L48.499 79.1431H49.1799L49.0664 79.1885C49.0386 79.22 49.0226 79.2601 49.021 79.3021C48.9994 79.3357 48.9913 79.3763 48.9983 79.4156C48.9801 79.4586 48.9723 79.5053 48.9756 79.5519V81.528H49.6338C49.7976 81.5356 49.9608 81.5044 50.1104 81.4371C50.1672 81.4131 50.2175 81.3759 50.257 81.3285C50.2965 81.281 50.324 81.2248 50.3373 81.1646L50.36 81.1418Z" fill="white"/>
<path d="M53.3789 79.0981H53.8101C53.7924 79.0981 53.7751 79.1023 53.7593 79.1101C53.7436 79.118 53.7298 79.1295 53.7193 79.1436L53.6512 79.2571C53.6414 79.2945 53.6338 79.3324 53.6285 79.3707V80.5972C53.6245 80.7195 53.6093 80.8411 53.5831 80.9606C53.5614 81.0684 53.5147 81.1695 53.4469 81.2559C53.3862 81.3477 53.2992 81.419 53.1973 81.4603C53.0752 81.5109 52.9435 81.5341 52.8115 81.5285C52.665 81.5299 52.5192 81.5069 52.3803 81.4603C52.2578 81.4185 52.1428 81.3571 52.0398 81.2786C51.9518 81.1956 51.8822 81.095 51.8356 80.9834C51.7893 80.86 51.7662 80.729 51.7675 80.5972V79.3707C51.7622 79.3324 51.7546 79.2945 51.7448 79.2571L51.6767 79.1436C51.6662 79.1295 51.6524 79.118 51.6367 79.1101C51.6209 79.1023 51.6036 79.0981 51.5859 79.0981H52.2668L52.1533 79.1436C52.1255 79.175 52.1095 79.2152 52.1079 79.2571C52.0864 79.2908 52.0783 79.3313 52.0852 79.3707C52.067 79.4137 52.0592 79.4604 52.0625 79.507V80.5972C52.0469 80.8415 52.1194 81.0833 52.2668 81.2786C52.3386 81.3484 52.4241 81.4026 52.5178 81.4378C52.6115 81.473 52.7115 81.4884 52.8115 81.483L53.1292 81.4376C53.2164 81.4034 53.2942 81.3489 53.3562 81.2786C53.4348 81.2054 53.4901 81.1106 53.515 81.0061C53.5636 80.8754 53.5867 80.7366 53.5831 80.5972V79.507C53.5831 79.4616 53.5604 79.4161 53.5604 79.3707C53.5674 79.3313 53.5593 79.2908 53.5377 79.2571C53.5362 79.2152 53.5201 79.175 53.4923 79.1436L53.3789 79.0981Z" fill="white"/>
<path d="M57.6674 81.5504H56.9412C56.9639 81.5277 56.9866 81.505 56.9866 81.4823V81.3687L56.9185 81.2552L56.8504 81.1189L56.3511 80.3694L55.8745 81.1189L55.8064 81.2552C55.761 81.3006 55.7611 81.346 55.7384 81.3687C55.7157 81.3915 55.7157 81.4596 55.7384 81.4823C55.7611 81.505 55.761 81.5277 55.7837 81.5504H55.3525L55.4887 81.4823L55.6249 81.3687C55.6703 81.346 55.693 81.3006 55.7384 81.2552C55.7605 81.2048 55.7913 81.1587 55.8291 81.1189L56.3284 80.3239L55.8291 79.529C55.7873 79.5021 55.7554 79.4622 55.7384 79.4154L55.6249 79.2791L55.4887 79.1655L55.3525 79.1201H56.0788C56.0667 79.1201 56.0552 79.1249 56.0467 79.1334C56.0382 79.1419 56.0334 79.1535 56.0334 79.1655C56.0107 79.211 56.0334 79.2337 56.0334 79.2791C56.0334 79.3245 56.0561 79.37 56.1015 79.4154L56.1696 79.529L56.6462 80.2785L57.1454 79.529L57.2135 79.3927L57.2816 79.2791V79.1655C57.2816 79.1535 57.2768 79.1419 57.2683 79.1334C57.2598 79.1249 57.2483 79.1201 57.2362 79.1201H57.6674L57.5313 79.1655L57.3951 79.2791L57.2816 79.3927L57.1908 79.529L56.6915 80.3239L57.1908 81.1189L57.2816 81.2552C57.327 81.3006 57.3497 81.346 57.3951 81.3687L57.5313 81.4823L57.6674 81.5504Z" fill="white"/>
<path d="M61.0265 79.0981H61.4577L61.3443 79.1436C61.3165 79.175 61.3004 79.2152 61.2989 79.2571C61.2773 79.2908 61.2692 79.3313 61.2762 79.3707C61.258 79.4137 61.2502 79.4604 61.2535 79.507V80.5972C61.2609 80.7201 61.2455 80.8433 61.2081 80.9606C61.1842 81.0639 61.146 81.1633 61.0946 81.2559C61.0284 81.3425 60.9429 81.4125 60.845 81.4603C60.7217 81.5067 60.5909 81.5298 60.4592 81.5285C60.3052 81.53 60.152 81.507 60.0053 81.4603L59.6875 81.2786C59.5995 81.1956 59.5299 81.095 59.4833 80.9834C59.4292 80.8615 59.3984 80.7305 59.3925 80.5972V79.3707C59.3995 79.3313 59.3914 79.2908 59.3698 79.2571C59.3682 79.2152 59.3522 79.175 59.3244 79.1436L59.2109 79.0981H59.8918C59.8742 79.0981 59.8568 79.1023 59.841 79.1101C59.8253 79.118 59.8116 79.1295 59.801 79.1436L59.7329 79.2571C59.7231 79.2945 59.7155 79.3324 59.7102 79.3707V80.5972C59.6946 80.8415 59.7671 81.0833 59.9145 81.2786C59.9863 81.3484 60.0717 81.4026 60.1655 81.4378C60.2592 81.473 60.3592 81.4884 60.4592 81.483L60.7542 81.4376C60.8481 81.4036 60.9333 81.3493 61.0038 81.2786C61.0745 81.1993 61.1285 81.1066 61.1627 81.0061C61.1915 80.8717 61.2067 80.7347 61.2081 80.5972V79.3707C61.1918 79.3352 61.184 79.2963 61.1854 79.2571L61.1173 79.1436C61.1067 79.1295 61.093 79.118 61.0773 79.1101C61.0615 79.1023 61.0442 79.0981 61.0265 79.0981Z" fill="white"/>
<path d="M64.2502 81.5277L64.3183 81.4823V81.3687L64.2729 81.2552L64.2048 81.1189L63.8644 80.4829H63.4786V81.1189C63.4752 81.1655 63.483 81.2122 63.5012 81.2552C63.4977 81.2944 63.5056 81.3339 63.5239 81.3687C63.5239 81.4142 63.5466 81.4369 63.5693 81.4823L63.6828 81.5277H63.002C63.0196 81.5277 63.0369 81.5236 63.0527 81.5157C63.0685 81.5079 63.0822 81.4964 63.0927 81.4823L63.1608 81.3687C63.1573 81.3295 63.1652 81.29 63.1835 81.2552V79.3927C63.1672 79.3571 63.1594 79.3182 63.1608 79.2791L63.0927 79.1655C63.0822 79.1514 63.0685 79.14 63.0527 79.1321C63.0369 79.1242 63.0196 79.1201 63.002 79.1201H64.0005L64.3183 79.1655C64.4094 79.2049 64.4937 79.2586 64.5679 79.3245C64.6403 79.3845 64.6952 79.463 64.7268 79.5517C64.7732 79.6266 64.7969 79.7134 64.7949 79.8015C64.7928 79.8867 64.7775 79.971 64.7495 80.0514C64.7202 80.129 64.6736 80.1989 64.6133 80.2558C64.563 80.3135 64.5011 80.3599 64.4317 80.3921L64.1821 80.4829L64.5452 81.1416L64.6133 81.2779L64.7268 81.3915L64.8176 81.505L64.9537 81.5504H64.2502V81.5277ZM63.4786 80.4375H63.8417C63.9297 80.4395 64.0165 80.4158 64.0913 80.3694C64.1618 80.3289 64.2235 80.2749 64.2729 80.2104C64.3362 80.156 64.3833 80.0853 64.409 80.0059C64.437 79.9334 64.4524 79.8566 64.4544 79.7788C64.4503 79.7087 64.435 79.6397 64.409 79.5744C64.3775 79.4912 64.3314 79.4143 64.2729 79.3473C64.2226 79.2896 64.1607 79.2431 64.0913 79.211C64.0165 79.1645 63.9297 79.1408 63.8417 79.1428H63.4786V80.4375Z" fill="white"/>
<path d="M67.9037 79.0978H68.3576C68.333 79.0957 68.3083 79.0987 68.2849 79.1065C68.2615 79.1143 68.2399 79.1268 68.2215 79.1432L68.0853 79.2568L67.9718 79.3704L67.881 79.5067L67.3817 80.3925V81.2329C67.3871 81.2711 67.3946 81.3091 67.4044 81.3464L67.4725 81.46L67.5633 81.5281H66.8825L66.9959 81.46C67.0237 81.4285 67.0398 81.3884 67.0413 81.3464C67.0629 81.3128 67.071 81.2722 67.064 81.2329C67.064 81.1874 67.0867 81.142 67.0867 81.0966V80.4152L66.5193 79.5067L66.4286 79.3704L66.3378 79.2568L66.2016 79.1432L66.0654 79.0978H66.7917C66.7463 79.0978 66.7236 79.1205 66.7236 79.1432C66.7222 79.1824 66.7299 79.2213 66.7463 79.2568C66.7463 79.3022 66.769 79.325 66.7917 79.3704L66.8598 79.5067L67.359 80.3243L67.8356 79.5067L67.9037 79.3704C67.9264 79.325 67.9491 79.3022 67.9491 79.2568C67.9655 79.2213 67.9732 79.1824 67.9718 79.1432C67.9718 79.1205 67.9491 79.0978 67.9037 79.0978Z" fill="white"/>
<path d="M76.8908 29.8097L74.0312 32.0356C71.3532 34.1025 68.3121 36.442 65.9972 38.2818C62.2071 41.3027 58.0766 44.6642 54.4454 47.6624C52.5844 37.5323 50.4511 27.4475 48.5901 18.7483L47.9773 16L47.3872 18.7483C45.5262 27.4475 43.3929 37.5323 41.5319 47.6624C37.9007 44.6642 33.7702 41.3027 29.9801 38.2818C27.6652 36.442 24.6241 34.1025 21.9461 32.0356L19.0865 29.8097L16 27.4021L21.4014 35.3063C27.6879 44.528 33.4979 52.7729 39.1943 60.45L39.2624 60.5182V60.5863H39.3078L39.8979 61.404L40.783 60.6999C42.2355 59.5188 43.756 58.2241 45.2312 56.9749L47.9773 54.59C48.9078 55.3622 49.861 56.1572 50.7688 56.9522C52.244 58.2014 53.7645 59.4961 55.217 60.6771L56.1021 61.3813L56.6922 60.5636H56.7376V60.4954L56.8057 60.4273C62.5021 52.7502 68.3121 44.5052 74.5986 35.2836L80 27.3794L76.8908 29.8097ZM39.8525 57.4519C36.4482 52.1596 32.8624 46.7312 28.9589 41.0074C32.8397 43.8239 37.0837 46.8447 41.1688 49.7066C40.6922 52.3414 40.2383 54.9307 39.8525 57.4519ZM43.8695 55.8846L41.4184 57.5654L41.305 57.6563C41.895 55.4985 42.4624 53.2953 43.0525 51.0467L46.9333 53.795L43.8695 55.8846ZM45.4582 50.9104L43.4837 49.2751C44.9362 43.5513 46.3887 37.4187 47.9773 30.2413C49.5887 37.4187 51.0411 43.5513 52.4936 49.2751L50.4965 50.9104L47.9773 53L45.4582 50.9104ZM54.5589 57.5654C53.7418 57.0203 52.9021 56.4525 52.1078 55.8846L49.044 53.795L52.9248 51.0467C53.5149 53.2953 54.0823 55.4985 54.6723 57.6563L54.5589 57.5654ZM56.1248 57.4519C55.7163 54.9307 55.2851 52.3414 54.8085 49.7066C58.8936 46.8447 63.1376 43.8239 67.0184 41.0074C63.1149 46.7312 59.5291 52.1596 56.1248 57.4519Z" fill="white"/>
</svg>
