<svg width="41" height="41" viewBox="0 0 41 41" fill="none" xmlns="http://www.w3.org/2000/svg">
<path d="M20.5 0C31.8214 0 41 9.17858 41 20.5C41 31.8214 31.8214 41 20.5 41C9.17858 41 0 31.8214 0 20.5C0 9.17858 9.17858 0 20.5 0ZM12.052 29.3213H14.9414V17.8749H12.052V29.3213ZM21.0736 23.2893C21.0736 21.4837 21.9243 20.0362 23.8837 20.0362C25.8183 20.0362 26.4447 21.5959 26.4447 23.2893V29.3229H29.3165V21.9483C29.3165 19.3288 28.0476 17.4968 25.2807 17.4968C24.0247 17.4968 22.574 18.1553 21.9603 19.2984L21.0736 20.9158V17.8749H18.3395V29.3213H21.0736V23.2893ZM22.0196 23.2893V30.2674H17.3935V16.9289H22.0196V17.7804C22.9328 16.9625 24.0543 16.5508 25.2807 16.5508C28.5699 16.5508 30.2626 18.805 30.2626 21.9483V30.265L25.4986 30.2658V23.2893C25.4986 22.1518 25.2479 20.9822 23.8837 20.9822C22.461 20.9822 22.0196 22.0172 22.0196 23.2893ZM13.4787 15.3067C14.48 15.3067 15.2739 14.488 15.2739 13.4923C15.2739 12.4958 14.48 11.6787 13.4787 11.6787C12.4774 11.6787 11.6835 12.4958 11.6835 13.4923C11.6835 14.488 12.4766 15.3067 13.4787 15.3067ZM13.4787 16.2528C11.9591 16.2528 10.7374 15.0063 10.7374 13.4923C10.7374 11.9783 11.9591 10.7326 13.4787 10.7326C14.9975 10.7326 16.2199 11.9783 16.2199 13.4923C16.2199 15.0055 14.9975 16.2528 13.4787 16.2528ZM11.1059 30.2674V16.9289H15.8875V30.2674H11.1059ZM20.5 0.946856C9.70087 0.946856 0.946055 9.70087 0.946055 20.5C0.946055 31.2991 9.70087 40.0531 20.5 40.0531C31.2991 40.0531 40.0539 31.2991 40.0539 20.5C40.0539 9.70087 31.2991 0.946856 20.5 0.946856Z" fill="white"/>
</svg>
