<svg width="512" height="512" viewBox="0 0 512 512" fill="none" xmlns="http://www.w3.org/2000/svg">
<g clip-path="url(#clip0_67_11907)">
<path d="M256 0.0898438C397.33 0.0898438 511.91 114.67 511.91 256C511.91 397.33 397.33 511.91 256 511.91C114.67 511.91 0.0898438 397.33 0.0898438 256C0.0898438 114.67 114.67 0.0898438 256 0.0898438ZM150.54 366.12H186.61V223.23H150.54V366.12ZM263.16 290.82C263.16 268.28 273.78 250.21 298.24 250.21C322.39 250.21 330.21 269.68 330.21 290.82V366.14H366.06V274.08C366.06 241.38 350.22 218.51 315.68 218.51C300 218.51 281.89 226.73 274.23 241L263.16 261.19V223.23H229.03V366.12H263.16V290.82ZM274.97 290.82V377.93H217.22V211.42H274.97V222.05C286.37 211.84 300.37 206.7 315.68 206.7C356.74 206.7 377.87 234.84 377.87 274.08V377.9L318.4 377.91V290.82C318.4 276.62 315.27 262.02 298.24 262.02C280.48 262.02 274.97 274.94 274.97 290.82ZM168.35 191.17C180.85 191.17 190.76 180.95 190.76 168.52C190.76 156.08 180.85 145.88 168.35 145.88C155.85 145.88 145.94 156.08 145.94 168.52C145.94 180.95 155.84 191.17 168.35 191.17ZM168.35 202.98C149.38 202.98 134.13 187.42 134.13 168.52C134.13 149.62 149.38 134.07 168.35 134.07C187.31 134.07 202.57 149.62 202.57 168.52C202.57 187.41 187.31 202.98 168.35 202.98ZM138.73 377.93V211.42H198.42V377.93H138.73ZM256 11.9098C121.19 11.9098 11.8998 121.19 11.8998 256C11.8998 390.81 121.19 500.09 256 500.09C390.81 500.09 500.1 390.81 500.1 256C500.1 121.19 390.81 11.9098 256 11.9098Z" fill="white"/>
</g>
<defs>
<clipPath id="clip0_67_11907">
<rect width="512" height="512" fill="white"/>
</clipPath>
</defs>
</svg>
