<svg width="175" height="15" viewBox="0 0 175 15" fill="none" xmlns="http://www.w3.org/2000/svg">
<g clip-path="url(#clip0_19_1267)">
<path d="M125.611 7.98739C127.126 8.56245 127.632 9.67695 127.768 11.0205C127.85 11.8144 127.873 12.6108 127.96 13.4021C128.019 13.911 128.145 14.42 128.253 14.9798H124.802C124.674 14.9322 124.562 14.8472 124.483 14.736C124.404 14.6248 124.36 14.4925 124.358 14.3563C124.217 13.4734 124.158 12.5752 124.053 11.6871C123.858 10.0764 123.185 9.46321 121.552 9.41487C120.854 9.39451 119.375 9.41487 119.375 9.41487V14.9289H115.576V0.0280988C115.576 0.0280988 121.124 -0.0609602 123.378 0.0713553C124.42 0.149093 125.433 0.452207 126.345 0.959397C128.761 2.29528 128.882 6.52937 126.012 7.76856C125.924 7.80672 125.845 7.86016 125.611 7.98739ZM119.411 3.02301V6.65151C119.411 6.65151 121.67 6.6108 122.749 6.47848C123.827 6.34617 124.335 5.68459 124.289 4.71767C124.287 4.49237 124.239 4.26978 124.149 4.06279C124.06 3.8558 123.929 3.66853 123.766 3.51184C123.603 3.35515 123.41 3.23215 123.198 3.14999C122.986 3.06782 122.76 3.02812 122.533 3.03319C121.519 2.98993 119.411 3.02301 119.411 3.02301Z" fill="white"/>
<path d="M159.599 0C159.599 0 159.679 6.87023 159.573 10.2443C159.489 12.9695 157.494 14.8066 154.547 14.9618C153.29 15.0392 152.029 14.9433 150.798 14.6768C148.547 14.1679 147.204 12.5394 147.14 10.2468C147.053 6.8626 147.117 0.0228998 147.117 0.0228998H150.873V8.92875C150.873 9.15013 150.873 9.3715 150.873 9.59287C150.965 11.2672 151.777 12.0611 153.371 12.0509C154.911 12.0509 155.792 11.1934 155.82 9.52417C155.866 6.72519 155.835 0.00509015 155.835 0.00509015L159.599 0Z" fill="white"/>
<path d="M161.509 0.0838779C161.509 0.0838779 167.298 -0.132407 170.125 0.147491C172.846 0.417211 174.353 2.83706 174.079 5.74546C173.848 8.1882 171.835 9.9821 169.221 10.0432C167.984 10.0712 165.414 10.0432 165.414 10.0432V14.9872H161.509V0.0838779ZM165.44 3.11696V7.03044C165.44 7.03044 167.106 7.03044 167.912 7.03044C168.114 7.02319 168.315 6.99936 168.513 6.9592C169.671 6.74037 170.225 6.05334 170.176 4.92357C170.128 3.87523 169.46 3.20093 168.31 3.1424C167.381 3.0737 165.44 3.11187 165.44 3.11187V3.11696Z" fill="white"/>
<path d="M73.5368 5.32819L69.9811 5.31038C69.9811 5.31038 69.9298 5.06865 69.8733 4.90326C69.7432 4.42849 69.4722 4.00341 69.0955 3.6831C68.7188 3.36278 68.2537 3.16202 67.7604 3.10682C66.5949 2.94143 65.5706 3.26967 64.8286 4.23405C63.5784 5.85491 63.5963 9.13481 64.8492 10.7709C65.6681 11.8371 66.7849 12.1603 68.0454 11.9058C69.1955 11.6717 69.8425 10.8727 70.0581 9.69206H73.7396C73.5342 11.6361 72.646 13.1246 70.9901 14.0865C68.315 15.6412 63.5014 15.3206 61.3218 11.8244C59.1421 8.32819 60.051 3.24422 63.3371 1.18061C65.776 -0.346106 68.3612 -0.358828 70.9182 0.951605C72.5407 1.78621 73.6754 3.90071 73.5368 5.32819Z" fill="white"/>
<path d="M3.62497 11.8753V0.0610352H0V14.9847H2.85223V14.9872H10.3974V11.8753H3.62497Z" fill="white"/>
<path d="M15.8788 0.0585938H12.2563V14.9873H15.8788V0.0585938Z" fill="white"/>
<path d="M21.2082 0.0483398H17.7373V14.9974H21.2082V0.0483398Z" fill="white"/>
<path d="M30.5583 0.0483398H27.0874V14.9974H30.5583V0.0483398Z" fill="white"/>
<path d="M21.208 0.0458984L27.087 9.64641V14.9976L21.208 5.33852V0.0458984Z" fill="white"/>
<path d="M44.804 0.0637207H32.417V3.18586H44.804V0.0637207Z" fill="white"/>
<path d="M40.4111 14.9822V2.70483H36.8093V14.9822H40.4111Z" fill="white"/>
<path d="M57.9637 0.0432129H46.6626V3.04576H57.9637V0.0432129Z" fill="white"/>
<path d="M58.1279 11.8447H46.665V14.9796H58.1279V11.8447Z" fill="white"/>
<path d="M56.9009 5.72021H46.7217V8.55482H56.9009V5.72021Z" fill="white"/>
<path d="M50.2824 1.10181H46.6626V12.0051H50.2824V1.10181Z" fill="white"/>
<path d="M79.3899 0.0483398H75.9189V14.9974H79.3899V0.0483398Z" fill="white"/>
<path d="M88.7375 0.0483398H85.2666V14.9974H88.7375V0.0483398Z" fill="white"/>
<path d="M86.2497 6.40454H77.8599V9.16281H86.2497V6.40454Z" fill="white"/>
<path d="M113.047 9.16295C112.839 11.1121 112.112 11.3792 110.954 12.906C108.575 16.0485 103.145 15.3716 100.957 11.8652C98.7702 8.35888 99.6738 3.25456 102.98 1.17822C105.43 -0.348495 108.02 -0.368853 110.587 0.949213C112.084 1.71257 113.17 3.56754 113.224 4.97975H109.886C109.881 4.95643 109.874 4.93347 109.866 4.91105C109.499 3.7482 108.515 3.15532 107.453 3.00519C106.892 2.92026 106.318 2.99055 105.795 3.20831C105.271 3.42608 104.819 3.78286 104.487 4.23929C103.235 5.86779 103.25 9.16041 104.511 10.8016C105.33 11.8703 106.449 12.1935 107.717 11.939C108.87 11.7049 110.064 10.9747 110.261 9.49629L113.047 9.16295Z" fill="white"/>
<path d="M113.419 6.90576H107.524V9.45284H113.419V6.90576Z" fill="white"/>
<path d="M113.419 9.16284H111.091V14.6209H113.419V9.16284Z" fill="white"/>
<path d="M132.273 13.0076C131.041 11.7303 130.425 9.87787 130.425 7.45039C130.425 5.0229 131.041 3.17727 132.273 1.91349C133.506 0.636137 135.291 -0.00169298 137.631 3.3747e-06C139.971 0.00169973 141.757 0.63953 142.989 1.91349C144.221 3.18745 144.837 5.03308 144.837 7.45039C144.837 9.86769 144.221 11.7201 142.989 13.0076C141.757 14.2833 139.971 14.9211 137.631 14.9211C135.291 14.9211 133.506 14.2833 132.273 13.0076ZM140.36 10.7176C140.992 9.96947 141.307 8.88211 141.307 7.45548C141.307 6.02884 140.992 4.94826 140.36 4.21374C139.732 3.46565 138.822 3.09161 137.631 3.09161C136.44 3.09161 135.529 3.46565 134.9 4.21374C134.278 4.95844 133.968 6.04156 133.968 7.46311C133.968 8.88465 134.283 9.97202 134.912 10.7252C135.544 11.4733 136.454 11.8465 137.644 11.8448C138.833 11.8431 139.739 11.4657 140.36 10.7125V10.7176Z" fill="white"/>
<path d="M172.436 13.649C172.436 13.3973 172.511 13.1514 172.652 12.9421C172.793 12.7329 172.993 12.5698 173.228 12.4736C173.462 12.3773 173.721 12.3521 173.97 12.4012C174.219 12.4502 174.447 12.5714 174.627 12.7493C174.806 12.9273 174.929 13.154 174.978 13.4008C175.028 13.6476 175.002 13.9034 174.905 14.1359C174.808 14.3683 174.643 14.567 174.432 14.7068C174.221 14.8466 173.973 14.9212 173.719 14.9212C173.379 14.9212 173.052 14.7872 172.812 14.5486C172.571 14.31 172.436 13.9864 172.436 13.649Z" fill="white"/>
</g>
<defs>
<clipPath id="clip0_19_1267">
<rect width="175" height="15" fill="white"/>
</clipPath>
</defs>
</svg>
