<svg width="41" height="41" viewBox="0 0 41 41" fill="none" xmlns="http://www.w3.org/2000/svg">
<g clip-path="url(#clip0_67_11904)">
<path d="M20.4996 0.00683594C31.8171 0.00683594 40.9924 9.18219 40.9924 20.4996C40.9924 31.8171 31.8171 40.9924 20.4996 40.9924C9.18219 40.9924 0.00683594 31.8171 0.00683594 20.4996C0.00683594 9.18219 9.18219 0.00683594 20.4996 0.00683594ZM23.5498 21.1755L19.1247 23.6019C18.6106 23.8789 18.0637 23.497 18.0637 22.9324V17.9555C18.0637 17.3934 18.6178 16.9978 19.1399 17.2949L23.593 19.847C24.1144 20.1505 24.0639 20.8936 23.5498 21.1755ZM19.0094 22.5881L22.8251 20.4956L19.0094 18.3079V22.5881ZM29.8423 17.9027C29.8423 15.803 28.1415 14.1014 26.0418 14.1014H14.9574C12.8586 14.1014 11.1569 15.803 11.1569 17.9027V23.0966C11.1569 25.1962 12.8586 26.8979 14.9574 26.8979H26.0418C28.1415 26.8979 29.8423 25.1962 29.8423 23.0966V17.9027ZM30.7881 17.9027V23.0966C30.7881 25.7183 28.6636 27.8436 26.0418 27.8436H14.9574C12.3365 27.8436 10.2112 25.7183 10.2112 23.0966V17.9027C10.2112 15.2809 12.3365 13.1557 14.9574 13.1557H26.0418C28.6636 13.1557 30.7881 15.2809 30.7881 17.9027ZM20.4996 0.953359C9.7043 0.953359 0.952559 9.7043 0.952559 20.4996C0.952559 31.295 9.7043 40.0459 20.4996 40.0459C31.295 40.0459 40.0467 31.295 40.0467 20.4996C40.0467 9.7043 31.295 0.953359 20.4996 0.953359Z" fill="white"/>
</g>
<defs>
<clipPath id="clip0_67_11904">
<rect width="41" height="41" fill="white"/>
</clipPath>
</defs>
</svg>
