<svg width="512" height="512" viewBox="0 0 512 512" fill="none" xmlns="http://www.w3.org/2000/svg">
<g clip-path="url(#clip0_67_11904)">
<path d="M256 0.0898438C397.33 0.0898438 511.91 114.67 511.91 256C511.91 397.33 397.33 511.91 256 511.91C114.67 511.91 0.0900879 397.33 0.0900879 256C0.0900879 114.67 114.67 0.0898438 256 0.0898438ZM294.09 264.44L238.83 294.74C232.41 298.2 225.58 293.43 225.58 286.38V224.23C225.58 217.21 232.5 212.27 239.02 215.98L294.63 247.85C301.14 251.64 300.51 260.92 294.09 264.44ZM237.39 282.08L285.04 255.95L237.39 228.63V282.08ZM372.67 223.57C372.67 197.35 351.43 176.1 325.21 176.1H186.79C160.58 176.1 139.33 197.35 139.33 223.57V288.43C139.33 314.65 160.58 335.9 186.79 335.9H325.21C351.43 335.9 372.67 314.65 372.67 288.43V223.57ZM384.48 223.57V288.43C384.48 321.17 357.95 347.71 325.21 347.71H186.79C154.06 347.71 127.52 321.17 127.52 288.43V223.57C127.52 190.83 154.06 164.29 186.79 164.29H325.21C357.95 164.29 384.48 190.83 384.48 223.57ZM256 11.9098C121.19 11.9098 11.9001 121.19 11.9001 256C11.9001 390.81 121.19 500.09 256 500.09C390.81 500.09 500.1 390.81 500.1 256C500.1 121.19 390.81 11.9098 256 11.9098Z" fill="white"/>
</g>
<defs>
<clipPath id="clip0_67_11904">
<rect width="512" height="512" fill="white"/>
</clipPath>
</defs>
</svg>
